<svg xmlns="http://www.w3.org/2000/svg" width="180" height="36" viewBox="0 0 180 36">
    <g fill="none" fill-rule="evenodd">
        <g fill-rule="nonzero">
            <g>
                <g>
                    <g>
                        <g fill="#9D9D9D">
                            <path d="M6.079 4.857L.102 4.857.102 1.766 15.385 1.766 15.385 4.857 9.645 4.857 9.645 22.109 6.113 22.109 6.113 4.857zM15.181 6.826h2.92l.239 2.65h.135c1.053-1.97 2.65-3.023 4.246-3.023.747 0 1.256.102 1.698.305l-.611 3.057c-.51-.136-.917-.238-1.563-.238-1.188 0-2.615.815-3.532 3.09v9.442h-3.532V6.826zM34.2 12.294c-.034-1.596-.713-2.988-2.75-2.988-1.53 0-2.956.679-4.28 1.494l-1.29-2.377c1.663-1.053 3.803-1.97 6.214-1.97 3.804 0 5.672 2.31 5.638 6.555v9.101h-2.887l-.271-1.766h-.102c-1.359 1.155-2.921 2.038-4.721 2.038-2.65 0-4.517-1.8-4.517-4.449.034-3.26 2.75-4.958 8.966-5.638zm-3.328 7.302c1.222 0 2.207-.611 3.328-1.664v-3.396c-4.11.543-5.468 1.596-5.468 3.124-.034 1.359.883 1.936 2.14 1.936zM38.785 6.826h3.668l2.411 7.846c.408 1.46.85 3.022 1.257 4.55h.136c.441-1.528.849-3.09 1.29-4.55l2.411-7.846h3.499L48.26 22.11h-4.143L38.785 6.826zM54.781 2.106c0-1.223.917-2.038 2.208-2.038 1.29 0 2.207.849 2.207 2.038 0 1.188-.917 2.003-2.207 2.003-1.29 0-2.208-.815-2.208-2.003zm.442 4.72h3.532V22.11h-3.532V6.826zM62.49 18c1.36 1.053 2.65 1.698 4.212 1.698 1.63 0 2.411-.781 2.411-1.834 0-1.256-1.63-1.834-3.26-2.445-2.004-.747-4.28-1.902-4.28-4.415 0-2.65 2.14-4.551 5.536-4.551 2.106 0 3.804.883 5.06 1.834l-1.63 2.173c-1.052-.78-2.139-1.29-3.362-1.29-1.528 0-2.241.713-2.241 1.664 0 1.189 1.528 1.664 3.158 2.275 2.072.782 4.381 1.766 4.381 4.62 0 2.614-2.071 4.72-5.909 4.72-2.072 0-4.28-.883-5.774-2.106L62.491 18z" transform="translate(-147 -824) translate(147 559) translate(0 47) translate(0 218) translate(0 7.132)"/>
                        </g>
                        <path fill="#3EAAAF" d="M81.238 8.898L84.94 8.898 84.94 29.242 81.238 29.242zM88.743 13.925h3.023l.272 2.037h.102c1.358-1.29 2.92-2.411 4.992-2.411 3.294 0 4.72 2.241 4.72 6.08v9.577h-3.667v-9.102c0-2.48-.713-3.397-2.343-3.397-1.325 0-2.208.612-3.43 1.868v10.63h-3.703V13.926h.034zM103.755 27.374l1.63-2.072c1.324 1.087 2.75 1.562 4.28 1.562 1.63 0 2.377-.747 2.377-1.766 0-1.29-1.495-1.766-3.193-2.377-2.207-.815-4.245-2.072-4.245-4.517 0-2.683 2.173-4.585 5.604-4.585 2.071 0 3.871.781 5.094 1.868l-1.596 2.071c-1.087-.815-2.208-1.188-3.43-1.188-1.529 0-2.208.747-2.208 1.63 0 1.12 1.087 1.562 3.023 2.208 2.377.815 4.449 2.003 4.449 4.652 0 2.65-2.106 4.755-6.012 4.755-2.105 0-4.279-.815-5.773-2.241zM118.528 13.925L122.23 13.925 122.23 29.208 118.528 29.208zM124.574 31.992c0-1.29.815-2.377 2.207-3.26v-.136c-.781-.51-1.392-1.29-1.392-2.547 0-1.189.815-2.207 1.698-2.819v-.136c-1.053-.78-2.004-2.241-2.004-4.041 0-3.498 2.853-5.502 6.045-5.502.85 0 1.63.17 2.276.374h5.468v2.75h-2.751c.475.544.849 1.495.849 2.514 0 3.396-2.615 5.196-5.842 5.196-.645 0-1.358-.136-2.037-.374-.442.374-.714.747-.714 1.427 0 .849.612 1.324 2.446 1.324h2.717c3.634 0 5.603 1.155 5.603 3.804 0 3.023-3.158 5.4-8.185 5.4-3.633 0-6.384-1.29-6.384-3.974zm11.003-.815c0-1.154-.917-1.494-2.649-1.494h-2.037c-.85 0-1.495-.068-2.072-.204-.815.612-1.155 1.29-1.155 2.004 0 1.359 1.494 2.14 3.838 2.14 2.445-.034 4.075-1.155 4.075-2.446zm-1.834-12.09c0-1.902-1.12-2.955-2.58-2.955-1.461 0-2.616 1.053-2.616 2.955 0 1.936 1.189 3.022 2.615 3.022 1.427 0 2.581-1.12 2.581-3.022zM141.453 7.302h3.702v5.672l-.17 2.92c1.257-1.188 2.75-2.31 4.857-2.31 3.294 0 4.72 2.242 4.72 6.08v9.578h-3.668V20.14c0-2.48-.713-3.397-2.343-3.397-1.325 0-2.208.612-3.43 1.868v10.63h-3.702V7.302h.034zM158.366 24.045V16.88h-2.174v-2.75l2.378-.204.441-4.755h3.057v4.755h3.872v2.92h-3.872v7.166c0 1.766.713 2.65 2.14 2.65.543 0 1.052-.103 1.596-.306l.645 2.58c-.815.374-1.936.646-3.158.646-3.6.034-4.925-2.207-4.925-5.536zM167.943 27.374l1.63-2.072c1.325 1.087 2.752 1.562 4.28 1.562 1.63 0 2.377-.747 2.377-1.766 0-1.29-1.494-1.766-3.192-2.377-2.208-.815-4.246-2.072-4.246-4.517 0-2.683 2.174-4.585 5.604-4.585 2.072 0 3.872.781 5.095 1.868l-1.597 2.071c-1.086-.815-2.207-1.188-3.43-1.188-1.528 0-2.207.747-2.207 1.63 0 1.12 1.086 1.562 3.022 2.208 2.378.815 4.45 2.003 4.45 4.652 0 2.65-2.106 4.755-6.012 4.755-2.106 0-4.28-.815-5.774-2.241zM120.634 11.92c-.476 0-.917-.17-1.223-.509l-3.328-3.328c-.68-.68-.68-1.8 0-2.48.68-.678 1.8-.678 2.48 0l2.105 2.106 7.2-7.2c.68-.679 1.8-.679 2.48 0 .678.68.678 1.8 0 2.48l-8.423 8.422c-.408.34-.85.51-1.291.51z" transform="translate(-147 -824) translate(147 559) translate(0 47) translate(0 218)"/>
                    </g>
                </g>
            </g>
        </g>
    </g>
</svg>
