<svg width="896" height="227" viewBox="0 0 896 227" fill="none" xmlns="http://www.w3.org/2000/svg">
<path d="M323.631 172.365C306.554 172.365 296.058 163.114 296.058 144.436V91.7802H278.625V79.8615H292.5C294.991 79.8615 296.948 78.2605 296.948 75.2363V53H310.112V79.8615H338.574V91.7802H310.112V144.258C310.112 154.22 313.847 160.09 324.521 160.09H337.329V172.365H323.631Z" fill="#EBEBEB" style="fill:#EBEBEB;fill:color(display-p3 0.9228 0.9228 0.9228);fill-opacity:1;"/>
<path d="M354.541 172.365V79.8615H368.417V97.1169H369.484C372.152 89.2897 381.225 79.8615 394.744 79.8615H402.572V93.9148H394.922C378.023 93.9148 368.595 107.079 368.595 124.69V172.365H354.541Z" fill="#EBEBEB" style="fill:#EBEBEB;fill:color(display-p3 0.9228 0.9228 0.9228);fill-opacity:1;"/>
<path d="M452.356 174.677C425.139 174.677 406.282 154.576 406.282 126.291C406.282 97.8284 425.139 77.5489 451.289 77.5489C470.679 77.5489 480.996 90.0012 483.843 94.8043H484.91V79.8615H498.963V172.365H485.444V157.778H484.376C482.064 161.157 472.458 174.677 452.356 174.677ZM453.245 162.047C473.347 162.047 485.444 145.681 485.444 126.291C485.444 103.521 471.212 90.357 452.89 90.357C433.855 90.357 420.691 105.3 420.691 126.291C420.691 147.994 433.855 162.047 453.245 162.047Z" fill="#EBEBEB" style="fill:#EBEBEB;fill:color(display-p3 0.9228 0.9228 0.9228);fill-opacity:1;"/>
<path d="M545.992 172.365L509.702 79.8615H524.823L552.752 155.109H553.819L581.57 79.8615H597.046L560.579 172.365H545.992Z" fill="#EBEBEB" style="fill:#EBEBEB;fill:color(display-p3 0.9228 0.9228 0.9228);fill-opacity:1;"/>
<path d="M609.46 172.365V79.8615H623.513V172.365H609.46Z" fill="#EBEBEB" style="fill:#EBEBEB;fill:color(display-p3 0.9228 0.9228 0.9228);fill-opacity:1;"/>
<path d="M675.461 174.677C653.581 174.677 641.128 162.758 639.527 145.503H653.225C654.826 156.532 662.653 162.403 676.173 162.403C690.048 162.403 697.698 155.643 697.698 146.215C697.698 120.243 642.374 139.989 642.374 103.343C642.374 87.6887 656.427 77.5489 675.817 77.5489C692.895 77.5489 707.126 87.5108 708.549 104.232H695.029C693.784 95.5159 687.202 89.6455 674.928 89.6455C663.365 89.6455 655.893 95.338 655.893 103.343C655.893 126.825 711.395 107.257 711.395 145.503C711.395 162.936 696.986 174.677 675.461 174.677Z" fill="#EBEBEB" style="fill:#EBEBEB;fill:color(display-p3 0.9228 0.9228 0.9228);fill-opacity:1;"/>
<path d="M654.803 143.68L655.029 145.241C655.772 150.358 657.921 154.113 661.314 156.623C664.747 159.162 669.657 160.579 676.173 160.579V162.402L675.543 162.398C662.41 162.218 654.801 156.36 653.225 145.503H639.527C641.103 162.489 653.194 174.304 674.442 174.669L675.461 174.677C696.649 174.677 710.943 163.301 711.385 146.316L711.396 145.503C711.395 107.556 656.757 126.522 655.903 103.886L655.894 103.343C655.894 95.3378 663.365 89.6455 674.928 89.6455L675.499 89.6494C687.218 89.8265 693.599 95.4688 694.967 103.826L695.029 104.232H708.549C707.148 87.7719 693.336 77.8622 676.615 77.5566L675.817 77.5488C656.427 77.5488 642.374 87.6885 642.374 103.343L642.384 104.191C643.235 139.683 697.697 120.446 697.697 146.215L697.692 146.654C697.458 155.852 689.832 162.402 676.173 162.402V160.579C682.835 160.579 687.777 158.955 691.012 156.411C694.203 153.901 695.874 150.39 695.874 146.215C695.874 143.317 695.111 141.179 693.861 139.513C692.591 137.819 690.719 136.479 688.295 135.37C683.351 133.107 676.742 132.046 669.663 130.566C662.763 129.124 655.492 127.289 649.958 123.333C644.27 119.266 640.551 113.064 640.551 103.343C640.551 94.9088 644.36 87.9353 650.724 83.1211C657.048 78.3364 665.824 75.7256 675.817 75.7256C693.565 75.7257 708.841 86.1604 710.366 104.078L710.534 106.056H693.448L693.225 104.49C692.66 100.541 690.914 97.3479 688.005 95.1172C685.072 92.8687 680.785 91.4688 674.928 91.4688C669.425 91.4688 665.075 92.8253 662.151 94.9639C659.266 97.0746 657.717 99.9715 657.717 103.343C657.717 105.882 658.453 107.717 659.668 109.147C660.919 110.62 662.785 111.79 665.238 112.764C670.241 114.749 676.873 115.648 684.008 117.1C690.957 118.514 698.259 120.446 703.818 124.625C709.516 128.907 713.219 135.414 713.219 145.503C713.219 154.767 709.371 162.581 702.65 168.043C695.962 173.479 686.541 176.501 675.461 176.501C664.192 176.501 655.158 173.428 648.709 167.951C642.25 162.466 638.55 154.708 637.712 145.672L637.527 143.68H654.803ZM294.235 144.436V93.6035H276.802V78.0381H292.5V79.8613H278.625V91.7803H296.059V144.436L296.066 145.305C296.383 163.114 306.492 172.077 322.836 172.357L323.631 172.364H337.329V160.09H324.521V158.267H339.152V174.188H323.631C314.776 174.188 307.365 171.786 302.167 166.709C296.96 161.624 294.235 154.112 294.235 144.436ZM498.963 79.8613H484.91V94.8047H483.843C481.041 90.0767 471 77.936 452.191 77.5576L451.289 77.5488C425.139 77.5488 406.282 97.8285 406.282 126.291L406.296 127.61C406.864 154.761 424.975 174.056 451.086 174.662L452.356 174.677C472.458 174.677 482.063 161.157 484.376 157.777H485.443V172.364H498.963V79.8613ZM526.091 78.0381L553.281 151.297L580.299 78.0381H599.726L561.82 174.188H544.748L507.028 78.0381H526.091ZM623.513 79.8613H609.46V172.364H623.513V79.8613ZM509.702 79.8613L545.992 172.364H560.579L597.046 79.8613H581.57L553.819 155.109H552.752L524.823 79.8613H509.702ZM483.62 126.291C483.62 115.292 480.19 106.786 474.718 101.043C469.247 95.3018 461.602 92.1807 452.89 92.1807C443.879 92.1807 436.329 95.7045 431.014 101.666C425.684 107.643 422.515 116.174 422.515 126.291C422.515 136.775 425.69 145.245 431.04 151.074C436.378 156.89 444.012 160.224 453.245 160.224V162.047L452.341 162.037C433.747 161.613 421.098 148.094 420.701 127.303L420.691 126.291C420.691 105.3 433.855 90.3574 452.89 90.3574L453.745 90.3662C471.653 90.7701 485.443 103.877 485.443 126.291L485.435 127.197C485.064 146.188 473.033 162.047 453.245 162.047V160.224C462.758 160.224 470.301 156.369 475.493 150.26C480.71 144.121 483.62 135.619 483.62 126.291ZM310.111 144.258V91.7803H338.574V79.8613H310.111V53H296.947V75.2363L296.942 75.5156C296.829 78.2672 295.035 79.7628 292.732 79.8564L292.5 79.8613V78.0381C293.356 78.0381 293.983 77.7679 294.387 77.376C294.778 76.9959 295.124 76.3406 295.124 75.2363V51.1768H311.935V78.0381H340.397V93.6035H311.935V144.258C311.935 149.07 312.849 152.51 314.713 154.74C316.519 156.9 319.514 158.267 324.521 158.267V160.09L324.025 160.086C314.058 159.911 310.349 154.429 310.123 145.18L310.111 144.258ZM394.744 79.8613L394.114 79.8682C380.943 80.1554 372.111 89.4122 369.484 97.1172H368.417V79.8613H354.541V172.364H368.595V124.689C368.595 107.354 377.731 94.3276 394.136 93.9248L394.922 93.915H402.571V79.8613H394.744V78.0381H404.396V95.7383H394.922C386.993 95.7384 380.941 98.8032 376.835 103.849C372.694 108.938 370.418 116.19 370.418 124.689V174.188H352.718V78.0381H370.24V91.4346C374.644 84.5097 383.171 78.0382 394.744 78.0381V79.8613ZM500.787 174.188H483.62V161.837C479.199 167.243 469.354 176.501 452.356 176.501C438.28 176.501 426.271 171.293 417.789 162.346C409.314 153.406 404.459 140.843 404.459 126.291C404.459 96.9574 424.001 75.7256 451.289 75.7256C468.001 75.7257 478.289 84.5848 483.087 90.5664V78.0381H500.787V174.188ZM625.337 174.188H607.637V78.0381H625.337V174.188Z" fill="#EBEBEB" style="fill:#EBEBEB;fill:color(display-p3 0.9228 0.9228 0.9228);fill-opacity:1;"/>
<path d="M784.157 175C775.924 175 768.766 172.942 762.681 168.826C756.686 164.62 752.033 158.893 748.723 151.645C745.501 144.308 743.891 135.897 743.891 126.412C743.891 116.569 745.591 108.024 748.991 100.776C752.391 93.5283 757.134 87.9358 763.218 83.9987C769.392 80.0616 776.551 78.093 784.693 78.093C791.225 78.093 797.131 79.3905 802.41 81.9854C807.779 84.4908 812.119 88.1595 815.43 92.9914C818.83 97.7338 820.799 103.416 821.335 110.037H805.766C805.05 104.042 802.813 99.255 799.055 95.6758C795.297 92.0071 790.465 90.1728 784.559 90.1728C779.459 90.1728 774.94 91.6492 771.003 94.602C767.155 97.4654 764.158 101.626 762.01 107.084C759.863 112.543 758.789 119.03 758.789 126.546C758.789 134.063 759.863 140.55 762.01 146.008C764.247 151.466 767.29 155.672 771.137 158.625C774.985 161.488 779.325 162.92 784.157 162.92C788.362 162.92 792.031 162.07 795.163 160.37C798.294 158.58 800.8 156.119 802.679 152.988C804.647 149.856 805.811 146.187 806.169 141.982H821.872C821.246 148.603 819.322 154.419 816.101 159.43C812.88 164.352 808.54 168.199 803.082 170.973C797.713 173.657 791.404 175 784.157 175Z" fill="#EBEBEB" style="fill:#EBEBEB;fill:color(display-p3 0.9228 0.9228 0.9228);fill-opacity:1;"/>
<path d="M856.017 173.389V79.7037H870.244V173.389H856.017ZM832.528 79.7037H893.598V91.7834H832.528V79.7037ZM832.528 161.309H893.598V173.389H832.528V161.309Z" fill="#EBEBEB" style="fill:#EBEBEB;fill:color(display-p3 0.9228 0.9228 0.9228);fill-opacity:1;"/>
<path d="M742.071 126.412C742.071 116.362 743.807 107.542 747.344 100.003L747.679 99.303C751.184 92.1155 756.03 86.4827 762.229 82.4709L762.24 82.4641L762.853 82.0823C769.209 78.1948 776.508 76.2737 784.693 76.2737C791.459 76.2737 797.632 77.6167 803.179 80.3362H803.18C808.828 82.972 813.414 86.8432 816.908 91.9309L817.243 92.4075C820.654 97.3542 822.607 103.202 823.149 109.89L823.309 111.857H804.15L803.959 110.253C803.285 104.606 801.203 100.234 797.8 96.9934L797.784 96.9778C794.409 93.6834 790.054 91.9925 784.56 91.9924C779.838 91.9924 775.705 93.3503 772.095 96.0579L772.089 96.0618C768.569 98.6814 765.754 102.538 763.703 107.75C761.659 112.946 760.608 119.197 760.608 126.546C760.608 133.885 761.656 140.128 763.694 145.319L764.104 146.282C766.196 151.028 768.924 154.632 772.245 157.181C775.771 159.798 779.722 161.1 784.156 161.1V162.92L783.705 162.915C779.054 162.829 774.865 161.399 771.138 158.625C767.29 155.672 764.248 151.466 762.011 146.008C759.997 140.891 758.928 134.87 758.802 127.944L758.789 126.546C758.789 119.265 759.797 112.949 761.812 107.599L762.011 107.084C764.091 101.797 766.969 97.7266 770.645 94.8743L771.003 94.6018C774.94 91.649 779.459 90.1731 784.56 90.1731L785.109 90.178C790.766 90.289 795.414 92.1219 799.055 95.676C802.695 99.1434 804.909 103.744 805.694 109.479L805.766 110.037H821.335C820.798 103.416 818.83 97.7339 815.43 92.9915C812.119 88.1595 807.779 84.491 802.41 81.9856C797.296 79.4718 791.594 78.1754 785.304 78.0969L784.693 78.093C776.551 78.093 769.393 80.0614 763.219 83.9983C757.134 87.9354 752.391 93.5287 748.991 100.777L748.677 101.459C745.486 108.559 743.891 116.877 743.891 126.412L743.896 127.298C743.993 136.422 745.602 144.538 748.723 151.646C752.033 158.893 756.687 164.62 762.682 168.825C768.576 172.813 775.478 174.869 783.388 174.993L784.156 174.999C791.178 174.999 797.317 173.74 802.575 171.221L803.081 170.973C808.369 168.286 812.608 164.591 815.796 159.888L816.101 159.43C819.322 154.419 821.246 148.603 821.872 141.982H806.169C805.811 146.187 804.647 149.856 802.679 152.988C800.8 156.119 798.294 158.58 795.162 160.369L794.569 160.679C791.57 162.173 788.099 162.92 784.156 162.92V161.1C788.105 161.1 791.459 160.305 794.276 158.78C797.126 157.147 799.401 154.913 801.118 152.051L801.128 152.035L801.139 152.019C802.932 149.166 804.019 145.785 804.355 141.827L804.497 140.162H823.872L823.684 142.153C823.033 149.029 821.028 155.132 817.632 160.414L817.627 160.42L817.623 160.427C814.221 165.625 809.635 169.683 803.906 172.595L803.896 172.601C798.227 175.435 791.629 176.82 784.156 176.82C775.606 176.82 768.083 174.676 761.662 170.332L761.649 170.324L761.637 170.316C755.353 165.908 750.5 159.917 747.067 152.402L747.062 152.389L747.057 152.377C743.717 144.771 742.071 136.103 742.071 126.412ZM893.598 161.309H870.244V91.7834H893.598V79.7034H832.528V91.7834H856.017V161.309H832.528V173.389H893.598V161.309ZM895.418 93.6028H872.063V159.49H895.418V175.208H830.708V159.49H854.197V93.6028H830.708V77.884H895.418V93.6028Z" fill="#EBEBEB" style="fill:#EBEBEB;fill:color(display-p3 0.9228 0.9228 0.9228);fill-opacity:1;"/>
<path d="M226.397 75.7242C226.195 74.7322 225.452 73.5146 224.619 73.0411C220.791 70.8315 216.919 68.7121 212.912 66.8858C210.908 65.9839 209.647 64.9016 208.837 62.8047C204.401 51.1929 198.165 40.6409 189.925 31.3289C174.143 13.449 154.556 2.94206 130.782 0.461871C120.11 -0.642939 109.619 0.2364 99.3079 3.07734C80.7116 8.21809 65.3348 18.4545 53.0199 33.2229C45.4328 42.3094 39.6018 52.4781 35.4593 63.5713C34.9415 64.9918 34.1535 65.7359 32.7577 66.3897C28.4576 68.3964 24.3151 70.7413 20.0825 72.9059C18.9343 73.4921 18.3715 74.4391 18.2139 75.6115C17.7861 78.7681 17.2458 81.9473 17.0882 85.1264C16.6604 93.6718 17.8762 101.969 21.0281 109.996C22.2438 113.107 23.8873 115.475 27.2193 116.354C27.3094 116.377 27.3544 116.602 27.2643 116.444C22.2888 122.194 17.2458 127.695 12.5855 133.513C7.9927 139.262 4.39053 145.711 0.675781 152.114C11.4598 142.238 23.0093 133.513 35.7295 126.23C35.8871 127.989 35.9096 128.011 34.7614 128.688C33.1404 129.657 31.4969 130.559 29.8759 131.528C27.557 132.926 26.3863 135.001 26.5664 137.706C26.7916 141.066 26.8816 144.47 27.602 147.717C28.8403 153.219 30.2587 158.72 32.1048 164.041C33.6807 168.573 35.5043 169.34 40.2772 168.844C42.8663 168.573 45.4553 168.19 48.2695 167.807C51.0612 176.442 55.1362 184.559 60.2468 192.158C60.0892 192.316 59.9316 192.473 59.7515 192.631C51.6691 188.933 43.5867 185.258 35.5268 181.561C35.3467 181.718 35.1891 181.876 35.009 182.034C41.0652 190.805 47.0088 199.688 53.245 208.324C56.6671 213.081 60.8546 217.185 66.1228 220.003C74.0251 224.242 82.4227 224.535 91.0454 223.25C95.2554 222.619 99.3079 222.416 103.585 223.814C112.816 226.835 122.407 227.624 132.065 226.384C141.408 225.167 150.279 222.348 158.519 217.681C160.072 216.802 161.761 216.08 163.472 215.607C170.361 213.758 177.295 212.112 184.162 210.241C190.263 208.595 194.766 204.942 197.67 199.26C202.195 190.422 206.833 181.628 211.426 172.812C211.583 172.497 211.628 172.136 211.786 171.572C205.369 174.458 199.223 177.231 192.829 180.095C194.811 175.044 196.657 170.355 198.368 166.003C201.632 166.003 204.672 166.003 207.688 166.003C210.728 166.003 212.619 164.447 213.497 161.651C216.289 152.881 218.517 143.974 218.562 134.685C218.562 131.528 217.459 129.116 214.555 127.605C212.866 126.726 211.268 125.689 209.625 124.719C209.557 124.539 211.155 116.129 211.155 116.129C213.092 116.557 214.645 116.895 217.077 116.467C220.206 115.926 222.255 113.694 223.448 110.56C227.838 99.2184 228.694 87.584 226.397 75.7017V75.7242ZM38.206 164.605C36.6975 164.56 36.3148 163.365 35.9771 162.328C34.7839 158.743 33.5006 155.18 32.6676 151.528C31.7896 147.695 31.4068 143.749 30.8215 139.871C30.3937 137.12 31.1367 135.023 33.9734 134.009C34.8064 133.716 35.5494 133.174 36.675 132.566C37.5981 140.029 38.4986 147.109 39.3091 154.211C39.4892 155.812 39.962 157.029 41.4029 157.864C42.5286 158.517 43.6542 159.261 44.6223 160.141C45.5229 160.975 46.1758 162.035 47.1664 163.275C43.8794 164.357 41.0877 164.695 38.2285 164.628L38.206 164.605ZM108.809 221.469C111.983 220.184 115.675 218.876 119.165 217.163C120.943 216.283 122.474 214.795 123.938 213.375C124.816 212.518 125.559 211.954 126.842 211.909C129.048 211.819 131.255 211.526 133.439 211.21C134.677 211.03 135.42 211.661 136.23 212.382C139.562 215.336 143.39 217.253 147.825 217.839C141.183 221.83 121.754 225.505 108.809 221.469ZM126.527 209.519C127.292 207.76 127.9 206.317 128.666 204.514C130.061 206.047 131.232 207.309 132.808 209.046C130.399 209.226 128.643 209.361 126.527 209.519ZM195.576 161.358C193.19 167.559 190.758 173.737 188.372 179.937C187.876 181.222 187.066 181.673 185.738 181.538C180.672 181.087 175.584 180.501 170.518 180.388C166.016 180.275 162.594 178.336 159.397 175.428C156.785 173.06 153.813 171.076 151.157 168.731C148.523 166.409 145.686 166.048 142.444 166.973C139.945 167.694 137.423 168.303 134.992 168.934C135.96 167.266 136.928 165.552 137.919 163.861C137.784 163.703 137.626 163.545 137.491 163.388C128.576 169.678 119.345 171.369 109.326 165.597C109.934 166.882 110.542 168.145 111.015 169.16C108.426 169.16 105.724 169.227 103.023 169.16C100.591 169.069 98.5424 169.904 96.6288 171.279C92.0135 174.571 88.4563 178.877 85.2819 183.522C84.5615 184.559 83.841 185.394 82.5352 185.777C77.1095 187.355 71.7062 189.024 66.3029 190.692C65.4249 190.963 64.7495 191.256 63.939 190.286C60.2468 185.89 52.8623 171.279 51.4214 165.011C53.943 166.792 56.3519 168.348 58.5583 170.129C60.1342 171.392 61.6876 171.64 63.5788 171.211C78.1001 167.92 92.6213 164.65 107.165 161.403C110.497 160.652 112.673 158.615 113.694 155.293C115.585 149.093 117.476 142.892 119.367 136.692C119.413 136.534 119.525 136.421 119.66 136.128C120.201 136.038 120.853 135.903 121.484 135.835C125.401 135.384 125.919 135.7 127.045 139.397C129.003 145.846 130.985 152.272 132.853 158.72C133.371 160.502 134.226 161.178 136.118 161.358C142.557 161.967 148.973 162.846 155.412 163.59C160.702 164.199 166.016 164.763 171.306 165.372C174.886 165.778 178.488 166.161 182.045 166.702C184.027 166.995 185.67 166.747 187.336 165.462C189.993 163.41 192.852 161.606 195.891 159.509C195.801 160.299 195.824 160.907 195.621 161.426L195.576 161.358ZM196.229 126.951C195.441 132.633 194.653 138.338 193.73 143.997C193.595 144.854 192.964 145.823 192.267 146.342C189.43 148.461 186.413 150.288 183.621 152.452C182.113 153.625 180.582 153.895 178.803 153.67C174.661 153.151 170.496 152.7 166.353 152.204C158.856 151.325 151.359 150.468 143.705 149.566C142.016 144.02 140.328 138.45 138.662 132.904C138.121 131.1 137.513 129.319 137.041 127.492C136.635 125.959 135.757 125.148 134.159 124.877C133.281 124.719 132.403 124.561 131.502 124.358C130.444 124.358 129.364 124.358 128.328 124.358C123.24 124.268 118.197 124.494 113.131 124.539C112.929 124.539 112.748 124.584 112.546 124.584C109.822 124.764 108.674 126.365 107.953 128.868C105.994 135.812 103.833 142.689 101.717 149.701C96.156 150.942 90.6401 152.159 85.1243 153.377C78.5728 154.82 71.9989 156.24 65.4474 157.751C64.2767 158.021 63.4437 157.909 62.4981 157.232C59.3687 154.977 56.1493 152.813 53.0424 150.536C52.4571 150.107 51.8942 149.296 51.8042 148.597C50.746 140.615 49.7779 132.611 48.8324 124.629C48.7198 123.75 48.8324 122.825 48.8324 121.427C83.2782 112.386 142.579 105.825 196.859 121.472C196.657 123.411 196.499 125.17 196.251 126.929L196.229 126.951ZM213.227 131.979C213.79 132.453 214.082 133.535 214.127 134.347C214.532 139.397 213.519 144.335 212.439 149.205C211.696 152.542 210.548 155.789 209.579 159.081C209.129 160.614 208.184 161.358 206.495 161.133C204.401 160.862 202.285 160.727 200.034 160.524C199.966 157.503 200.619 155.18 203.343 153.985C205.437 153.084 205.932 151.302 206.202 149.228C207.058 142.734 208.004 136.241 208.994 129.319C210.548 130.266 212.011 130.942 213.227 131.957V131.979ZM219.283 107.967C218.472 110.154 216.063 112.566 214.532 112.138C210.142 111.078 173.062 98.0459 123.623 98.4067C74.1602 98.7674 43.1364 107.628 31.5644 112.859C27.9623 112.296 26.0486 110.402 25.013 107.2C22.4915 99.534 21.2307 91.7327 21.4783 83.6834C21.5459 81.7218 21.7485 79.7376 21.8386 77.776C21.9061 76.4908 22.604 75.7468 23.5946 75.0027C30.6639 69.7718 38.7013 66.4574 46.7836 63.2106C48.5172 62.5116 50.2732 61.8352 52.0293 61.1588C51.9618 61.0235 51.9167 60.8657 51.8492 60.7304C47.8418 61.745 43.8118 62.7822 39.3767 63.9095C40.2997 61.6323 41.0427 59.6256 41.9432 57.6865C48.9675 42.828 58.9185 30.3143 72.269 20.6867C83.2106 12.7952 95.3005 7.47403 108.696 5.37715C133.438 1.49904 155.569 7.69951 175.269 22.9188C188.619 33.2454 199.403 48.0589 205.212 63.8644C200.889 62.7822 196.747 61.745 192.604 60.7078C192.604 60.7755 192.604 60.8431 192.582 60.9108C198.278 63.3684 204.041 65.6682 209.625 68.3513C213.384 70.1551 216.896 72.4775 220.521 74.5969C222.142 75.5439 222.885 76.9418 223.02 78.8358C223.673 88.8016 222.818 98.542 219.283 107.967ZM190.601 73.3793C190.443 71.9138 189.565 71.057 188.259 70.9217C186.053 70.6962 185.76 69.366 185.715 67.5171C185.49 59.6481 184.027 52.0046 181.212 44.6768C179.974 41.4526 178.376 38.3636 176.957 35.2296C176.732 35.3198 176.53 35.41 176.304 35.5001C178.938 40.7085 180.785 46.1649 181.955 51.8694C183.126 57.5963 183.644 63.3459 183.531 69.4336C182.406 69.163 181.618 69.0052 180.852 68.8023C175.561 67.3142 170.271 65.826 165.003 64.2703C163.292 63.7743 161.671 63.2782 160.027 65.2398C159.892 50.9449 158.001 37.4617 151.449 25.0834C154.962 38.9499 156.83 52.884 155.682 67.1563C155.569 68.5993 155.299 69.7042 153.971 70.4031C152.553 71.1472 152.282 72.3647 152.147 73.8754C151.765 78.475 150.774 82.9393 148.68 86.6596H97.4843C95.368 82.7139 94.3999 78.227 93.9722 73.6274C93.8371 72.1618 93.4318 71.057 92.1711 70.3806C90.8202 69.6591 90.5276 68.5092 90.4375 67.0887C89.6946 55.0936 90.5726 43.2564 93.3418 31.5544C93.6119 30.427 93.8596 29.3222 94.1297 28.1949C94.3774 27.1802 94.6025 26.1431 94.8502 25.1285C88.1411 37.4617 86.295 50.8547 86.1374 65.1045C84.3814 63.3459 82.8279 63.7517 81.2069 64.2703C78.5503 65.1045 75.8712 65.826 73.1921 66.5927C69.8151 67.5396 66.4155 68.4641 62.7458 69.5012C62.2505 57.7542 64.5244 46.8414 69.0271 36.3569C62.8809 46.7512 60.607 58.16 60.1792 70.1777C59.4588 70.4257 58.8059 70.7413 58.0855 70.8541C56.3069 71.1472 55.5865 72.2971 55.4739 73.9205C55.1137 78.6779 54.7309 83.4354 54.5058 88.1928C54.4158 90.0642 54.7535 91.9357 54.8885 93.8522C52.1419 94.9344 49.5303 95.949 46.5135 97.1215C52.8623 96.0167 58.6933 94.6638 64.5919 94.0325C73.7324 93.063 82.918 92.364 92.1035 91.9356C102.617 91.4622 113.154 91.2367 123.668 91.2367C139.877 91.2367 156.065 91.4171 172.229 92.9954C178.105 93.559 183.959 94.4384 189.813 95.2952C192.627 95.701 195.396 96.3774 198.188 96.9411L198.3 96.5804C195.936 95.6559 193.55 94.7089 191.208 93.7845C192.267 86.7723 191.388 80.0758 190.668 73.3568L190.601 73.3793ZM57.8378 92.7699C57.5451 86.5018 57.4551 80.2111 58.6258 73.9205C66.3705 71.7109 73.9801 69.5463 81.9049 67.2916C81.8598 74.3714 81.9724 81.2934 83.9311 88.0575C75.2633 89.6358 66.7082 91.169 57.8153 92.7924L57.8378 92.7699ZM93.8371 87.3811C91.6758 87.584 89.4919 87.8095 87.1505 88.035C85.4395 81.7894 84.8091 75.5213 85.0117 68.7346C86.9704 70.2678 88.6139 71.5756 90.2574 72.9059C90.5501 73.1313 90.8203 73.5597 90.8428 73.9205C91.0679 78.475 92.5088 82.7589 93.9271 87.0204C93.9271 87.088 93.9046 87.1782 93.8596 87.3586L93.8371 87.3811ZM158.901 88.0124C156.695 87.8095 154.511 87.6066 152.125 87.4037C152.26 86.7949 152.372 86.2763 152.508 85.7803C153.363 82.1276 154.219 78.4525 155.119 74.7998C155.299 74.0558 155.569 73.199 156.11 72.7029C157.551 71.3952 159.149 70.2678 160.905 68.8699C161.31 75.4762 160.59 81.6767 158.901 88.0124ZM188.102 92.7699C179.411 91.1916 170.834 89.6358 162.639 88.1477C163.247 81.3836 163.899 74.4616 164.53 67.4269C169.73 68.8925 175.224 70.4482 180.717 72.004C182.608 72.5451 184.522 73.0411 186.368 73.695C186.863 73.8754 187.539 74.4391 187.584 74.9125C188.327 80.865 188.89 86.8174 188.102 92.7924V92.7699ZM157.933 142.486C162.729 142.486 166.624 137.481 166.624 131.303C166.624 125.125 162.729 120.12 157.933 120.12C153.138 120.12 149.243 125.125 149.243 131.303C149.243 137.481 153.138 142.486 157.933 142.486ZM156.582 125.103C157.956 125.103 159.059 126.207 159.059 127.583C159.059 128.958 157.956 130.063 156.582 130.063C155.209 130.063 154.106 128.958 154.106 127.583C154.106 126.207 155.209 125.103 156.582 125.103ZM86.6552 122.149C81.8598 122.149 77.965 127.154 77.965 133.332C77.965 139.51 81.8598 144.516 86.6552 144.516C91.4506 144.516 95.3455 139.51 95.3455 133.332C95.3455 127.154 91.4506 122.149 86.6552 122.149ZM87.6008 132.566C86.2275 132.566 85.1243 131.461 85.1243 130.085C85.1243 128.71 86.2275 127.605 87.6008 127.605C88.9741 127.605 90.0773 128.71 90.0773 130.085C90.0773 131.461 88.9741 132.566 87.6008 132.566Z" fill="#EBEBEB" style="fill:#EBEBEB;fill:color(display-p3 0.9228 0.9228 0.9228);fill-opacity:1;"/>
<path d="M142.676 27.4473V35.8955H128.479V78.1582H118.725V35.8955H104.447V27.4473H142.676Z" fill="#EBEBEB" stroke="#EBEBEB" style="fill:#EBEBEB;fill:color(display-p3 0.9228 0.9228 0.9228);fill-opacity:1;stroke:#EBEBEB;stroke:color(display-p3 0.9228 0.9228 0.9228);stroke-opacity:1;" stroke-width="1.10609"/>
</svg>
