<svg width="895" height="227" viewBox="0 0 895 227" fill="none" xmlns="http://www.w3.org/2000/svg">
<path d="M322.956 172.365C305.878 172.365 295.382 163.114 295.382 144.436V91.7802H277.949V79.8615H291.825C294.315 79.8615 296.272 78.2605 296.272 75.2363V53H309.436V79.8615H337.898V91.7802H309.436V144.258C309.436 154.22 313.172 160.09 323.845 160.09H336.653V172.365H322.956Z" fill="black" style="fill:black;fill-opacity:1;"/>
<path d="M353.865 172.365V79.8615H367.741V97.1169H368.808C371.477 89.2897 380.549 79.8615 394.069 79.8615H401.896V93.9148H394.247C377.347 93.9148 367.919 107.079 367.919 124.69V172.365H353.865Z" fill="black" style="fill:black;fill-opacity:1;"/>
<path d="M451.68 174.677C424.463 174.677 405.607 154.576 405.607 126.291C405.607 97.8284 424.463 77.5489 450.613 77.5489C470.003 77.5489 480.321 90.0012 483.167 94.8043H484.234V79.8615H498.288V172.365H484.768V157.778H483.701C481.388 161.157 471.782 174.677 451.68 174.677ZM452.57 162.047C472.671 162.047 484.768 145.681 484.768 126.291C484.768 103.521 470.537 90.357 452.214 90.357C433.18 90.357 420.016 105.3 420.016 126.291C420.016 147.994 433.18 162.047 452.57 162.047Z" fill="black" style="fill:black;fill-opacity:1;"/>
<path d="M545.316 172.365L509.026 79.8615H524.147L552.076 155.109H553.143L580.894 79.8615H596.371L559.903 172.365H545.316Z" fill="black" style="fill:black;fill-opacity:1;"/>
<path d="M608.784 172.365V79.8615H622.837V172.365H608.784Z" fill="black" style="fill:black;fill-opacity:1;"/>
<path d="M674.786 174.677C652.905 174.677 640.453 162.758 638.852 145.503H652.549C654.15 156.532 661.977 162.403 675.497 162.403C689.373 162.403 697.022 155.643 697.022 146.215C697.022 120.243 641.698 139.989 641.698 103.343C641.698 87.6887 655.751 77.5489 675.141 77.5489C692.219 77.5489 706.45 87.5108 707.873 104.232H694.354C693.108 95.5159 686.526 89.6455 674.252 89.6455C662.689 89.6455 655.218 95.338 655.218 103.343C655.218 126.825 710.72 107.257 710.72 145.503C710.72 162.936 696.31 174.677 674.786 174.677Z" fill="black" style="fill:black;fill-opacity:1;"/>
<path d="M654.127 143.68L654.354 145.241C655.096 150.358 657.246 154.113 660.639 156.623C664.071 159.162 668.981 160.579 675.497 160.579V162.402L674.867 162.398C661.734 162.218 654.125 156.36 652.549 145.503H638.852C640.428 162.489 652.518 174.304 673.767 174.669L674.785 174.677C695.973 174.677 710.267 163.301 710.709 146.316L710.72 145.503C710.72 107.556 656.082 126.522 655.228 103.886L655.218 103.343C655.218 95.3378 662.689 89.6455 674.252 89.6455L674.823 89.6494C686.542 89.8265 692.923 95.4688 694.291 103.826L694.354 104.232H707.873C706.472 87.7719 692.66 77.8622 675.939 77.5566L675.142 77.5488C655.752 77.5488 641.698 87.6885 641.698 103.343L641.708 104.191C642.559 139.683 697.021 120.446 697.021 146.215L697.017 146.654C696.782 155.852 689.156 162.402 675.497 162.402V160.579C682.159 160.579 687.102 158.955 690.336 156.411C693.527 153.901 695.198 150.39 695.198 146.215C695.198 143.317 694.435 141.179 693.186 139.513C691.915 137.819 690.043 136.479 687.619 135.37C682.675 133.107 676.066 132.046 668.987 130.566C662.087 129.124 654.816 127.289 649.282 123.333C643.594 119.266 639.875 113.064 639.875 103.343C639.875 94.9088 643.685 87.9353 650.048 83.1211C656.372 78.3364 665.148 75.7256 675.142 75.7256C692.89 75.7257 708.166 86.1604 709.69 104.078L709.858 106.056H692.772L692.549 104.49C691.985 100.541 690.239 97.3479 687.329 95.1172C684.396 92.8687 680.109 91.4688 674.252 91.4688C668.75 91.4688 664.399 92.8253 661.476 94.9639C658.59 97.0746 657.041 99.9715 657.041 103.343C657.041 105.882 657.777 107.717 658.992 109.147C660.243 110.62 662.109 111.79 664.562 112.764C669.565 114.749 676.197 115.648 683.332 117.1C690.281 118.514 697.583 120.446 703.143 124.625C708.84 128.907 712.543 135.414 712.543 145.503C712.543 154.767 708.695 162.581 701.975 168.043C695.286 173.479 685.865 176.501 674.785 176.501C663.516 176.501 654.482 173.428 648.033 167.951C641.574 162.466 637.875 154.708 637.036 145.672L636.852 143.68H654.127ZM293.56 144.436V93.6035H276.126V78.0381H291.824V79.8613H277.949V91.7803H295.383V144.436L295.391 145.305C295.708 163.114 305.816 172.077 322.16 172.357L322.955 172.364H336.653V160.09H323.845V158.267H338.477V174.188H322.955C314.1 174.188 306.69 171.786 301.491 166.709C296.285 161.624 293.56 154.112 293.56 144.436ZM498.287 79.8613H484.234V94.8047H483.167C480.365 90.0767 470.324 77.936 451.516 77.5576L450.613 77.5488C424.463 77.5488 405.606 97.8285 405.606 126.291L405.62 127.61C406.188 154.761 424.299 174.056 450.41 174.662L451.681 174.677C471.782 174.677 481.388 161.157 483.7 157.777H484.768V172.364H498.287V79.8613ZM525.415 78.0381L552.605 151.297L579.623 78.0381H599.05L561.145 174.188H544.072L506.353 78.0381H525.415ZM622.837 79.8613H608.784V172.364H622.837V79.8613ZM509.026 79.8613L545.316 172.364H559.903L596.37 79.8613H580.895L553.144 155.109H552.076L524.147 79.8613H509.026ZM482.944 126.291C482.944 115.292 479.514 106.786 474.042 101.043C468.571 95.3018 460.927 92.1807 452.214 92.1807C443.203 92.1807 435.653 95.7045 430.338 101.666C425.009 107.643 421.839 116.174 421.839 126.291C421.839 136.775 425.014 145.245 430.364 151.074C435.702 156.89 443.336 160.224 452.569 160.224V162.047L451.665 162.037C433.071 161.613 420.422 148.094 420.025 127.303L420.016 126.291C420.016 105.3 433.18 90.3574 452.214 90.3574L453.069 90.3662C470.978 90.7701 484.768 103.877 484.768 126.291L484.759 127.197C484.388 146.188 472.357 162.047 452.569 162.047V160.224C462.082 160.224 469.625 156.369 474.817 150.26C480.034 144.121 482.944 135.619 482.944 126.291ZM309.436 144.258V91.7803H337.898V79.8613H309.436V53H296.271V75.2363L296.267 75.5156C296.153 78.2672 294.359 79.7628 292.057 79.8564L291.824 79.8613V78.0381C292.68 78.0381 293.308 77.7679 293.711 77.376C294.102 76.9959 294.448 76.3406 294.448 75.2363V51.1768H311.259V78.0381H339.722V93.6035H311.259V144.258C311.259 149.07 312.173 152.51 314.037 154.74C315.843 156.9 318.838 158.267 323.845 158.267V160.09L323.35 160.086C313.382 159.911 309.673 154.429 309.447 145.18L309.436 144.258ZM394.068 79.8613L393.438 79.8682C380.267 80.1554 371.435 89.4122 368.809 97.1172H367.741V79.8613H353.865V172.364H367.919V124.689C367.919 107.354 377.055 94.3276 393.46 93.9248L394.246 93.915H401.896V79.8613H394.068V78.0381H403.72V95.7383H394.246C386.317 95.7384 380.265 98.8032 376.159 103.849C372.018 108.938 369.742 116.19 369.742 124.689V174.188H352.042V78.0381H369.564V91.4346C373.968 84.5097 382.495 78.0382 394.068 78.0381V79.8613ZM500.111 174.188H482.944V161.837C478.523 167.243 468.679 176.501 451.681 176.501C437.604 176.501 425.595 171.293 417.113 162.346C408.638 153.406 403.783 140.843 403.783 126.291C403.783 96.9574 423.326 75.7256 450.613 75.7256C467.325 75.7257 477.613 84.5848 482.411 90.5664V78.0381H500.111V174.188ZM624.661 174.188H606.961V78.0381H624.661V174.188Z" fill="black" style="fill:black;fill-opacity:1;"/>
<path d="M783.481 175C775.249 175 768.09 172.942 762.006 168.826C756.01 164.62 751.358 158.893 748.047 151.645C744.825 144.308 743.215 135.897 743.215 126.412C743.215 116.569 744.915 108.024 748.315 100.776C751.715 93.5283 756.458 87.9358 762.542 83.9987C768.717 80.0616 775.875 78.093 784.018 78.093C790.55 78.093 796.455 79.3905 801.735 81.9854C807.103 84.4908 811.443 88.1595 814.754 92.9914C818.154 97.7338 820.123 103.416 820.66 110.037H805.09C804.374 104.042 802.137 99.255 798.379 95.6758C794.621 92.0071 789.789 90.1728 783.883 90.1728C778.783 90.1728 774.264 91.6492 770.327 94.602C766.48 97.4654 763.482 101.626 761.335 107.084C759.187 112.543 758.113 119.03 758.113 126.546C758.113 134.063 759.187 140.55 761.335 146.008C763.572 151.466 766.614 155.672 770.461 158.625C774.309 161.488 778.649 162.92 783.481 162.92C787.686 162.92 791.355 162.07 794.487 160.37C797.619 158.58 800.124 156.119 802.003 152.988C803.972 149.856 805.135 146.187 805.493 141.982H821.197C820.57 148.603 818.646 154.419 815.425 159.43C812.204 164.352 807.864 168.199 802.406 170.973C797.037 173.657 790.729 175 783.481 175Z" fill="black" style="fill:black;fill-opacity:1;"/>
<path d="M855.341 173.389V79.7037H869.568V173.389H855.341ZM831.852 79.7037H892.922V91.7834H831.852V79.7037ZM831.852 161.309H892.922V173.389H831.852V161.309Z" fill="black" style="fill:black;fill-opacity:1;"/>
<path d="M741.396 126.412C741.396 116.362 743.131 107.542 746.668 100.003L747.003 99.303C750.508 92.1155 755.354 86.4827 761.554 82.4709L761.564 82.4641L762.177 82.0823C768.533 78.1948 775.833 76.2737 784.018 76.2737C790.783 76.2737 796.956 77.6167 802.503 80.3362H802.504C808.152 82.972 812.738 86.8432 816.232 91.9309L816.567 92.4075C819.978 97.3542 821.931 103.202 822.474 109.89L822.633 111.857H803.475L803.283 110.253C802.609 104.606 800.527 100.234 797.124 96.9934L797.108 96.9778C793.734 93.6834 789.379 91.9925 783.884 91.9924C779.162 91.9924 775.029 93.3503 771.419 96.0579L771.413 96.0618C767.893 98.6814 765.078 102.538 763.027 107.75C760.983 112.946 759.933 119.197 759.933 126.546C759.933 133.885 760.98 140.128 763.019 145.319L763.428 146.282C765.52 151.028 768.248 154.632 771.569 157.181C775.095 159.798 779.046 161.1 783.48 161.1V162.92L783.029 162.915C778.378 162.829 774.189 161.399 770.462 158.625C766.614 155.672 763.572 151.466 761.335 146.008C759.322 140.891 758.252 134.87 758.126 127.944L758.113 126.546C758.113 119.265 759.121 112.949 761.137 107.599L761.335 107.084C763.415 101.797 766.293 97.7266 769.969 94.8743L770.327 94.6018C774.264 91.649 778.783 90.1731 783.884 90.1731L784.434 90.178C790.09 90.289 794.738 92.1219 798.379 95.676C802.02 99.1434 804.233 103.744 805.019 109.479L805.09 110.037H820.659C820.122 103.416 818.154 97.7339 814.754 92.9915C811.443 88.1595 807.103 84.491 801.734 81.9856C796.62 79.4718 790.918 78.1754 784.628 78.0969L784.018 78.093C775.875 78.093 768.717 80.0614 762.543 83.9983C756.458 87.9354 751.716 93.5287 748.315 100.777L748.001 101.459C744.81 108.559 743.215 116.877 743.215 126.412L743.22 127.298C743.317 136.422 744.926 144.538 748.047 151.646C751.358 158.893 756.011 164.62 762.006 168.825C767.9 172.813 774.802 174.869 782.712 174.993L783.48 174.999C790.502 174.999 796.642 173.74 801.899 171.221L802.405 170.973C807.693 168.286 811.932 164.591 815.12 159.888L815.425 159.43C818.646 154.419 820.57 148.603 821.196 141.982H805.493C805.135 146.187 803.971 149.856 802.003 152.988C800.124 156.119 797.618 158.58 794.486 160.369L793.894 160.679C790.895 162.173 787.423 162.92 783.48 162.92V161.1C787.429 161.1 790.783 160.305 793.601 158.78C796.45 157.147 798.725 154.913 800.442 152.051L800.452 152.035L800.463 152.019C802.256 149.166 803.343 145.785 803.68 141.827L803.821 140.162H823.196L823.008 142.153C822.357 149.029 820.352 155.132 816.956 160.414L816.951 160.42L816.947 160.427C813.545 165.625 808.96 169.683 803.23 172.595L803.22 172.601C797.551 175.435 790.953 176.82 783.48 176.82C774.931 176.82 767.407 174.676 760.986 170.332L760.974 170.324L760.961 170.316C754.678 165.908 749.825 159.917 746.392 152.402L746.386 152.389L746.381 152.377C743.042 144.771 741.396 136.103 741.396 126.412ZM892.922 161.309H869.568V91.7834H892.922V79.7034H831.853V91.7834H855.341V161.309H831.853V173.389H892.922V161.309ZM894.742 93.6028H871.388V159.49H894.742V175.208H830.032V159.49H853.521V93.6028H830.032V77.884H894.742V93.6028Z" fill="black" style="fill:black;fill-opacity:1;"/>
<path d="M225.721 75.7242C225.519 74.7322 224.776 73.5146 223.943 73.0411C220.115 70.8315 216.243 68.7121 212.236 66.8858C210.232 65.9839 208.971 64.9016 208.161 62.8047C203.726 51.1929 197.489 40.6409 189.249 31.3289C173.467 13.449 153.88 2.94206 130.106 0.461871C119.435 -0.642939 108.943 0.2364 98.6321 3.07734C80.0359 8.21809 64.6591 18.4545 52.3441 33.2229C44.757 42.3094 38.926 52.4781 34.7835 63.5713C34.2657 64.9918 33.4777 65.7359 32.0819 66.3897C27.7818 68.3964 23.6393 70.7413 19.4067 72.9059C18.2585 73.4921 17.6957 74.4391 17.5381 75.6115C17.1103 78.7681 16.57 81.9473 16.4124 85.1264C15.9847 93.6718 17.2004 101.969 20.3523 109.996C21.568 113.107 23.2115 115.475 26.5435 116.354C26.6336 116.377 26.6786 116.602 26.5886 116.444C21.6131 122.194 16.57 127.695 11.9097 133.513C7.31692 139.262 3.71474 145.711 0 152.114C10.784 142.238 22.3335 133.513 35.0537 126.23C35.2113 127.989 35.2338 128.011 34.0856 128.688C32.4646 129.657 30.8211 130.559 29.2001 131.528C26.8812 132.926 25.7105 135.001 25.8906 137.706C26.1158 141.066 26.2058 144.47 26.9263 147.717C28.1645 153.219 29.5829 158.72 31.429 164.041C33.0049 168.573 34.8285 169.34 39.6014 168.844C42.1905 168.573 44.7796 168.19 47.5938 167.807C50.3854 176.442 54.4604 184.559 59.571 192.158C59.4134 192.316 59.2558 192.473 59.0757 192.631C50.9933 188.933 42.9109 185.258 34.8511 181.561C34.6709 181.718 34.5134 181.876 34.3332 182.034C40.3894 190.805 46.333 199.688 52.5693 208.324C55.9913 213.081 60.1789 217.185 65.447 220.003C73.3493 224.242 81.7469 224.535 90.3696 223.25C94.5796 222.619 98.6321 222.416 102.91 223.814C112.14 226.835 121.731 227.624 131.389 226.384C140.733 225.167 149.603 222.348 157.843 217.681C159.396 216.802 161.085 216.08 162.796 215.607C169.685 213.758 176.619 212.112 183.486 210.241C189.587 208.595 194.09 204.942 196.994 199.26C201.519 190.422 206.157 181.628 210.75 172.812C210.907 172.497 210.952 172.136 211.11 171.572C204.694 174.458 198.547 177.231 192.154 180.095C194.135 175.044 195.981 170.355 197.692 166.003C200.956 166.003 203.996 166.003 207.013 166.003C210.052 166.003 211.943 164.447 212.821 161.651C215.613 152.881 217.842 143.974 217.887 134.685C217.887 131.528 216.783 129.116 213.879 127.605C212.191 126.726 210.592 125.689 208.949 124.719C208.881 124.539 210.48 116.129 210.48 116.129C212.416 116.557 213.969 116.895 216.401 116.467C219.53 115.926 221.579 113.694 222.772 110.56C227.162 99.2184 228.018 87.584 225.721 75.7017V75.7242ZM37.5302 164.605C36.0218 164.56 35.639 163.365 35.3013 162.328C34.1081 158.743 32.8248 155.18 31.9918 151.528C31.1138 147.695 30.7311 143.749 30.1457 139.871C29.718 137.12 30.4609 135.023 33.2976 134.009C34.1306 133.716 34.8736 133.174 35.9992 132.566C36.9223 140.029 37.8229 147.109 38.6333 154.211C38.8134 155.812 39.2862 157.029 40.7271 157.864C41.8528 158.517 42.9785 159.261 43.9466 160.141C44.8471 160.975 45.5 162.035 46.4906 163.275C43.2036 164.357 40.4119 164.695 37.5527 164.628L37.5302 164.605ZM108.133 221.469C111.307 220.184 114.999 218.876 118.489 217.163C120.268 216.283 121.799 214.795 123.262 213.375C124.14 212.518 124.883 211.954 126.166 211.909C128.373 211.819 130.579 211.526 132.763 211.21C134.001 211.03 134.744 211.661 135.554 212.382C138.886 215.336 142.714 217.253 147.149 217.839C140.507 221.83 121.078 225.505 108.133 221.469ZM125.851 209.519C126.617 207.76 127.224 206.317 127.99 204.514C129.386 206.047 130.556 207.309 132.132 209.046C129.723 209.226 127.967 209.361 125.851 209.519ZM194.9 161.358C192.514 167.559 190.082 173.737 187.696 179.937C187.201 181.222 186.39 181.673 185.062 181.538C179.996 181.087 174.908 180.501 169.843 180.388C165.34 180.275 161.918 178.336 158.721 175.428C156.109 173.06 153.138 171.076 150.481 168.731C147.847 166.409 145.01 166.048 141.768 166.973C139.269 167.694 136.748 168.303 134.316 168.934C135.284 167.266 136.252 165.552 137.243 163.861C137.108 163.703 136.95 163.545 136.815 163.388C127.9 169.678 118.669 171.369 108.651 165.597C109.259 166.882 109.866 168.145 110.339 169.16C107.75 169.16 105.048 169.227 102.347 169.16C99.9154 169.069 97.8666 169.904 95.953 171.279C91.3377 174.571 87.7805 178.877 84.6061 183.522C83.8857 184.559 83.1653 185.394 81.8595 185.777C76.4337 187.355 71.0304 189.024 65.6272 190.692C64.7491 190.963 64.0737 191.256 63.2632 190.286C59.571 185.89 52.1865 171.279 50.7457 165.011C53.2672 166.792 55.6761 168.348 57.8825 170.129C59.4584 171.392 61.0119 171.64 62.903 171.211C77.4243 167.92 91.9455 164.65 106.489 161.403C109.821 160.652 111.998 158.615 113.018 155.293C114.909 149.093 116.801 142.892 118.692 136.692C118.737 136.534 118.849 136.421 118.984 136.128C119.525 136.038 120.178 135.903 120.808 135.835C124.725 135.384 125.243 135.7 126.369 139.397C128.328 145.846 130.309 152.272 132.177 158.72C132.695 160.502 133.551 161.178 135.442 161.358C141.881 161.967 148.297 162.846 154.736 163.59C160.027 164.199 165.34 164.763 170.631 165.372C174.21 165.778 177.812 166.161 181.37 166.702C183.351 166.995 184.994 166.747 186.66 165.462C189.317 163.41 192.176 161.606 195.215 159.509C195.125 160.299 195.148 160.907 194.945 161.426L194.9 161.358ZM195.553 126.951C194.765 132.633 193.977 138.338 193.054 143.997C192.919 144.854 192.289 145.823 191.591 146.342C188.754 148.461 185.737 150.288 182.946 152.452C181.437 153.625 179.906 153.895 178.128 153.67C173.985 153.151 169.82 152.7 165.678 152.204C158.181 151.325 150.684 150.468 143.029 149.566C141.34 144.02 139.652 138.45 137.986 132.904C137.446 131.1 136.838 129.319 136.365 127.492C135.96 125.959 135.082 125.148 133.483 124.877C132.605 124.719 131.727 124.561 130.827 124.358C129.768 124.358 128.688 124.358 127.652 124.358C122.564 124.268 117.521 124.494 112.455 124.539C112.253 124.539 112.073 124.584 111.87 124.584C109.146 124.764 107.998 126.365 107.277 128.868C105.319 135.812 103.157 142.689 101.041 149.701C95.4802 150.942 89.9643 152.159 84.4485 153.377C77.8971 154.82 71.3231 156.24 64.7716 157.751C63.6009 158.021 62.7679 157.909 61.8223 157.232C58.693 154.977 55.4735 152.813 52.3666 150.536C51.7813 150.107 51.2184 149.296 51.1284 148.597C50.0703 140.615 49.1022 132.611 48.1566 124.629C48.044 123.75 48.1566 122.825 48.1566 121.427C82.6024 112.386 141.903 105.825 196.184 121.472C195.981 123.411 195.823 125.17 195.576 126.929L195.553 126.951ZM212.551 131.979C213.114 132.453 213.406 133.535 213.451 134.347C213.857 139.397 212.844 144.335 211.763 149.205C211.02 152.542 209.872 155.789 208.904 159.081C208.453 160.614 207.508 161.358 205.819 161.133C203.726 160.862 201.609 160.727 199.358 160.524C199.29 157.503 199.943 155.18 202.667 153.985C204.761 153.084 205.257 151.302 205.527 149.228C206.382 142.734 207.328 136.241 208.318 129.319C209.872 130.266 211.335 130.942 212.551 131.957V131.979ZM218.607 107.967C217.797 110.154 215.388 112.566 213.857 112.138C209.467 111.078 172.387 98.0459 122.947 98.4067C73.4844 98.7674 42.4607 107.628 30.8887 112.859C27.2865 112.296 25.3728 110.402 24.3372 107.2C21.8157 99.534 20.5549 91.7327 20.8026 83.6834C20.8701 81.7218 21.0727 79.7376 21.1628 77.776C21.2303 76.4908 21.9282 75.7468 22.9188 75.0027C29.9881 69.7718 38.0255 66.4574 46.1079 63.2106C47.8414 62.5116 49.5975 61.8352 51.3535 61.1588C51.286 61.0235 51.241 60.8657 51.1734 60.7304C47.166 61.745 43.1361 62.7822 38.7009 63.9095C39.6239 61.6323 40.3669 59.6256 41.2674 57.6865C48.2917 42.828 58.2427 30.3143 71.5933 20.6867C82.5349 12.7952 94.6247 7.47403 108.02 5.37715C132.763 1.49904 154.894 7.69951 174.593 22.9188C187.944 33.2454 198.728 48.0589 204.536 63.8644C200.213 62.7822 196.071 61.745 191.928 60.7078C191.928 60.7755 191.928 60.8431 191.906 60.9108C197.602 63.3684 203.365 65.6682 208.949 68.3513C212.709 70.1551 216.221 72.4775 219.845 74.5969C221.466 75.5439 222.209 76.9418 222.344 78.8358C222.997 88.8016 222.142 98.542 218.607 107.967ZM189.925 73.3793C189.767 71.9138 188.889 71.057 187.583 70.9217C185.377 70.6962 185.084 69.366 185.039 67.5171C184.814 59.6481 183.351 52.0046 180.537 44.6768C179.298 41.4526 177.7 38.3636 176.282 35.2296C176.056 35.3198 175.854 35.41 175.629 35.5001C178.263 40.7085 180.109 46.1649 181.28 51.8694C182.45 57.5963 182.968 63.3459 182.855 69.4336C181.73 69.163 180.942 69.0052 180.176 68.8023C174.886 67.3142 169.595 65.826 164.327 64.2703C162.616 63.7743 160.995 63.2782 159.351 65.2398C159.216 50.9449 157.325 37.4617 150.774 25.0834C154.286 38.9499 156.154 52.884 155.006 67.1563C154.894 68.5993 154.623 69.7042 153.295 70.4031C151.877 71.1472 151.607 72.3647 151.472 73.8754C151.089 78.475 150.098 82.9393 148.004 86.6596H96.8085C94.6922 82.7139 93.7241 78.227 93.2964 73.6274C93.1613 72.1618 92.756 71.057 91.4953 70.3806C90.1445 69.6591 89.8518 68.5092 89.7617 67.0887C89.0188 55.0936 89.8968 43.2564 92.666 31.5544C92.9361 30.427 93.1838 29.3222 93.454 28.1949C93.7016 27.1802 93.9268 26.1431 94.1744 25.1285C87.4654 37.4617 85.6192 50.8547 85.4616 65.1045C83.7056 63.3459 82.1521 63.7517 80.5312 64.2703C77.8745 65.1045 75.1954 65.826 72.5163 66.5927C69.1393 67.5396 65.7397 68.4641 62.07 69.5012C61.5747 57.7542 63.8486 46.8414 68.3513 36.3569C62.2051 46.7512 59.9312 58.16 59.5035 70.1777C58.783 70.4257 58.1301 70.7413 57.4097 70.8541C55.6311 71.1472 54.9107 72.2971 54.7981 73.9205C54.4379 78.6779 54.0552 83.4354 53.83 88.1928C53.74 90.0642 54.0777 91.9357 54.2128 93.8522C51.4661 94.9344 48.8545 95.949 45.8377 97.1215C52.1865 96.0167 58.0176 94.6638 63.9161 94.0325C73.0566 93.063 82.2422 92.364 91.4277 91.9356C101.942 91.4622 112.478 91.2367 122.992 91.2367C139.202 91.2367 155.389 91.4171 171.554 92.9954C177.43 93.559 183.283 94.4384 189.137 95.2952C191.951 95.701 194.72 96.3774 197.512 96.9411L197.624 96.5804C195.26 95.6559 192.874 94.7089 190.533 93.7845C191.591 86.7723 190.713 80.0758 189.992 73.3568L189.925 73.3793ZM57.162 92.7699C56.8694 86.5018 56.7793 80.2111 57.95 73.9205C65.6947 71.7109 73.3043 69.5463 81.2291 67.2916C81.1841 74.3714 81.2966 81.2934 83.2553 88.0575C74.5876 89.6358 66.0324 91.169 57.1395 92.7924L57.162 92.7699ZM93.1613 87.3811C91 87.584 88.8162 87.8095 86.4747 88.035C84.7637 81.7894 84.1333 75.5213 84.336 68.7346C86.2946 70.2678 87.9381 71.5756 89.5816 72.9059C89.8743 73.1313 90.1445 73.5597 90.167 73.9205C90.3921 78.475 91.833 82.7589 93.2513 87.0204C93.2513 87.088 93.2288 87.1782 93.1838 87.3586L93.1613 87.3811ZM158.226 88.0124C156.019 87.8095 153.835 87.6066 151.449 87.4037C151.584 86.7949 151.697 86.2763 151.832 85.7803C152.687 82.1276 153.543 78.4525 154.443 74.7998C154.623 74.0558 154.894 73.199 155.434 72.7029C156.875 71.3952 158.473 70.2678 160.229 68.8699C160.635 75.4762 159.914 81.6767 158.226 88.0124ZM187.426 92.7699C178.736 91.1916 170.158 89.6358 161.963 88.1477C162.571 81.3836 163.224 74.4616 163.854 67.4269C169.055 68.8925 174.548 70.4482 180.041 72.004C181.932 72.5451 183.846 73.0411 185.692 73.695C186.188 73.8754 186.863 74.4391 186.908 74.9125C187.651 80.865 188.214 86.8174 187.426 92.7924V92.7699ZM157.258 142.486C162.053 142.486 165.948 137.481 165.948 131.303C165.948 125.125 162.053 120.12 157.258 120.12C152.462 120.12 148.567 125.125 148.567 131.303C148.567 137.481 152.462 142.486 157.258 142.486ZM155.907 125.103C157.28 125.103 158.383 126.207 158.383 127.583C158.383 128.958 157.28 130.063 155.907 130.063C154.533 130.063 153.43 128.958 153.43 127.583C153.43 126.207 154.533 125.103 155.907 125.103ZM85.9794 122.149C81.1841 122.149 77.2892 127.154 77.2892 133.332C77.2892 139.51 81.1841 144.516 85.9794 144.516C90.7748 144.516 94.6697 139.51 94.6697 133.332C94.6697 127.154 90.7748 122.149 85.9794 122.149ZM86.925 132.566C85.5517 132.566 84.4485 131.461 84.4485 130.085C84.4485 128.71 85.5517 127.605 86.925 127.605C88.2983 127.605 89.4015 128.71 89.4015 130.085C89.4015 131.461 88.2983 132.566 86.925 132.566Z" fill="black" style="fill:black;fill-opacity:1;"/>
<path d="M141 27.4473V35.8955H126.804V78.1582H117.049V35.8955H102.771V27.4473H141Z" fill="black" stroke="black" style="fill:black;fill-opacity:1;stroke:black;stroke-opacity:1;" stroke-width="1.10609"/>
</svg>
