<?xml version="1.0" encoding="utf-8"?>
<!-- Generator: Adobe Illustrator 18.1.1, SVG Export Plug-In . SVG Version: 6.00 Build 0)  -->
<svg version="1.1" id="Layer_1" xmlns="http://www.w3.org/2000/svg" xmlns:xlink="http://www.w3.org/1999/xlink" x="0px" y="0px"
	 viewBox="0 0 835.9 371.5" enable-background="new 0 0 835.9 371.5" xml:space="preserve">
<g>
	<path fill="#D8CFBE" d="M0,288.2v74.7c0,4.7,3.9,8.6,8.6,8.6h818.6c4.7,0,8.6-3.9,8.6-8.6v-74.7H0z"/>
	<g>
		
			<rect x="337" y="21.1" fill="#F4F2F1" stroke="#E8E8E8" stroke-width="0.9575" stroke-miterlimit="10" width="161.8" height="215.4"/>
		<g>
			<g>
				<path fill="#58595B" d="M374.1,19.4c0.1-1.6,0.2-2.5-0.3-2.5c-0.5,0-19.7,0-20.2,0c-0.6,0-0.5,0.9-0.3,2.5
					c0.1,1.5,0.1,6.3,0.1,6.9h20.7C374.1,25.7,374,20.9,374.1,19.4z"/>
				<path fill="#414042" d="M352.2,28c0,0.6,0.3,1.7,0.3,1.7h22.3c0,0,0.3-1,0.3-1.7c0-0.6-0.3-1.6-1.1-1.6c0,0,0,0,0-0.1h-20.7
					c0,0,0,0.1,0,0.1C352.5,26.4,352.2,27.4,352.2,28z"/>
			</g>
			<path fill="#ACA9A9" d="M366.3,9.9c0,2.3,2.4,14.5,3,17.4c0.1-0.2,0.4-0.5,0.8-0.6c-0.7-3.4-2.9-14.6-2.9-16.7
				c0-1.2,0.9-2.1,1.7-3.1c0.8-1,1.6-1.9,1.6-3c0-2.3-3.7-3.3-5.4-3.4c0,0-2.5,0-2.6,0c-1.8,0.1-5.3,1.1-5.3,3.3
				c0,1.1,1.9,3.9,2.7,4.9c0.8,0.9,0.6,1.9,0.6,3.1c0,2.1-2.1,11.6-2.9,14.8c0.4,0.1,0.6,0.3,0.8,0.4c0.7-3,2.9-13,2.9-15.2
				c0-1.5,0.1-2.7-0.9-3.7c-0.7-0.8-2.5-3.4-2.5-4.2c0-1.5,3.1-2.4,4.6-2.4c0.1,0,2.4,0,2.5,0c1.5,0.1,4.5,0.9,4.5,2.4
				c0,0.8-0.7,1.5-1.4,2.4C367.3,7.2,366.3,8.4,366.3,9.9z"/>
		</g>
		<g>
			<g>
				<path fill="#58595B" d="M479.5,19.4c0.1-1.6,0.2-2.5-0.3-2.5c-0.5,0-19.7,0-20.2,0c-0.6,0-0.5,0.9-0.3,2.5
					c0.1,1.5,0.1,6.3,0.1,6.9h20.7C479.4,25.7,479.4,20.9,479.5,19.4z"/>
				<path fill="#414042" d="M457.6,28c0,0.6,0.3,1.7,0.3,1.7h22.3c0,0,0.3-1,0.3-1.7c0-0.6-0.3-1.6-1.1-1.6c0,0,0,0,0-0.1h-20.7
					c0,0,0,0.1,0,0.1C457.9,26.4,457.6,27.4,457.6,28z"/>
			</g>
			<path fill="#ACA9A9" d="M471.6,9.9c0,2.3,2.4,14.5,3,17.4c0.1-0.2,0.4-0.5,0.8-0.6c-0.7-3.4-2.9-14.6-2.9-16.7
				c0-1.2,0.9-2.1,1.7-3.1c0.8-1,1.6-1.9,1.6-3c0-2.3-3.7-3.3-5.4-3.4c0,0-2.5,0-2.6,0c-1.8,0.1-5.3,1.1-5.3,3.3
				c0,1.1,1.9,3.9,2.7,4.9c0.8,0.9,0.6,1.9,0.6,3.1c0,2.1-2.1,11.6-2.9,14.8c0.4,0.1,0.6,0.3,0.8,0.4c0.7-3,2.9-13,2.9-15.2
				c0-1.5,0.1-2.7-0.9-3.7c-0.7-0.8-2.5-3.4-2.5-4.2c0-1.5,3.1-2.4,4.6-2.4c0.1,0,2.4,0,2.5,0c1.5,0.1,4.5,0.9,4.5,2.4
				c0,0.8-0.7,1.5-1.4,2.4C472.6,7.2,471.6,8.4,471.6,9.9z"/>
		</g>
		<circle fill="#8C8E90" cx="364" cy="2.2" r="2.2"/>
		<circle fill="#8C8E90" cx="469.1" cy="2.2" r="2.2"/>
		<g>
			<g>
				<path fill="#12A34C" d="M391.6,200.1c5.4,0.8,17.5,1.5,25.7,1.5s20-0.7,24.9-1.4c15.9-2.2,37.2-6.4,37.5-14.3c0-0.1,0-3.3,0-3.3
					H355.3c0,0.1,0,3.4,0,3.4C355.8,193.7,375.9,197.9,391.6,200.1z"/>
			</g>
			<path fill="#B0D7AD" d="M479.7,182.5c0-12.2-35-20.7-52.7-20.7h-6.7h-5.5H408c-17.8,0-52.7,8.5-52.7,20.7
				c0,7.8,20.4,12.4,36.3,14.6c5.4,0.8,17.5,1.5,25.7,1.5s20-0.7,24.9-1.4C458.2,195.1,479.7,190.5,479.7,182.5z"/>
			<path fill="#FFFFFF" d="M448.1,169.3l-8.7-1.5v0l-0.1,0l-0.1,0v0l-8.7,1.5c0,0-8.3-0.1-8.3,2.7c0,2.9,4.6,2,7.3,4.1
				c2.6,2.1,6,2.8,9.7,2.8v0c0,0,0.1,0,0.1,0c0,0,0.1,0,0.1,0v0c3.7,0,7.1-0.8,9.7-2.8c2.7-2.1,7.3-1.3,7.3-4.1
				C456.4,169.2,448.1,169.3,448.1,169.3z"/>
			<path fill="#61B967" d="M450,170.9c0,2.7-4.8,2.8-10.7,2.8c-5.9,0-10.7-0.1-10.7-2.8c0-2.7,4.8-4.9,10.7-4.9
				C445.2,166,450,168.2,450,170.9z"/>
			<path fill="#FFFFFF" d="M467.1,178.6l-8.3-1.4v0l-0.1,0l-0.1,0v0l-8.3,1.4c0,0-7.9-0.1-7.9,2.6c0,2.7,4.3,1.9,6.9,3.9
				c2.5,2,5.7,2.7,9.2,2.7v0c0,0,0.1,0,0.1,0c0,0,0.1,0,0.1,0v0c3.5,0,6.7-0.7,9.2-2.7c2.6-2,6.9-1.2,6.9-3.9
				C474.9,178.4,467.1,178.6,467.1,178.6z"/>
			<path fill="#61B967" d="M468.9,180.1c0,2.6-4.6,2.6-10.2,2.6c-5.6,0-10.2-0.1-10.2-2.6c0-2.6,4.6-4.7,10.2-4.7
				C464.3,175.4,468.9,177.5,468.9,180.1z"/>
			<path fill="#12A34C" d="M415.8,144.8c0,0-26-2.8-51.1,34.8c0,0-1.1,1.3,0,3.8c1.1,2.6,3,3,7.8,3c4.8,0,39,4.6,39,4.6L415.8,144.8
				z"/>
			
				<ellipse transform="matrix(0.9927 0.1202 -0.1202 0.9927 23.1948 -48.5255)" fill="#61B967" cx="413.8" cy="168" rx="13.1" ry="23.3"/>
			
				<ellipse transform="matrix(0.9953 9.677684e-02 -9.677684e-02 0.9953 18.1211 -39.4522)" fill="#FFFFFF" cx="415.8" cy="167.1" rx="1.5" ry="4.2"/>
			<path fill="#58595B" d="M399,141.3l-2.5-22.9c0,0-0.1-1.1-1.2-0.9c-1.1,0.1-0.9,1.2-0.9,1.2l2.5,22.9c-3.4,0.5-5.8,3.6-5.5,7
				l0.6,5.2l2-1l-0.5-4.5c-0.2-2.3,1.4-4.3,3.6-4.6l0.8,7.2l2-0.9l-0.7-6.5c2.2-0.1,4.2,1.5,4.5,3.8l0.2,1.3l2.1-0.7l-0.1-0.8
				C405.4,143.5,402.4,141.1,399,141.3z"/>
		</g>
	</g>
	<text transform="matrix(1 0 0 1 353.2989 73.7259)"><tspan x="0" y="0" fill="#D9DFDB" font-family="'SourceSansPro-BoldIt'" font-size="22.022">Eat them</tspan><tspan x="0" y="23" fill="#D9DFDB" font-family="'SourceSansPro-BoldIt'" font-size="22.022">here or there?</tspan></text>
	<g>
		<g>
			
				<rect x="408.7" y="319.2" transform="matrix(0.9875 0.1578 -0.1578 0.9875 56.3341 -68.8054)" fill="#E5BA26" width="105.8" height="2.3"/>
			
				<rect x="409" y="317.4" transform="matrix(0.9875 0.1578 -0.1578 0.9875 56.0072 -68.8841)" fill="#FFDEA0" width="105.8" height="1.9"/>
			
				<rect x="408.3" y="321.6" transform="matrix(0.9875 0.1578 -0.1578 0.9875 56.6608 -68.7264)" fill="#CB9832" width="105.8" height="1.9"/>
			<path fill="#E88D7B" d="M526,333.8c0.3,0,0.6-0.2,0.6-0.5l0.8-5c0-0.3-0.2-0.6-0.5-0.6l-7.6-1.2c-0.3,0-0.6,0.2-0.6,0.5l-0.8,5
				c0,0.3,0.2,0.6,0.5,0.6L526,333.8z"/>
			
				<rect x="513.3" y="324.8" transform="matrix(-0.1578 0.9875 -0.9875 -0.1578 922.861 -128.7834)" fill="#C9CACC" width="6.2" height="8.8"/>
			
				<rect x="515.7" y="322.7" transform="matrix(0.1579 -0.9875 0.9875 0.1579 112.1145 785.6224)" fill="#ECEDEE" width="1.9" height="8.8"/>
		</g>
		<polygon fill="#5C564C" points="403.9,312.3 404.2,310.2 401.2,310.8 		"/>
		<polygon fill="#FFFFFF" points="408.8,315.1 408.8,315.1 409.4,315.2 409.9,315.1 409,313.9 410.3,313.2 409.3,312.2 410.5,311.4 
			409.6,310.4 410.8,309.7 409.8,309 404.2,310.2 403.9,312.3 408.8,315.1 		"/>
	</g>
	<g>
		<path fill="#E88D7B" d="M485.2,202.3l-1.7-5.6c-0.1-0.3-0.4-0.5-0.7-0.4l-4.9,1.5c-0.3,0.1-0.5,0.4-0.4,0.7l1.7,5.6l0.7-0.2
			L485.2,202.3z"/>
		<path fill="#B3B3B3" d="M485.4,204.9l-3.5,1.1l1.3,4.4l0,0l2.2-0.7l1.8-0.6l-2-6.8l0,0l0.6,1.9
			C485.9,204.5,485.7,204.8,485.4,204.9z"/>
		<polygon fill="#B3B3B3" points="479.3,204.1 479.3,204.1 481.9,212.6 481.9,212.6 481.8,212.4 		"/>
		
			<rect x="483.4" y="209.9" transform="matrix(0.9575 -0.2883 0.2883 0.9575 -40.2031 148.6357)" fill="#B3B3B3" width="2.3" height="1.8"/>
		
			<rect x="482.6" y="211.2" transform="matrix(-0.288 -0.9576 0.9576 -0.288 420.4417 734.9257)" fill="#B3B3B3" width="1.8" height="0"/>
		<polygon fill="#B3B3B3" points="481.8,212.4 481.9,212.6 481.9,212.6 		"/>
		
			<rect x="485.6" y="209.3" transform="matrix(-0.9577 0.2878 -0.2878 -0.9577 1013.0975 271.4577)" fill="#B3B3B3" width="1.9" height="1.8"/>
		<path fill="#B3B3B3" d="M481.2,203.5l0.7,2.4l3.5-1.1c0.3-0.1,0.5-0.4,0.4-0.7l-0.6-1.9l-5.2,1.6L481.2,203.5z"/>
		<rect x="479.3" y="204.1" fill="#D1D1D1" width="0" height="0"/>
		
			<rect x="481.8" y="212.3" transform="matrix(-0.9576 0.2881 -0.2881 -0.9576 1006.2548 276.4617)" fill="#D1D1D1" width="1.9" height="0"/>
		<polygon fill="#D1D1D1" points="480.1,203.9 479.3,204.1 479.3,204.1 		"/>
		<path fill="#D1D1D1" d="M481.4,210.9l1.8-0.6l-1.3-4.4l-1.3,0.4c-0.3,0.1-0.6-0.1-0.7-0.4l-0.6-1.9l0,0l2.5,8.3L481.4,210.9z"/>
		<polygon fill="#D1D1D1" points="481.4,210.9 481.8,212.4 481.9,212.6 483.7,212 483.2,210.3 		"/>
		<path fill="#D1D1D1" d="M480.1,203.9l-0.7,0.2l0.6,1.9c0.1,0.3,0.4,0.5,0.7,0.4l1.3-0.4l-0.7-2.4L480.1,203.9z"/>
		<g>
			<g>
				<ellipse fill="#E88D7B" cx="510.8" cy="238.2" rx="23.1" ry="4.2"/>
				<path fill="#DC4242" d="M534.2,238.2c0-3.9-15.2-5-23.3-5c-8.1,0-23.3,1-23.3,5c0,0.1,0.1,63.8,0.1,63.8s6.3,6.4,23.6,6.4
					c17.3,0,22.9-6.5,22.9-6.5S534.2,238.3,534.2,238.2z M510.9,234.7c14.1,0,21.8,2.3,21.8,3.5c0,1.2-7.7,3.5-21.8,3.5
					c-15.1,0-21.8-2.5-21.8-3.5C489.1,237.2,495.8,234.7,510.9,234.7z"/>
			</g>
			<g>
				<g>
					
						<rect x="474.7" y="244.3" transform="matrix(0.2383 -0.9712 0.9712 0.2383 163.4395 699.2975)" fill="#E5BA26" width="105.8" height="2.3"/>
					
						<rect x="472.6" y="244" transform="matrix(0.2383 -0.9712 0.9712 0.2383 162.3639 696.9125)" fill="#FFDEA0" width="105.8" height="1.9"/>
					
						<rect x="476.7" y="245" transform="matrix(0.2383 -0.9712 0.9712 0.2383 164.5226 701.6883)" fill="#CB9832" width="105.8" height="1.9"/>
					<path fill="#E88D7B" d="M546.2,182.3c0.1-0.3-0.1-0.6-0.4-0.7l-4.9-1.2c-0.3-0.1-0.6,0.1-0.7,0.4l-1.8,7.5
						c-0.1,0.3,0.1,0.6,0.4,0.7l4.9,1.2c0.3,0.1,0.6-0.1,0.7-0.4L546.2,182.3z"/>
					
						<rect x="537.7" y="187.1" transform="matrix(0.9712 0.2383 -0.2383 0.9712 61.2342 -123.365)" fill="#BCBEC0" width="6.2" height="8.8"/>
					
						<rect x="537.7" y="186.6" transform="matrix(-0.9712 -0.2383 0.2383 -0.9712 1016.36 504.9402)" fill="#D5D7D8" width="1.9" height="8.8"/>
				</g>
				<polygon fill="#5C564C" points="514.7,302.3 512.6,301.7 513,304.8 				"/>
				<polygon fill="#E7CFA3" points="517.9,297.6 517.9,297.5 518.1,297 518,296.4 516.7,297.2 516.1,296 515,296.8 514.4,295.5 
					513.3,296.4 512.7,295.1 511.9,296.1 512.6,301.7 514.7,302.3 517.9,297.6 				"/>
			</g>
			<g>
				<g>
					
						<rect x="465.6" y="245.1" transform="matrix(0.167 -0.986 0.986 0.167 189.1545 716.36)" fill="#E5BA26" width="105.8" height="2.3"/>
					
						<rect x="463.5" y="244.9" transform="matrix(0.167 -0.986 0.986 0.167 187.7643 714.0034)" fill="#FFDEA0" width="105.8" height="1.9"/>
					
						<rect x="467.7" y="245.6" transform="matrix(0.167 -0.986 0.986 0.167 190.5526 718.7227)" fill="#CB9832" width="105.8" height="1.9"/>
					<path fill="#E88D7B" d="M532.5,181.9c0-0.3-0.2-0.6-0.4-0.6l-5-0.8c-0.3,0-0.6,0.2-0.6,0.4l-1.3,7.6c0,0.3,0.2,0.6,0.4,0.6
						l5,0.8c0.3,0,0.6-0.2,0.6-0.4L532.5,181.9z"/>
					
						<rect x="524.7" y="187.1" transform="matrix(0.986 0.167 -0.167 0.986 39.3835 -85.4337)" fill="#BCBEC0" width="6.2" height="8.8"/>
					
						<rect x="524.7" y="186.7" transform="matrix(-0.986 -0.167 0.167 -0.986 1012.0693 467.4218)" fill="#D5D7D8" width="1.9" height="8.8"/>
				</g>
				<polygon fill="#5C564C" points="509.9,303.8 507.8,303.5 508.3,306.5 				"/>
				<polygon fill="#E7CFA3" points="512.7,298.9 512.7,298.9 512.8,298.3 512.7,297.8 511.5,298.7 510.8,297.4 509.8,298.4 
					509,297.2 508.1,298.1 507.3,296.9 506.6,297.9 507.8,303.5 509.9,303.8 512.7,298.9 				"/>
			</g>
			<polygon fill="#E5BA26" points="485.9,211.3 483.7,212 512.5,307.6 514.9,307.6 			"/>
			<polygon fill="#FFDEA0" points="483.7,212 483.7,212 483.7,212 481.9,212.6 481.9,212.6 481.9,212.6 510.5,307.6 512.5,307.6 			
				"/>
			<polygon fill="#CB9832" points="485.9,211.3 514.9,307.6 516.9,307.6 487.3,209.1 487.3,209.1 487.8,210.8 			"/>
			<path fill="#DC4242" d="M511.3,308.4c17.3,0,22.9-6.5,22.9-6.5s0-61.1,0-63.5h-0.3c-0.2,2.3-10.5,4.1-23.1,4.1
				c-12.6,0-22.9-1.8-23.1-4.1h-0.1c0,2.4,0.1,63.7,0.1,63.7S494,308.4,511.3,308.4z"/>
			<path fill="#DC4242" d="M510.9,241.7c-14.7,0-21.5-2.4-21.8-3.4h-1.4c0.2,2.3,10.5,4.1,23.1,4.1c12.6,0,22.9-1.8,23.1-4.1h-1.2
				C532.4,239.5,524.7,241.7,510.9,241.7z"/>
		</g>
	</g>
	<g>
		<g>
			<g>
				<path fill="#BCBEC0" d="M128,323.4c0.5,5.2,4.5,6.7,9.2,6.7h52.2h1.2h52.2c4.7,0,8.7-1.5,9.2-6.7H128z"/>
				<path fill="#E5E5E5" d="M251,321.2l-19.7-19.6c-4.8-5.7-4.2-26-4.1-28.7h-36.5h-1.3H153c0.1,2.7,0.7,22.9-4.1,28.7l-19.7,19.6
					c-3.9,4.4,3.3,4.4,8.7,4.4h51.9h0.5h51.9C247.7,325.6,254.9,325.6,251,321.2z"/>
			</g>
			<path fill="#C7C8CA" d="M357.4,263.7c0,5.8-4.5,10.4-10,10.4H32.8c-5.5,0-10-4.7-10-10.4V77.5c0-5.8,4.5-10.4,10-10.4h314.6
				c5.5,0,10,4.7,10,10.4V263.7z"/>
			<g>
				<g>
					<defs>
						<polyline id="SVGID_1_" points="180.9,267.1 180.9,266.5 199.2,266.5 199.2,267.1 						"/>
					</defs>
					<clipPath id="SVGID_2_">
						<use xlink:href="#SVGID_1_"  overflow="visible"/>
					</clipPath>
				</g>
			</g>
			<path fill="#58595B" d="M357.4,260V77.9c0-6-4.5-10.8-10-10.8H32.8c-5.5,0-10,4.8-10,10.8V260H357.4z"/>
			<rect x="35.5" y="79.8" fill="#FFFFFF" width="309" height="165.9"/>
			<g>
			</g>
		</g>
		<g>
			<g>
				<g>
					<path fill="#F6F7F8" d="M337,116.8H108.5v26.8H337c1.1,0,1.9-0.9,1.9-1.9v-22.9C339,117.7,338.1,116.8,337,116.8z"/>
				</g>
			</g>
			<g>
				<path fill="#3AA669" d="M103,116.8c-1.1,0-1.9,0.9-1.9,1.9v22.9c0,1.1,0.9,1.9,1.9,1.9h5.4v-26.8H103z"/>
			</g>
			<g>
				<rect x="35.5" y="117" fill="#3AA669" width="1.3" height="17.4"/>
			</g>
			<g>
				<rect x="35.5" y="79.8" fill="#F0F0EC" width="308.6" height="10.2"/>
			</g>
			<g>
				<rect x="35.5" y="135.6" fill="#DC4242" width="1.3" height="17.4"/>
			</g>
			<g>
				<rect x="35.5" y="191.5" fill="#DC4242" width="1.3" height="17.4"/>
			</g>
			<g>
				<rect x="35.5" y="154.2" fill="#3AA669" width="1.3" height="17.4"/>
			</g>
			<g>
				<rect x="35.5" y="173" fill="#3AA669" width="1.3" height="17.4"/>
			</g>
			<g>
				<rect x="35.5" y="210" fill="#3AA669" width="1.3" height="17.4"/>
			</g>
			<g>
				<path fill="#FAFAF8" d="M339.2,160.2c0,1.1-0.9,1.9-1.9,1.9H103c-1.1,0-1.9-0.9-1.9-1.9v-2.7c0-1.1,0.9-1.9,1.9-1.9h234.3
					c1.1,0,1.9,0.9,1.9,1.9V160.2z"/>
			</g>
			<g>
				<path fill="#FAFAF8" d="M339.2,179.3c0,1.1-0.9,1.9-1.9,1.9H103c-1.1,0-1.9-0.9-1.9-1.9v-2.7c0-1.1,0.9-1.9,1.9-1.9h234.3
					c1.1,0,1.9,0.9,1.9,1.9V179.3z"/>
			</g>
			<g>
				<path fill="#FAFAF8" d="M339.2,187.1c0,1.1-0.9,1.9-1.9,1.9H103c-1.1,0-1.9-0.9-1.9-1.9v-2.7c0-1.1,0.9-1.9,1.9-1.9h234.3
					c1.1,0,1.9,0.9,1.9,1.9V187.1z"/>
			</g>
			<g>
				<path fill="#FAFAF8" d="M339.2,194.6c0,1.1-0.9,1.9-1.9,1.9H103c-1.1,0-1.9-0.9-1.9-1.9v-2.7c0-1.1,0.9-1.9,1.9-1.9h234.3
					c1.1,0,1.9,0.9,1.9,1.9V194.6z"/>
			</g>
			<g>
				<rect x="35.5" y="228.8" fill="#3AA669" width="1.3" height="17.4"/>
			</g>
			<g>
				<rect x="42.2" y="125.8" fill="#D2D6D9" width="17.5" height="1.9"/>
			</g>
			<g>
				<rect x="39.9" y="98.6" fill="#D2D6D9" width="26.6" height="1.9"/>
			</g>
			<g>
				<rect x="42.2" y="119.9" fill="#87BE97" width="22.7" height="1.9"/>
			</g>
			<g>
				<rect x="61.3" y="84.2" fill="#A3A3A2" width="5.1" height="1.9"/>
			</g>
			<g>
				<rect x="38.5" y="83.4" fill="#A3A3A2" width="18.6" height="3.5"/>
			</g>
			<g>
				<rect x="83" y="84.2" fill="#A3A3A2" width="5.1" height="1.9"/>
			</g>
			<g>
				<rect x="70.9" y="84.2" fill="#A3A3A2" width="7.6" height="1.9"/>
			</g>
			<g>
				<rect x="86.9" y="119.9" fill="#87BE97" width="5.1" height="1.9"/>
			</g>
			<g>
				<rect x="42.2" y="129.7" fill="#D2D6D9" width="25.1" height="1.9"/>
			</g>
			<g>
				<rect x="110.7" y="119.4" fill="#D2D6D9" width="50.4" height="1.9"/>
			</g>
			<g>
				<rect x="267.5" y="124.4" fill="#D2D6D9" width="20.5" height="1.9"/>
			</g>
			<g>
				<rect x="267.5" y="120.1" fill="#87BE97" width="14.9" height="1.9"/>
			</g>
			<g>
				<rect x="267.5" y="133.1" fill="#D2D6D9" width="23.9" height="1.9"/>
			</g>
			<g>
				<rect x="267.5" y="137.9" fill="#D2D6D9" width="10.6" height="1.9"/>
			</g>
			<g>
				<rect x="267.5" y="128.6" fill="#D2D6D9" width="32.9" height="1.9"/>
			</g>
			<g>
				<rect x="101.1" y="109.8" fill="#89BCBB" width="8.2" height="1.9"/>
			</g>
			<g>
				<rect x="114.6" y="109.8" fill="#D2D6D9" width="10.1" height="1.9"/>
			</g>
			<g>
				<rect x="129.8" y="109.8" fill="#D2D6D9" width="13.8" height="1.9"/>
			</g>
			<g>
				<rect x="148.9" y="109.8" fill="#D2D6D9" width="14.2" height="1.9"/>
			</g>
			<g>
				<rect x="101.1" y="113.5" fill="#89BCBB" width="8.2" height="0.4"/>
			</g>
			<g>
				<rect x="109.1" y="113.5" fill="#F0EFEF" width="235.1" height="0.4"/>
			</g>
			<g>
				<rect x="38.5" y="109.6" fill="#89BCBB" width="18.3" height="1.9"/>
			</g>
			<g>
				<rect x="38.5" y="113.3" fill="#89BCBB" width="8.2" height="0.4"/>
			</g>
			<g>
				<rect x="46.5" y="113.3" fill="#F0EFEF" width="45.3" height="0.4"/>
			</g>
			<g>
				<rect x="115.9" y="138.4" fill="#D2D6D9" width="50.4" height="1.9"/>
			</g>
			<g>
				<circle fill="#87BE97" cx="39.6" cy="120.7" r="1"/>
			</g>
			<g>
				<circle fill="#D2D6D9" cx="39.6" cy="126.6" r="1"/>
			</g>
			<g>
				<circle fill="#87BE97" cx="103.7" cy="178.1" r="1"/>
			</g>
			<g>
				<circle fill="#E46768" cx="103.7" cy="185.7" r="1"/>
			</g>
			<g>
				<circle fill="#E46768" cx="103.7" cy="193.1" r="1"/>
			</g>
			<g>
				<circle fill="#87BE97" cx="103.7" cy="158.7" r="1"/>
			</g>
			<g>
				<circle fill="#D2D6D9" cx="85" cy="120.6" r="1"/>
			</g>
			<g>
				<circle fill="#D2D6D9" cx="264.5" cy="120.6" r="1"/>
			</g>
			<g>
				<circle fill="#D2D6D9" cx="264.5" cy="125.2" r="1"/>
			</g>
			<g>
				<circle fill="#D2D6D9" cx="264.5" cy="129.8" r="1"/>
			</g>
			<g>
				<circle fill="#D2D6D9" cx="264.5" cy="134.3" r="1"/>
			</g>
			<g>
				<circle fill="#D2D6D9" cx="264.5" cy="138.9" r="1"/>
			</g>
			<g>
				<circle fill="#D2D6D9" cx="89" cy="99.2" r="1"/>
			</g>
			<g>
				<circle fill="#D2D6D9" cx="39.6" cy="130.7" r="1"/>
			</g>
			<g>
				<rect x="42.2" y="162.9" fill="#D2D6D9" width="17.5" height="1.9"/>
			</g>
			<g>
				<rect x="42.2" y="157.1" fill="#87BE97" width="22.7" height="1.9"/>
			</g>
			<g>
				<rect x="86.9" y="157.1" fill="#87BE97" width="5.1" height="1.9"/>
			</g>
			<g>
				<rect x="42.2" y="166.9" fill="#D2D6D9" width="25.1" height="1.9"/>
			</g>
			<g>
				<circle fill="#87BE97" cx="39.6" cy="157.9" r="1"/>
			</g>
			<g>
				<circle fill="#D2D6D9" cx="39.6" cy="163.7" r="1"/>
			</g>
			<g>
				<circle fill="#D2D6D9" cx="85" cy="157.8" r="1"/>
			</g>
			<g>
				<circle fill="#D2D6D9" cx="110.6" cy="158.7" r="1"/>
			</g>
			<g>
				<g>
					<rect x="138" y="157.8" fill="#D2D6D9" width="20.7" height="1.9"/>
				</g>
				<g>
					<circle fill="#D2D6D9" cx="135.8" cy="158.7" r="1"/>
				</g>
			</g>
			<g>
				<g>
					<rect x="209.8" y="157.8" fill="#D2D6D9" width="27.9" height="1.9"/>
				</g>
				<g>
					<circle fill="#D2D6D9" cx="207.5" cy="158.7" r="1"/>
				</g>
			</g>
			<g>
				<g>
					<rect x="293.4" y="157.8" fill="#D2D6D9" width="11.8" height="1.9"/>
				</g>
				<g>
					<circle fill="#D2D6D9" cx="290.6" cy="158.7" r="1"/>
				</g>
			</g>
			<g>
				<g>
					<rect x="138" y="177" fill="#D2D6D9" width="20.7" height="1.9"/>
				</g>
				<g>
					<circle fill="#D2D6D9" cx="135.8" cy="177.9" r="1"/>
				</g>
			</g>
			<g>
				<g>
					<rect x="209.8" y="177" fill="#D2D6D9" width="27.9" height="1.9"/>
				</g>
				<g>
					<circle fill="#D2D6D9" cx="207.5" cy="177.9" r="1"/>
				</g>
			</g>
			<g>
				<g>
					<rect x="293.4" y="177" fill="#D2D6D9" width="11.8" height="1.9"/>
				</g>
				<g>
					<circle fill="#D2D6D9" cx="290.6" cy="177.9" r="1"/>
				</g>
			</g>
			<g>
				<g>
					<rect x="138" y="184.5" fill="#D2D6D9" width="20.7" height="1.9"/>
				</g>
				<g>
					<circle fill="#D2D6D9" cx="135.8" cy="185.5" r="1"/>
				</g>
			</g>
			<g>
				<g>
					<rect x="209.8" y="184.5" fill="#D2D6D9" width="27.9" height="1.9"/>
				</g>
				<g>
					<circle fill="#D2D6D9" cx="207.5" cy="185.5" r="1"/>
				</g>
			</g>
			<g>
				<g>
					<rect x="293.4" y="184.5" fill="#D2D6D9" width="11.8" height="1.9"/>
				</g>
				<g>
					<circle fill="#D2D6D9" cx="290.6" cy="185.5" r="1"/>
				</g>
			</g>
			<g>
				<g>
					<rect x="138" y="192.3" fill="#D2D6D9" width="20.7" height="1.9"/>
				</g>
				<g>
					<circle fill="#D2D6D9" cx="135.8" cy="193.2" r="1"/>
				</g>
			</g>
			<g>
				<g>
					<rect x="209.8" y="192.3" fill="#D2D6D9" width="27.9" height="1.9"/>
				</g>
				<g>
					<circle fill="#D2D6D9" cx="207.5" cy="193.2" r="1"/>
				</g>
			</g>
			<g>
				<g>
					<rect x="293.4" y="192.3" fill="#D2D6D9" width="11.8" height="1.9"/>
				</g>
				<g>
					<circle fill="#D2D6D9" cx="290.6" cy="193.2" r="1"/>
				</g>
			</g>
			<g>
				<circle fill="#D2D6D9" cx="112.4" cy="139.5" r="1.7"/>
			</g>
			<g>
				<circle fill="#838384" cx="157.8" cy="99.9" r="1.7"/>
			</g>
			<g>
				<circle fill="#FFFFFF" cx="104.7" cy="120.3" r="1.8"/>
			</g>
			<g>
				<circle fill="#FFFFFF" cx="104.7" cy="125.8" r="1.8"/>
			</g>
			<g>
				<circle fill="#D2D6D9" cx="110.6" cy="177.9" r="1"/>
			</g>
			<g>
				<circle fill="#D2D6D9" cx="110.6" cy="185.5" r="1"/>
			</g>
			<g>
				<circle fill="#D2D6D9" cx="110.6" cy="193" r="1"/>
			</g>
			<g>
				<circle fill="#D2D6D9" cx="39.6" cy="167.8" r="1"/>
			</g>
			<g>
				<rect x="42.2" y="181.6" fill="#D2D6D9" width="17.5" height="1.9"/>
			</g>
			<g>
				<rect x="42.2" y="175.8" fill="#87BE97" width="22.7" height="1.9"/>
			</g>
			<g>
				<rect x="86.9" y="175.8" fill="#87BE97" width="5.1" height="1.9"/>
			</g>
			<g>
				<rect x="42.2" y="185.6" fill="#D2D6D9" width="25.1" height="1.9"/>
			</g>
			<g>
				<circle fill="#87BE97" cx="39.6" cy="176.6" r="1"/>
			</g>
			<g>
				<circle fill="#D2D6D9" cx="39.6" cy="182.4" r="1"/>
			</g>
			<g>
				<circle fill="#D2D6D9" cx="85" cy="176.5" r="1"/>
			</g>
			<g>
				<circle fill="#D2D6D9" cx="39.6" cy="186.5" r="1"/>
			</g>
			<g>
				<rect x="42.2" y="200.2" fill="#D2D6D9" width="17.5" height="1.9"/>
			</g>
			<g>
				<rect x="42.2" y="194.3" fill="#E46768" width="22.7" height="1.9"/>
			</g>
			<g>
				<rect x="86.9" y="194.3" fill="#E46768" width="5.1" height="1.9"/>
			</g>
			<g>
				<rect x="113.3" y="192.3" fill="#E46768" width="5.1" height="1.9"/>
			</g>
			<g>
				<rect x="113.3" y="184.7" fill="#E46768" width="5.1" height="1.9"/>
			</g>
			<g>
				<rect x="113.3" y="177.3" fill="#87BE97" width="5.1" height="1.9"/>
			</g>
			<g>
				<rect x="113.3" y="157.8" fill="#87BE97" width="5.1" height="1.9"/>
			</g>
			<g>
				<rect x="42.2" y="204.2" fill="#D2D6D9" width="25.1" height="1.9"/>
			</g>
			<g>
				<circle fill="#E46768" cx="39.6" cy="195.2" r="1"/>
			</g>
			<g>
				<circle fill="#D2D6D9" cx="39.6" cy="201" r="1"/>
			</g>
			<g>
				<circle fill="#D2D6D9" cx="85" cy="195.1" r="1"/>
			</g>
			<g>
				<circle fill="#D2D6D9" cx="39.6" cy="205.1" r="1"/>
			</g>
			<g>
				<rect x="42.2" y="144.5" fill="#D2D6D9" width="17.5" height="1.9"/>
			</g>
			<g>
				<rect x="42.2" y="138.6" fill="#E46768" width="22.7" height="1.9"/>
			</g>
			<g>
				<rect x="86.9" y="138.6" fill="#E46768" width="5.1" height="1.9"/>
			</g>
			<g>
				<rect x="42.2" y="148.4" fill="#D2D6D9" width="25.1" height="1.9"/>
			</g>
			<g>
				<circle fill="#E46768" cx="39.6" cy="139.4" r="1"/>
			</g>
			<g>
				<circle fill="#D2D6D9" cx="39.6" cy="145.3" r="1"/>
			</g>
			<g>
				<circle fill="#D2D6D9" cx="85" cy="139.3" r="1"/>
			</g>
			<g>
				<path fill="#A7AEAE" d="M339.1,110.8c0,0.5-0.4,1-1,1h-16.7c-0.5,0-1-0.4-1-1v-3.5c0-0.5,0.4-1,1-1h16.7c0.5,0,1,0.4,1,1V110.8z
					"/>
			</g>
			<g>
				<circle fill="#D2D6D9" cx="39.6" cy="149.4" r="1"/>
			</g>
			<g>
				<rect x="42.2" y="218.9" fill="#D2D6D9" width="17.5" height="1.9"/>
			</g>
			<g>
				<rect x="42.2" y="213.1" fill="#87BE97" width="22.7" height="1.9"/>
			</g>
			<g>
				<rect x="86.9" y="213.1" fill="#87BE97" width="5.1" height="1.9"/>
			</g>
			<g>
				<rect x="42.2" y="222.9" fill="#D2D6D9" width="25.1" height="1.9"/>
			</g>
			<g>
				<circle fill="#87BE97" cx="39.6" cy="213.9" r="1"/>
			</g>
			<g>
				<circle fill="#D2D6D9" cx="39.6" cy="219.7" r="1"/>
			</g>
			<g>
				<circle fill="#D2D6D9" cx="85" cy="213.8" r="1"/>
			</g>
			<g>
				<circle fill="#D2D6D9" cx="39.6" cy="223.8" r="1"/>
			</g>
			<g>
				<rect x="42.2" y="237.6" fill="#D2D6D9" width="17.5" height="1.9"/>
			</g>
			<g>
				<rect x="42.2" y="231.7" fill="#87BE97" width="22.7" height="1.9"/>
			</g>
			<g>
				<rect x="86.9" y="231.7" fill="#87BE97" width="5.1" height="1.9"/>
			</g>
			<g>
				<rect x="42.2" y="241.5" fill="#D2D6D9" width="25.1" height="1.9"/>
			</g>
			<g>
				<circle fill="#87BE97" cx="39.6" cy="232.5" r="1"/>
			</g>
			<g>
				<circle fill="#D2D6D9" cx="39.6" cy="238.4" r="1"/>
			</g>
			<g>
				<circle fill="#D2D6D9" cx="85" cy="232.4" r="1"/>
			</g>
			<g>
				<circle fill="#D2D6D9" cx="39.6" cy="242.5" r="1"/>
			</g>
			<g>
				<g>
					<path fill="#EEEFF0" d="M90,103.1H40.1c-1.2,0-2.2-1-2.2-2.2v-2.8c0-1.2,1-2.2,2.2-2.2H90c1.2,0,2.2,1,2.2,2.2v2.8
						C92.2,102.1,91.2,103.1,90,103.1z M40.1,96.4c-0.9,0-1.7,0.8-1.7,1.7v2.8c0,0.9,0.8,1.7,1.7,1.7H90c0.9,0,1.7-0.8,1.7-1.7v-2.8
						c0-0.9-0.8-1.7-1.7-1.7H40.1z"/>
				</g>
			</g>
			<g>
				<rect x="94.3" y="89.8" fill="#D2D6D9" width="1" height="155.7"/>
			</g>
			<g>
				<circle fill="#D2D6D9" cx="315.4" cy="121.3" r="2.4"/>
			</g>
			<g>
				<rect x="325.4" y="108.1" fill="#EEEFEF" width="11.3" height="1.9"/>
			</g>
			<g>
				<circle fill="#EEEFEF" cx="322.8" cy="109.1" r="1"/>
			</g>
			<g>
				<path fill="#5D5D5D" d="M163.6,98.6c-0.5,0-0.9,0.3-0.9,0.6v2.2c0,0.3,0.4,0.6,0.9,0.6h5.9v-3.5H163.6z"/>
			</g>
			<g>
				<path fill="#5CBB52" d="M179.3,101.4v-2.2c0-0.3-0.4-0.6-0.9-0.6h-8.8v3.5h8.8C178.9,102,179.3,101.8,179.3,101.4z"/>
			</g>
			<g>
				<rect x="101.7" y="97.6" fill="#D2D6D9" width="50.5" height="4.2"/>
			</g>
		</g>
	</g>
	<g>
		<g>
			<path fill="#4F979E" d="M680.3,317v7.4c0,0,8.4,10.6,57.5,10.8v0c0.2,0,0.3,0,0.5,0c0.2,0,0.3,0,0.5,0v0
				c49.1-0.1,57.5-10.8,57.5-10.8V317H680.3z"/>
		</g>
		<g>
			<path fill="#2F7B7F" d="M796.3,317c0-7.1-39.5-9.9-44.1-9.9c-4.5,0-23.4,0-27.9,0c-4.5,0-44.1,2.8-44.1,9.9
				c0,6.9,16.5,12.9,55.9,13.3l0,0c0.7,0,1.4,0,2.1,0c0.7,0,1.4,0,2.1,0l0,0C779.8,329.9,796.3,323.9,796.3,317z"/>
		</g>
		<g>
			<rect x="734.3" y="287.8" fill="#4F979E" width="7.9" height="26.6"/>
		</g>
		<g>
			<polygon fill="#4F979E" points="744.5,279.3 740.8,275.3 810.4,149.8 814,153.8 			"/>
		</g>
		<g>
			<polygon fill="#4F979E" points="678.9,61.8 681.2,56.9 808.5,144.8 806.1,149.7 			"/>
		</g>
		<g>
			<path fill="#4F979E" d="M680.8,103.5c-11-22.1-3.4-36.2-2.2-40.3l-5-2.5l0-0.1l-0.2,0l-0.2-0.1l0,0.1l-5.6-0.6
				c-1.2,4-2.5,20-23.7,32.6c-21.3,12.6-27.5,36.2-28.4,39.6c-1,3.3,1,4.3,1,4.3c8.4,4.3,25.9,9.5,31.3,11
				c5.3,1.6,22.9,6.8,32.2,7.7c0,0,2.2,0.3,3.2-3.1C684.2,148.8,691.8,125.6,680.8,103.5z"/>
		</g>
		<g>
			<circle fill="#B5CCD0" cx="738.6" cy="282" r="7.6"/>
		</g>
		<g>
			<circle fill="#B5CCD0" cx="813" cy="149.8" r="7.6"/>
		</g>
		<g>
			<circle fill="#B5CCD0" cx="674" cy="58.6" r="7.6"/>
		</g>
	</g>
	<g opacity="0.7">
		<g>
			<path fill="none" d="M171.8,355.1c-0.4,0.2-0.8,0.3-1.2,0.4C171.1,355.5,171.5,355.3,171.8,355.1L171.8,355.1z"/>
		</g>
		<g>
			<path fill="none" d="M158.6,355.3C158.6,355.3,158.6,355.3,158.6,355.3L158.6,355.3C158.6,355.3,158.6,355.3,158.6,355.3z"/>
		</g>
		<g>
			<path fill="none" d="M171.8,355.1C171.8,355.1,171.8,355.1,171.8,355.1C171.8,355.1,171.8,355.1,171.8,355.1L171.8,355.1z"/>
		</g>
		<g>
			<path fill="none" d="M159.7,355.5c-0.4,0-0.8,0-1.1-0.2l0,0C158.9,355.5,159.3,355.5,159.7,355.5z"/>
		</g>
		<g>
			<path fill="none" d="M239,355.4c0.1,0,0.2,0,0.3,0.1C239.2,355.5,239.1,355.4,239,355.4z"/>
		</g>
		<g>
			<path fill="none" d="M238.5,355.3c0.1,0,0.2,0.1,0.3,0.1C238.7,355.4,238.6,355.3,238.5,355.3z"/>
		</g>
		<g>
			<path fill="none" d="M239.5,355.5c0.3,0,0.6,0,0.9,0C240.1,355.5,239.8,355.5,239.5,355.5z"/>
		</g>
		<g>
			<path fill="none" d="M254.5,355.3c0,0-0.1-0.1-0.1-0.1C254.4,355.2,254.4,355.3,254.5,355.3L254.5,355.3z"/>
		</g>
		<g>
			<path fill="none" d="M158.5,355.1C158.5,355.1,158.5,355.2,158.5,355.1C158.5,355.2,158.5,355.1,158.5,355.1z"/>
		</g>
		<g>
			<path fill="none" d="M273.6,370.9c0.1-0.1,0.2-0.2,0.2-0.2C273.8,370.7,273.7,370.8,273.6,370.9z"/>
		</g>
		<g>
			<path fill="none" d="M142.5,370.5C142.5,370.5,142.5,370.4,142.5,370.5C142.5,370.4,142.5,370.5,142.5,370.5L142.5,370.5z"/>
		</g>
		<g>
			<path fill="none" d="M256.1,355.5c-0.6,0-1.1,0-1.6-0.2c0,0,0,0,0,0C255,355.5,255.6,355.5,256.1,355.5z"/>
		</g>
		<g>
			<path fill="none" d="M191.6,370.4c0.1-0.2,0.1-0.4,0.1-0.6C191.8,370,191.7,370.2,191.6,370.4L191.6,370.4z"/>
		</g>
		<g>
			<path fill="none" d="M306.4,370.4c0-0.1,0-0.2,0-0.2C306.4,370.2,306.4,370.3,306.4,370.4c0.2,0.1,0.2,0.2,0.2,0.3
				C306.6,370.6,306.6,370.5,306.4,370.4z"/>
		</g>
		<g>
			<path fill="none" d="M123.9,355.1L123.9,355.1C123.9,355.1,123.9,355.2,123.9,355.1L123.9,355.1
				C123.9,355.2,123.9,355.1,123.9,355.1z"/>
		</g>
		<g>
			<path fill="none" d="M123.9,355.2C123.9,355.2,123.9,355.2,123.9,355.2C123.9,355.2,123.9,355.2,123.9,355.2L123.9,355.2z"/>
		</g>
		<g>
			<path fill="none" d="M139.8,355.2C139.8,355.2,139.8,355.2,139.8,355.2L139.8,355.2C139.8,355.2,139.8,355.2,139.8,355.2z"/>
		</g>
		<g>
			<path fill="none" d="M142.5,370.5c0,0-0.1,0-0.1,0C142.4,370.5,142.5,370.5,142.5,370.5L142.5,370.5z"/>
		</g>
		<g>
			<path fill="none" d="M123.7,355.3C123.7,355.3,123.7,355.2,123.7,355.3C123.7,355.2,123.7,355.3,123.7,355.3L123.7,355.3
				L123.7,355.3z"/>
		</g>
		<g>
			<path fill="none" d="M290,370.3c0-0.2-0.1-0.4-0.1-0.6C289.9,370,289.9,370.1,290,370.3c0.2,0.1,0.2,0.2,0.1,0.4
				C290.2,370.6,290.2,370.4,290,370.3z"/>
		</g>
		<g>
			<path fill="none" d="M266.3,362.7c0-0.1-0.1-0.1-0.2-0.2C266.2,362.6,266.2,362.7,266.3,362.7L266.3,362.7z"/>
		</g>
		<g>
			<path fill="none" d="M303,362.9c0.1-0.1,0.1-0.1,0-0.2C303.1,362.8,303.1,362.9,303,362.9z"/>
		</g>
		<g>
			<path fill="none" d="M302.9,362.6c0-0.2-0.1-0.4-0.2-0.6C302.8,362.1,302.9,362.4,302.9,362.6L302.9,362.6z"/>
		</g>
		<g>
			<path fill="none" d="M268.5,363.1c-0.8,0-1.5-0.1-2.2-0.4c0,0,0,0,0,0C267,363.1,267.7,363.1,268.5,363.1z"/>
		</g>
		<g>
			<polygon fill="#E5E5E5" points="123.9,355.1 123.9,355.1 123.9,355.1 			"/>
		</g>
		<g>
			<path fill="#E5E5E5" d="M310,369.3c-0.4-0.9-0.9-1.9-1.3-2.8c-0.4-0.8-0.8-1.7-1.2-2.5c-0.6-1.3-1.2-2.7-1.8-4
				c-0.4-0.9-0.9-1.8-1.3-2.7c-0.6-1.3-1.2-2.5-1.8-3.9c-0.4-0.9-0.8-1.8-1.3-2.8c-0.6-1.3-1.2-2.6-1.8-3.9c-0.5-1-1.1-1.9-2-2.6
				c-0.2-0.2-0.5-0.3-0.6-0.6c-71.9,0-143.8,0-215.6,0c0,0.2-0.2,0.3-0.3,0.4c-1.3,1.2-2.1,2.6-2.8,4.2c-0.3,0.8-0.7,1.6-1.1,2.4
				c-0.7,1.5-1.4,2.9-2,4.4c-0.4,0.9-0.8,1.8-1.3,2.7c-0.6,1.3-1.2,2.7-1.8,4c-0.3,0.6-0.6,1.3-0.9,1.9c-0.7,1.7-1.6,3.3-2.3,5
				c-0.3,0.6-0.6,1.2-0.9,1.8c-0.1,0.3-0.3,0.6-0.4,0.9H311C310.6,370.8,310.3,370.1,310,369.3z M300.4,357.2
				c0.2,0.1,0.3,0.3,0.4,0.5c0.6,1.4,1.3,2.9,1.9,4.3c0.1,0.2,0.2,0.4,0.2,0.6c0.1,0,0.1,0.1,0.1,0.1c0.1,0.1,0.1,0.1,0,0.2
				c0,0-0.1,0.1-0.1,0.1c-0.3,0.2-0.6,0.3-1,0.4c-0.1,0-0.2,0-0.3,0c-5.9,0-11.8,0-17.7,0c-0.4,0-0.8-0.1-1.1-0.2
				c-0.3-0.1-0.6-0.2-0.7-0.5l0,0c0,0-0.1-0.1-0.1-0.1c-0.5-1.4-1-2.7-1.4-4.1c-0.1-0.3-0.2-0.6-0.3-0.9c-0.1-0.3-0.1-0.6,0.2-0.7
				c0.3-0.1,0.7-0.2,1.1-0.2c5.8,0,11.7,0,17.5,0C299.4,356.8,299.9,356.9,300.4,357.2z M285.4,352c0.3-0.2,0.6-0.2,0.9-0.2
				c2.5,0,5.1,0,7.6,0c1,0,2,0,2.9,0c0.3,0,0.5,0,0.8,0.1c0.4,0.1,0.7,0.4,0.9,0.8c0.3,0.7,0.6,1.3,0.9,2c0.1,0.2,0.1,0.3,0.1,0.5
				c0.1,0,0.2-0.1,0.2,0.1c0,0.2-0.1,0.3-0.3,0.4c-0.3,0.1-0.6,0.2-0.9,0.2c-2.9,0-5.9,0-8.8,0c-0.6,0-1.3,0-1.9,0
				c-0.4,0-0.8-0.1-1.1-0.2c-0.2-0.1-0.3-0.1-0.3-0.4c0,0-0.1-0.1-0.1-0.1c-0.5-0.8-0.6-1.8-1.1-2.6
				C285,352.3,285.1,352.1,285.4,352z M269.6,351.9c0.2-0.1,0.5-0.2,0.8-0.2c3.6,0,7.2,0,10.8,0c0.3,0,0.6,0.1,0.9,0.2
				c0.4,0.2,0.6,0.4,0.7,0.8c0.2,0.7,0.5,1.4,0.8,2.1c0,0.1,0,0.1,0,0.2c0.1,0.3,0,0.6-0.3,0.6c-0.2,0.1-0.4,0.1-0.7,0.1
				c-3.7,0-7.3,0-11,0c-0.4,0-0.7-0.1-1.1-0.3c-0.2-0.1-0.4-0.2-0.4-0.5c-0.3-0.8-0.5-1.6-0.8-2.5
				C269.2,352.2,269.3,352.1,269.6,351.9z M279.5,362.9c-0.1,0.1-0.2,0.3-0.3,0.3c-0.3,0.1-0.6,0.2-0.9,0.3c-0.1,0-0.2,0-0.3,0
				c-3.3,0-6.7,0-10,0c-0.5,0-1-0.1-1.4-0.3c-0.2-0.1-0.3-0.2-0.3-0.4c-0.1,0-0.2-0.1-0.2-0.2c-0.3-1.1-0.7-2.3-1-3.4
				c-0.2-0.5-0.3-1.1-0.5-1.6c-0.1-0.3,0-0.4,0.2-0.5c0.3-0.2,0.6-0.3,0.9-0.3c1.2,0,2.4,0,3.6,0c2.2,0,4.4,0,6.7,0
				c0.5,0,1,0.2,1.4,0.4c0.2,0.2,0.4,0.4,0.5,0.6c0.2,1,0.8,1.8,0.9,2.8c0.3,0.5,0.3,1,0.6,1.5c0.1,0.1,0.1,0.3,0.1,0.5
				C279.5,362.7,279.5,362.8,279.5,362.9z M253.8,351.9c0.2-0.1,0.5-0.2,0.7-0.2c3.6,0,7.2,0,10.8,0c0.3,0,0.7,0.1,1,0.2
				c0.3,0.1,0.4,0.3,0.5,0.7c0.1,0.5,0.3,0.9,0.4,1.4c0.1,0.4,0.2,0.7,0.2,1.1c0.1,0,0.2,0.1,0.1,0.2c-0.1,0.2-0.3,0.3-0.5,0.4
				c-0.2,0-0.4,0.1-0.7,0.1c-3.5,0-7.1,0-10.6,0c-0.4,0-0.7-0.1-1-0.2c-0.2,0-0.3-0.1-0.3-0.3c-0.1,0-0.2,0-0.1-0.1
				c-0.1-0.2-0.2-0.3-0.3-0.5c-0.2-0.7-0.4-1.5-0.6-2.2C253.5,352.2,253.5,352.1,253.8,351.9z M263.6,362.8
				c-0.1,0.2-0.3,0.4-0.5,0.5c-0.3,0.1-0.5,0.2-0.8,0.2c-3.4,0-6.9,0-10.3,0c-0.4,0-0.8-0.1-1.2-0.2c-0.3-0.1-0.5-0.2-0.5-0.6
				c-0.3-0.7-0.4-1.4-0.5-2c-0.2-1-0.4-2-0.7-3c0-0.2,0-0.3,0.1-0.4c0.3-0.2,0.6-0.4,1-0.4c3.5,0,7,0,10.6,0c0.5,0,0.9,0.3,1.3,0.6
				c0.1,0.1,0.2,0.2,0.2,0.4c0.4,1.5,0.8,3,1.3,4.4c0,0.1,0,0.3,0.1,0.4C263.6,362.6,263.6,362.7,263.6,362.8z M238,351.9
				c0.2-0.1,0.5-0.2,0.8-0.2c3.6,0,7.2,0,10.8,0c0.3,0,0.6,0.1,0.8,0.2c0.4,0.1,0.5,0.4,0.6,0.8c0.1,0.7,0.3,1.4,0.5,2.1
				c0,0.1,0,0.2,0,0.2c0.2,0.1,0.1,0.3,0,0.4c-0.3,0.3-0.6,0.3-1,0.4c-0.1,0-0.2,0-0.3,0c-3.5,0-7,0-10.5,0c-0.4,0-0.8-0.1-1.2-0.2
				c-0.2-0.1-0.3-0.1-0.3-0.4c0,0,0,0,0,0c0,0,0,0,0-0.1c0,0,0,0,0,0c-0.2-0.9-0.4-1.8-0.6-2.6C237.7,352.2,237.8,352,238,351.9z
				 M247.4,363.1c-0.4,0.2-0.8,0.3-1.2,0.3c-0.9,0-1.8,0-2.7,0c-2.5,0-5,0-7.4,0c-0.4,0-0.8-0.1-1.2-0.3c-0.2-0.1-0.5-0.2-0.5-0.5
				c-0.3-0.7-0.3-1.5-0.5-2.2c-0.2-0.9-0.3-1.7-0.5-2.6c-0.1-0.5,0-0.5,0.3-0.8c0.3-0.2,0.5-0.2,0.8-0.2c3.5,0,7,0,10.5,0
				c0.5,0,0.9,0.1,1.2,0.5c0.1,0.1,0.2,0.3,0.3,0.5c0.2,1,0.5,2,0.7,3c0.1,0.4,0.2,0.9,0.3,1.3c0,0.2,0.1,0.4,0.1,0.7
				C247.8,362.9,247.6,363,247.4,363.1z M222.2,352c0.3-0.2,0.6-0.2,0.9-0.2c1.7,0,3.4,0,5.1,0c1.8,0,3.7,0,5.5,0
				c0.2,0,0.4,0,0.6,0.1c0.6,0.1,0.9,0.4,1,1c0,0.5,0.2,0.9,0.2,1.3c0,0.3,0.1,0.7,0.1,1c0.2,0.2,0,0.4-0.2,0.5
				c-0.2,0.2-0.5,0.2-0.8,0.2c-0.1,0-0.2,0-0.3,0c-3.5,0-7.1,0-10.6,0c-0.4,0-0.8-0.1-1.1-0.2c-0.1-0.1-0.3-0.2-0.3-0.4
				c-0.1-0.3-0.2-0.6-0.2-0.9c0-0.3-0.1-0.5-0.1-0.8c-0.1-0.4,0-0.7-0.1-1.1C221.9,352.2,222.1,352.1,222.2,352z M231.7,363
				c-0.4,0.3-0.8,0.5-1.3,0.5c-1,0-2,0-3,0c-2.4,0-4.8,0-7.2,0c-0.4,0-0.8-0.1-1.2-0.2c-0.3-0.1-0.5-0.2-0.5-0.6
				c-0.1-0.7-0.1-1.4-0.3-2.1c-0.1-0.4-0.1-0.7-0.1-1.1c-0.1-0.6-0.1-1.2-0.2-1.8c-0.1-0.3,0.1-0.5,0.4-0.7c0.2-0.1,0.5-0.2,0.8-0.2
				c3.5,0,7,0,10.6,0c0.4,0,0.7,0.1,1,0.3c0.3,0.2,0.4,0.4,0.4,0.8c0,0.3,0.1,0.6,0.1,0.9c0.2,1.2,0.4,2.4,0.6,3.6
				c0,0.1,0,0.2,0,0.2C231.9,362.8,231.8,362.9,231.7,363z M207.1,351.7c0.1,0,0.2,0,0.3,0c3.6,0,7.1,0,10.7,0
				c0.5,0,0.9,0.1,1.3,0.5c0.1,0.1,0.2,0.2,0.2,0.3c0,0.9,0.3,1.7,0.2,2.6c0.1,0.1,0.1,0.2,0,0.2c-0.3,0.3-0.6,0.4-1,0.4
				c-0.1,0-0.2,0-0.3,0c-3.5,0-7.1,0-10.6,0c-0.4,0-0.8-0.1-1.2-0.3c-0.1-0.1-0.2-0.2-0.2-0.3c0-0.1-0.1-0.2-0.1-0.3
				c0-0.7-0.1-1.4-0.2-2.1C206.1,352.2,206.4,351.8,207.1,351.7z M215.4,359.1c0.1,0.7,0.1,1.4,0.2,2c0.1,0.5,0.2,1,0.1,1.5
				c0.1,0.1,0.1,0.2,0,0.2c-0.4,0.4-0.9,0.5-1.4,0.5c-1.3,0-2.6,0-3.9,0c-2.1,0-4.3,0-6.4,0c-0.5,0-1-0.1-1.4-0.5
				c-0.1-0.1-0.2-0.2-0.2-0.4c0-0.4,0-0.8-0.1-1.2c0-0.3,0-0.6,0-0.9c0-1-0.2-2-0.1-2.9c0-0.3,0.1-0.4,0.3-0.5
				c0.4-0.2,0.8-0.3,1.2-0.3c3.3,0,6.7,0,10,0c0.5,0,1,0.1,1.3,0.5c0.1,0.1,0.2,0.2,0.2,0.4C215.3,358.1,215.4,358.6,215.4,359.1z
				 M190.8,351.9c0.2-0.1,0.5-0.2,0.7-0.2c3.6,0,7.2,0,10.8,0c0.3,0,0.6,0.1,0.9,0.2c0.2,0.1,0.3,0.3,0.3,0.5c0,0.8,0.1,1.5,0.2,2.2
				c0,0.1,0,0.2-0.1,0.3c0.2,0.3-0.1,0.4-0.3,0.5c-0.3,0.1-0.6,0.2-0.9,0.2c-3.6,0-7.3,0-10.9,0c-0.4,0-0.7-0.1-1-0.3
				c-0.2-0.1-0.3-0.2-0.3-0.4c0,0-0.1-0.1-0.1-0.1c0-0.8,0-1.5,0-2.3C190.3,352.3,190.5,352.1,190.8,351.9z M198.3,356.8
				c0.5,0,0.9,0.2,1.2,0.5c0.1,0.1,0.2,0.2,0.2,0.4c0,0.3,0,0.6,0,1c-0.1,1,0.1,2,0.1,2.9c0,0.3,0.2,0.7,0,1c0.1,0.1,0.1,0.2,0,0.3
				c-0.2,0.2-0.4,0.4-0.7,0.4c-0.3,0.1-0.6,0.1-0.9,0.1c-3.3,0-6.7,0-10,0c-0.4,0-0.9-0.1-1.3-0.3c-0.2-0.1-0.4-0.3-0.4-0.6
				c0-0.6-0.1-1.2,0-1.8c0.1-0.8,0.1-1.7,0.1-2.5c0-0.2,0-0.4,0-0.6c-0.1-0.2,0-0.4,0.2-0.5c0.4-0.2,0.7-0.4,1.2-0.4
				C191.4,356.8,194.9,356.8,198.3,356.8z M174.5,352.5c0-0.2,0.1-0.3,0.3-0.5c0.3-0.2,0.6-0.3,1-0.3c3.6,0,7.2,0,10.8,0
				c0.3,0,0.5,0.1,0.8,0.1c0.4,0.1,0.5,0.4,0.5,0.8c0,0.8,0,1.5,0,2.3c0,0,0,0,0,0.1c0,0,0,0,0,0l0,0c0,0.3-0.2,0.5-0.4,0.6
				c-0.3,0.1-0.6,0.2-1,0.2c-3.6,0-7.2,0-10.8,0c-0.4,0-0.8-0.1-1.1-0.3c-0.1-0.1-0.3-0.2-0.1-0.4
				C174.4,354.2,174.5,353.4,174.5,352.5z M182.7,356.8c0.4,0,0.8,0.1,1.1,0.3c0.2,0.2,0.3,0.3,0.3,0.6c0,1-0.2,2-0.1,3
				c0,0.6,0,1.3,0,1.9c0,0.4-0.2,0.5-0.5,0.6c-0.4,0.1-0.8,0.2-1.2,0.2c-3.4,0-6.8,0-10.2,0c-0.5,0-1-0.1-1.3-0.4
				c-0.1-0.1-0.3-0.2-0.1-0.4c0-0.9,0.1-1.7,0.2-2.5c0-0.8,0.2-1.5,0.1-2.3c0-0.4,0.1-0.6,0.5-0.7c0.4-0.2,0.7-0.3,1.2-0.3
				C176,356.8,179.3,356.8,182.7,356.8z M158.5,355.1c0-0.7,0.1-1.5,0.2-2.2c0-0.1,0-0.2,0.1-0.3c0-0.4,0.2-0.6,0.6-0.7
				c0.2-0.1,0.5-0.1,0.8-0.1c3.6,0,7.1,0,10.7,0c0.1,0,0.2,0,0.3,0c0.8,0.1,1.1,0.5,0.9,1.3c0,0.2-0.1,0.4-0.1,0.6
				c0,0.5,0,0.9-0.1,1.4c0,0,0,0,0,0.1c0,0,0,0,0,0c-0.2,0.6-0.7,0.5-1.1,0.7c-0.1,0-0.2,0-0.3,0c-3.5,0-7,0-10.6,0
				c-0.3,0-0.6,0-0.9-0.1c-0.2,0-0.4-0.1-0.4-0.4C158.5,355.3,158.3,355.3,158.5,355.1z M167.2,356.8c0.5,0,0.8,0.2,1.2,0.4
				c0.2,0.1,0.2,0.2,0.2,0.4c0,0.6-0.1,1.2-0.1,1.9c-0.1,0.5-0.1,1-0.2,1.5c0,0.5-0.2,1.1-0.1,1.6c0,0.4-0.3,0.5-0.6,0.7
				c-0.3,0.1-0.7,0.2-1,0.2c-3.4,0-6.8,0-10.3,0c-0.4,0-0.7-0.1-1-0.2c-0.3-0.1-0.4-0.3-0.4-0.6c-0.1-0.3,0-0.6,0-0.9
				c0-0.4,0.1-0.9,0.2-1.3c0.1-0.9,0.3-1.8,0.4-2.8c0-0.2,0.1-0.4,0.3-0.5c0.4-0.2,0.8-0.4,1.3-0.4
				C160.4,356.8,163.8,356.8,167.2,356.8z M142.8,353c0-0.1,0.1-0.2,0.1-0.3c0-0.5,0.3-0.7,0.7-0.8c0.3-0.1,0.6-0.2,0.8-0.1
				c3.5,0,7,0,10.5,0c0.3,0,0.7,0.1,1,0.2c0.3,0.1,0.4,0.3,0.3,0.6c-0.1,0.5-0.1,1-0.2,1.5c0,0.2-0.1,0.4-0.1,0.7
				c0,0.2-0.1,0.3-0.2,0.5c0,0.2-0.1,0.3-0.4,0.4c-0.3,0.1-0.6,0.2-1,0.2c-3.6,0-7.2,0-10.7,0c-0.3,0-0.7-0.1-1-0.2
				c-0.2-0.1-0.3-0.2-0.3-0.5C142.6,354.4,142.7,353.7,142.8,353z M141.4,356.8c3.4,0,6.8,0,10.2,0c0.4,0,0.8,0.1,1.1,0.3
				c0.2,0.1,0.3,0.3,0.2,0.6c-0.2,1-0.3,1.9-0.4,2.9c-0.1,0.5-0.1,1-0.2,1.5c0,0.3-0.1,0.5-0.3,0.7c0.1,0.1,0,0.2-0.1,0.3
				c-0.4,0.2-0.8,0.4-1.3,0.4c-3.5,0-6.9,0-10.4,0c-0.5,0-0.9-0.1-1.3-0.5c-0.1-0.1-0.2-0.2-0.1-0.3c0.1-0.6,0.2-1.3,0.3-1.9
				c0.2-0.9,0.4-1.8,0.5-2.8c0.1-0.8,0.8-1,1.4-1.2C141.2,356.8,141.3,356.8,141.4,356.8z M126.6,355.1c0-0.4,0.1-0.8,0.2-1.2
				c0.1-0.4,0.2-0.9,0.3-1.3c0.1-0.4,0.3-0.6,0.7-0.7c0.3-0.1,0.6-0.2,1-0.2c3.5,0,7,0,10.4,0c0.3,0,0.6,0.1,0.9,0.1
				c0.4,0.1,0.5,0.3,0.4,0.7c-0.1,0.8-0.3,1.7-0.5,2.5c0.1,0.2,0,0.2-0.1,0.2c0,0.2-0.1,0.2-0.3,0.3c-0.3,0.2-0.7,0.3-1,0.3
				c-3.6,0-7.2,0-10.9,0c-0.3,0-0.6-0.1-0.9-0.2C126.6,355.5,126.4,355.4,126.6,355.1z M136.3,356.8c0.2,0,0.4,0,0.6,0.1
				c0.5,0.2,0.6,0.4,0.5,0.9c-0.2,1-0.4,1.9-0.6,2.9c-0.1,0.6-0.3,1.2-0.4,1.9c0,0-0.1,0.1-0.1,0.1c0,0.3-0.2,0.4-0.5,0.5
				c-0.4,0.2-0.8,0.3-1.2,0.3c-3.4,0-6.8,0-10.3,0c-0.4,0-0.8-0.1-1.2-0.3c-0.1-0.1-0.4-0.2-0.2-0.4c-0.1-0.3,0.1-0.7,0.2-1
				c0.2-0.5,0.3-1.1,0.4-1.7c0.2-0.8,0.4-1.6,0.6-2.4c0-0.1,0.1-0.3,0.2-0.4c0.4-0.2,0.8-0.5,1.3-0.5
				C129.2,356.8,132.7,356.8,136.3,356.8z M110.6,355c0-0.2,0-0.3,0.1-0.5c0.2-0.6,0.4-1.2,0.5-1.8c0.1-0.5,0.4-0.7,0.8-0.8
				c0.2-0.1,0.5-0.1,0.8-0.1c3.6,0,7.1,0,10.7,0c0.3,0,0.6,0.1,0.8,0.2c0.2,0.1,0.3,0.3,0.3,0.5c-0.1,0.2-0.1,0.4-0.2,0.7
				c-0.2,0.7-0.3,1.4-0.6,2c0,0,0,0,0,0.1c0,0,0,0,0,0v0c0,0.1-0.1,0.1-0.2,0.1c0,0.2-0.3,0.3-0.4,0.3c-0.3,0.1-0.5,0.1-0.8,0.1
				c-3.6,0-7.2,0-10.8,0c-0.3,0-0.5-0.1-0.7-0.1c-0.2-0.1-0.3-0.2-0.4-0.4C110.4,355.2,110.5,355.1,110.6,355z M110.6,356.8
				c3.3,0,6.6,0,9.9,0c0.4,0,0.8,0.1,1.1,0.3c0.2,0.1,0.3,0.3,0.2,0.5c-0.4,1.4-0.8,2.8-1.2,4.2c-0.1,0.3-0.2,0.6-0.3,0.9
				c0,0.2-0.1,0.3-0.3,0.3c-0.4,0.2-0.9,0.4-1.3,0.4c-3.5,0-6.9,0-10.4,0c-0.5,0-1-0.1-1.3-0.5c-0.1-0.1-0.2-0.3,0.1-0.3
				c0.1-0.6,0.3-1.2,0.5-1.8c0.3-1,0.7-2,1-3c0.1-0.3,0.2-0.5,0.5-0.6C109.6,356.8,110.1,356.7,110.6,356.8z M94.7,355.1
				c0-0.5,0.2-0.9,0.4-1.3c0.2-0.4,0.3-0.9,0.5-1.3c0.1-0.2,0.3-0.4,0.5-0.5c0.4-0.1,0.7-0.3,1.1-0.3c3.6,0,7.1,0,10.7,0
				c0.1,0,0.2,0,0.3,0c0.7,0.1,0.9,0.4,0.6,1c-0.2,0.7-0.5,1.4-0.7,2.1c0,0.1-0.1,0.2-0.2,0.2c-0.1,0.4-0.4,0.5-0.7,0.5
				c-0.3,0.1-0.6,0.1-0.9,0.1c-3.6,0-7.1,0-10.7,0c-0.3,0-0.6-0.1-0.8-0.2c-0.2-0.1-0.4-0.2-0.4-0.4
				C94.5,355.1,94.6,355.1,94.7,355.1z M93.3,357.2c0.4-0.2,0.9-0.5,1.4-0.5c3.4,0,6.9,0,10.3,0c0.4,0,0.7,0.1,1,0.3
				c0.2,0.1,0.2,0.2,0.1,0.5c-0.3,0.8-0.6,1.6-0.8,2.4c-0.1,0.4-0.2,0.7-0.4,1c-0.2,0.6-0.4,1.1-0.6,1.6c0.1,0.1,0,0.1-0.1,0.1
				c-0.1,0.4-0.5,0.5-0.8,0.5c-0.3,0.1-0.7,0.1-1,0.1c-3.3,0-6.6,0-9.9,0c-0.4,0-0.7-0.1-1-0.2c-0.3-0.1-0.4-0.3-0.3-0.6
				c0.3-0.7,0.5-1.4,0.7-2.1c0.3-1,0.8-1.9,1.1-2.9C93.1,357.4,93.2,357.3,93.3,357.2z M78.7,355.1c0-0.3,0.1-0.5,0.2-0.7
				c0.3-0.6,0.5-1.1,0.7-1.7c0.1-0.3,0.3-0.6,0.6-0.7c0.4-0.2,0.7-0.3,1.2-0.3c3.5,0,7,0,10.5,0c0.3,0,0.7,0,1,0.2
				c0.2,0.1,0.3,0.2,0.2,0.4c-0.3,0.5-0.4,1.1-0.7,1.7c-0.2,0.4-0.3,0.8-0.6,1.2c0,0.2-0.2,0.3-0.4,0.4c-0.3,0.1-0.7,0.2-1,0.2
				c-3.6,0-7.1,0-10.7,0c-0.4,0-0.7-0.1-1-0.3C78.6,355.4,78.4,355.2,78.7,355.1z M75.4,362.7c0-0.3,0-0.5,0.2-0.8
				c0.2-0.3,0.3-0.7,0.4-1c0.2-0.6,0.5-1.1,0.7-1.7c0.3-0.6,0.5-1.1,0.8-1.7c0-0.1,0.1-0.2,0.2-0.3c0.5-0.3,1-0.6,1.6-0.5
				c3.4,0,6.8,0,10.1,0c0.4,0,0.8,0.1,1.1,0.4c0.1,0.1,0.2,0.2,0.1,0.4c-0.4,0.8-0.7,1.6-1,2.4c-0.4,0.9-0.6,1.8-1.1,2.6
				c0.1,0,0.1,0.1,0,0.2c-0.2,0.2-0.4,0.4-0.8,0.5c-0.4,0.1-0.8,0.2-1.2,0.2c-3.4,0-6.7,0-10.1,0c-0.4,0-0.8-0.1-1.1-0.3
				C75.3,363.1,75.2,362.9,75.4,362.7z M95.5,365c-0.5,1.4-1,2.7-1.5,4.1c-0.2,0.5-0.4,0.9-0.6,1.3c0,0.3-0.2,0.4-0.5,0.5
				c-0.4,0.1-0.8,0.3-1.2,0.3c-6.3,0-12.6,0-19,0c-0.4,0-0.8-0.1-1.1-0.5c-0.1-0.1-0.1-0.3,0.1-0.3c0-0.4,0.2-0.7,0.3-1
				c0.6-1.5,1.4-2.9,1.9-4.4c0.1-0.3,0.3-0.5,0.6-0.6c0.4-0.2,0.8-0.3,1.2-0.3c6.2,0,12.4,0,18.6,0c0.4,0,0.7,0.1,1,0.4
				C95.5,364.8,95.5,364.9,95.5,365z M111.5,365.1c-0.4,0.8-0.5,1.7-0.8,2.5c-0.3,0.9-0.5,1.9-0.8,2.8c-0.1,0.3-0.3,0.5-0.5,0.6
				c-0.4,0.2-0.7,0.3-1.2,0.3c-3.7,0-7.3,0-11,0c-0.4,0-0.8-0.1-1.1-0.4c-0.1-0.1-0.3-0.3,0-0.4c0-0.4,0.2-0.8,0.3-1.2
				c0.5-1.4,1-2.7,1.4-4.1c0.1-0.2,0.3-0.4,0.5-0.5c0.3-0.2,0.7-0.3,1.1-0.3c3.7,0,7.3,0,11,0c0.4,0,0.7,0.1,1,0.4
				C111.5,364.8,111.5,364.9,111.5,365.1z M127.5,365.1c-0.3,1.1-0.5,2.2-0.8,3.3c-0.1,0.5-0.2,0.9-0.3,1.4c0,0.2-0.1,0.3-0.1,0.5
				c0,0.3-0.2,0.6-0.5,0.7c-0.4,0.2-0.8,0.3-1.2,0.3c-3.6,0-7.3,0-10.9,0c-0.5,0-0.9-0.2-1.2-0.5c-0.1-0.1-0.2-0.3,0.1-0.3
				c0.1-0.6,0.3-1.2,0.5-1.9c0.3-1.1,0.7-2.2,0.9-3.3c0.1-0.3,0.3-0.5,0.5-0.7c0.3-0.2,0.7-0.3,1.1-0.3c3.6,0,7.2,0,10.8,0
				c0.4,0,0.8,0.1,1.1,0.4C127.5,364.8,127.6,364.9,127.5,365.1z M143.5,365.2c-0.2,0.8-0.3,1.7-0.5,2.5c-0.1,0.9-0.3,1.8-0.5,2.6
				c0,0,0,0,0,0.1c0,0,0,0,0,0c0,0.2-0.2,0.4-0.4,0.5c-0.3,0.2-0.7,0.3-1.1,0.3c-3.7,0-7.3,0-11,0c-0.4,0-0.7-0.1-1-0.3
				c-0.2-0.1-0.4-0.3-0.2-0.5c0-0.2,0-0.4,0.1-0.6c0.3-0.9,0.4-1.8,0.6-2.7c0.1-0.7,0.3-1.3,0.5-2c0.1-0.3,0.2-0.4,0.4-0.6
				c0.3-0.2,0.7-0.3,1.1-0.3c3.7,0,7.3,0,11,0c0.3,0,0.6,0.1,0.8,0.2C143.5,364.7,143.6,364.9,143.5,365.2z M159.5,365.5
				c-0.1,0.4-0.1,0.8-0.1,1.2c0,0.4-0.1,0.8-0.1,1.2c-0.1,0.4-0.1,0.9-0.2,1.3c0,0.4-0.1,0.8-0.2,1.1c0.1,0,0.2,0.1,0.1,0.2
				c-0.1,0.2-0.3,0.3-0.4,0.4c-0.3,0.2-0.7,0.3-1.1,0.3c-3.7,0-7.5,0-11.2,0c-0.5,0-0.9-0.1-1.2-0.6c-0.1-0.1-0.1-0.2,0.1-0.2
				c0-0.8,0.2-1.6,0.3-2.3c0.1-0.7,0.2-1.5,0.3-2.2c0-0.3,0.1-0.5,0.1-0.8c0-0.2,0.2-0.3,0.3-0.4c0.3-0.2,0.7-0.3,1.1-0.3
				c1.9,0,3.9,0,5.8,0c1.7,0,3.3,0,5,0c0.2,0,0.4,0,0.6,0.1C159.5,364.6,159.6,364.8,159.5,365.5z M175.6,365.2c0,0.1,0,0.2,0,0.3
				c0,1-0.1,1.9-0.2,2.9c0,0.2,0,0.5,0,0.7c0,0.1,0,0.2,0,0.3c0,0.3,0,0.6-0.1,1c0,0.2-0.1,0.3-0.2,0.4c-0.4,0.2-0.7,0.4-1.1,0.4
				c-3.7,0-7.5,0-11.2,0c-0.5,0-0.8-0.2-1.1-0.5c-0.1-0.1-0.2-0.2,0-0.3c0-0.9,0.1-1.8,0.3-2.7c0.1-0.4,0.1-0.9,0.1-1.3
				c0-0.4,0.1-0.9,0.1-1.3c0-0.3,0.2-0.4,0.4-0.5c0.3-0.1,0.6-0.3,0.9-0.3c3.7,0,7.4,0,11,0c0.3,0,0.6,0.1,0.9,0.3
				C175.6,364.8,175.7,364.9,175.6,365.2z M191.5,370.9c-0.3,0.2-0.7,0.4-1.1,0.4c-3.7,0-7.5,0-11.2,0c-0.4,0-0.8-0.2-1.1-0.5
				c-0.1-0.1-0.3-0.2,0-0.4c0,0,0-0.1,0-0.1c-0.1-1.4,0.1-2.8,0.1-4.2c0-0.4,0.1-0.8,0.1-1.1c0-0.2,0.2-0.4,0.4-0.5
				c0.2-0.1,0.5-0.2,0.8-0.2c3.7,0,7.4,0,11.1,0c0.3,0,0.6,0.1,0.9,0.3c0.2,0.1,0.4,0.3,0.3,0.7c-0.1,0.4-0.1,0.8,0,1.1
				c0.1,0.3,0.1,0.5,0,0.8c-0.1,0.7-0.1,1.4,0,2.1c0,0.1,0,0.2,0,0.3c0,0.1,0,0.2,0,0.3c0,0.2,0,0.4-0.1,0.6c0.1,0,0.2,0,0.1,0.1
				C191.7,370.7,191.7,370.8,191.5,370.9z M208,370.8c-0.4,0.3-0.8,0.5-1.2,0.5c-1.8,0-3.6,0-5.4,0c-1.9,0-3.8,0-5.7,0
				c-0.4,0-0.7-0.1-1.1-0.3c-0.2-0.1-0.3-0.3-0.3-0.5c-0.1-1.7-0.1-3.4-0.1-5.1c0-0.2-0.2-0.4,0-0.6c0.3-0.3,0.6-0.4,0.9-0.5
				c0.1,0,0.2,0,0.3,0c3.6,0,7.2,0,10.8,0c0.3,0,0.6,0.1,0.9,0.2c0.3,0.1,0.5,0.4,0.5,0.8c0,0.7,0,1.5,0.1,2.2
				c0.1,1,0.2,1.9,0.2,2.9C208.2,370.6,208.1,370.7,208,370.8z M224.2,371c-0.3,0.2-0.7,0.3-1.1,0.3c-2.3,0-4.5,0-6.8,0
				c-1.4,0-2.8,0-4.2,0c-0.6,0-1-0.2-1.4-0.6c-0.1-0.1-0.1-0.2,0-0.2c-0.1-0.6-0.1-1.2-0.2-1.9c-0.1-0.5-0.1-0.9-0.1-1.4
				c-0.1-0.7-0.1-1.4-0.2-2.1c0-0.3,0.1-0.5,0.4-0.6c0.3-0.2,0.6-0.2,0.9-0.2c3.4,0,6.9,0,10.3,0c0.2,0,0.4,0,0.6,0
				c0.4,0,0.7,0.1,1,0.3c0.3,0.2,0.5,0.4,0.5,0.7c0,0.6,0.2,1.2,0.2,1.8c0.1,0.6,0.2,1.3,0.2,1.9c0.1,0.5,0.1,1,0.1,1.5
				C224.6,370.7,224.4,370.9,224.2,371z M240.8,370.8c-0.2,0.3-0.6,0.4-1,0.5c-0.1,0-0.2,0-0.3,0c-3.6,0-7.3,0-10.9,0
				c-0.5,0-0.9-0.1-1.3-0.4c-0.2-0.1-0.3-0.3-0.3-0.5c-0.1-1-0.2-2.1-0.4-3.1c-0.1-0.7-0.2-1.5-0.3-2.2c0-0.2,0-0.3,0.2-0.5
				c0.3-0.3,0.6-0.4,1-0.4c1.2,0,2.3,0,3.5,0c2.5,0,4.9,0,7.4,0c0.5,0,1,0.1,1.4,0.5c0.1,0.1,0.2,0.2,0.2,0.4
				c0.1,0.6,0.2,1.2,0.3,1.8c0.1,0.6,0.2,1.2,0.3,1.8c0.1,0.5,0.3,1,0.3,1.5C241,370.5,240.9,370.6,240.8,370.8z M257.1,370.8
				c-0.2,0.3-0.5,0.3-0.9,0.4c-0.1,0-0.1,0-0.2,0c-3.7,0-7.4,0-11.2,0c-0.6,0-1.1-0.2-1.5-0.6c-0.1-0.1-0.1-0.2,0-0.2
				c-0.2-0.9-0.4-1.9-0.6-2.8c-0.1-0.8-0.3-1.6-0.5-2.4c-0.1-0.3,0-0.5,0.2-0.6c0.2-0.1,0.5-0.2,0.8-0.2c3.7,0,7.4,0,11.1,0
				c0.4,0,0.7,0.2,1.1,0.3c0.2,0.1,0.3,0.3,0.4,0.5c0.3,1.1,0.5,2.2,0.8,3.4c0.1,0.5,0.3,1,0.4,1.5c0.1,0.2,0.1,0.3,0.1,0.5
				C257.3,370.6,257.2,370.7,257.1,370.8z M273.6,370.9c-0.3,0.2-0.6,0.3-1,0.4c-0.1,0-0.2,0-0.2,0c-3.6,0-7.2,0-10.8,0
				c-0.5,0-0.9-0.1-1.4-0.4c-0.2-0.1-0.3-0.2-0.3-0.5c-0.4-1.4-0.7-2.8-1.1-4.2c-0.1-0.4-0.2-0.8-0.3-1.1c-0.1-0.3,0-0.5,0.3-0.6
				c0.2-0.1,0.5-0.2,0.7-0.2c3.7,0,7.3,0,11,0c0.4,0,0.8,0.1,1.1,0.3c0.2,0.1,0.4,0.3,0.5,0.6c0.2,0.7,0.5,1.4,0.6,2.2
				c0.2,0.8,0.5,1.7,0.8,2.5c0.1,0.2,0.1,0.4,0.1,0.6c0.1,0.1,0.2,0.2,0.2,0.2C273.8,370.7,273.7,370.8,273.6,370.9z M290.1,370.7
				c0,0-0.1,0.1-0.1,0.1c-0.2,0.3-0.6,0.4-0.9,0.4c-0.1,0-0.2,0-0.3,0c-3.6,0-7.2,0-10.8,0c-0.6,0-1.1-0.1-1.5-0.5
				c-0.1-0.1-0.3-0.2-0.2-0.4c-0.4-1-0.7-2-1-3c-0.2-0.5-0.4-1.1-0.5-1.6c-0.1-0.2-0.1-0.5-0.2-0.7c-0.1-0.2,0-0.4,0.2-0.5
				c0.2-0.1,0.5-0.3,0.8-0.3c3.7,0,7.4,0,11.1,0c0.5,0,0.9,0.2,1.3,0.4c0.1,0.1,0.2,0.2,0.2,0.4c0.2,0.6,0.5,1.3,0.7,1.9
				c0.4,0.9,0.7,1.8,1.1,2.7c0.1,0.2,0.1,0.4,0.1,0.6C290.2,370.4,290.2,370.6,290.1,370.7z M306.5,370.7c0,0,0,0.1-0.1,0.1
				c-0.2,0.3-0.5,0.4-0.9,0.4c-0.1,0-0.2,0-0.3,0c-3.6,0-7.2,0-10.8,0c-0.4,0-0.8-0.1-1.2-0.2c-0.3-0.1-0.6-0.3-0.6-0.7
				c-0.3-0.7-0.5-1.4-0.8-2.1c-0.5-1-0.8-2.1-1.2-3.1c-0.1-0.3-0.1-0.4,0.2-0.6c0.2-0.1,0.4-0.2,0.7-0.2c3.7,0,7.4,0,11,0
				c0.5,0,0.9,0.2,1.3,0.4c0.1,0.1,0.2,0.2,0.3,0.3c0.8,1.7,1.5,3.4,2.3,5.1c0,0.1,0,0.2,0,0.2C306.6,370.5,306.6,370.6,306.5,370.7
				z"/>
		</g>
		<g>
			<path fill="#FFFFFE" d="M94.4,364.3c-6.2,0-12.4,0-18.6,0c-0.4,0-0.8,0.1-1.2,0.3c-0.3,0.1-0.5,0.3-0.6,0.6
				c-0.6,1.5-1.3,2.9-1.9,4.4c-0.1,0.3-0.3,0.6-0.3,1c0.2,0.4,0.6,0.4,1,0.5c0.2,0,0.4,0,0.5,0c5.9,0,11.8,0,17.7,0
				c0.8,0,1.6-0.1,2.3-0.5c0.2-0.4,0.4-0.9,0.6-1.3c0.5-1.4,1-2.8,1.5-4.1c0.1-0.1,0-0.2-0.1-0.3C95.2,364.4,94.8,364.3,94.4,364.3z
				"/>
		</g>
		<g>
			<path fill="#FFFFFE" d="M281.4,356.7c-0.4,0-0.7,0.1-1.1,0.2c-0.3,0.1-0.4,0.3-0.2,0.7c0.1,0.3,0.2,0.6,0.3,0.9
				c0.4,1.4,1,2.7,1.4,4.1c0,0,0.1,0.1,0.1,0.1l0,0c0.4,0.1,0.8,0.3,1.2,0.3c0.2,0,0.4,0,0.6,0c5.9,0,11.8,0,17.7,0
				c0.3,0,0.6-0.1,0.9-0.1c0.2,0,0.5-0.2,0.5-0.4c0-0.2-0.1-0.4-0.2-0.6c-0.6-1.4-1.3-2.9-1.9-4.3c-0.1-0.2-0.2-0.4-0.4-0.5
				c-0.5-0.2-1-0.4-1.5-0.4C293.1,356.8,287.2,356.8,281.4,356.7z"/>
		</g>
		<g>
			<path fill="#FFFFFE" d="M239.3,371c0.6,0,1.2-0.1,1.5-0.7c-0.1-0.5-0.2-1-0.3-1.5c-0.1-0.6-0.2-1.2-0.3-1.8
				c-0.2-0.6-0.3-1.2-0.3-1.8c0-0.2-0.1-0.3-0.2-0.4c-0.4-0.4-0.9-0.5-1.4-0.5c-2.5,0-4.9,0-7.4,0c-1.2,0-2.3,0-3.5,0
				c-0.4,0-0.7,0.1-1,0.4c-0.1,0.1-0.2,0.3-0.2,0.5c0.1,0.7,0.2,1.5,0.3,2.2c0.2,1,0.3,2.1,0.4,3.1c0.6,0.4,1.2,0.6,1.9,0.6
				C232.4,371,235.9,371,239.3,371z"/>
		</g>
		<g>
			<path fill="#FFFFFE" d="M222.9,371c0.6,0,1.1-0.1,1.5-0.5c0-0.5,0-1-0.1-1.5c-0.1-0.6-0.2-1.3-0.2-1.9c-0.1-0.6-0.2-1.2-0.2-1.8
				c0-0.3-0.2-0.6-0.5-0.7c-0.3-0.2-0.6-0.3-1-0.3c-0.2,0-0.4,0-0.6,0c-3.4,0-6.9,0-10.3,0c-0.3,0-0.6,0.1-0.9,0.2
				c-0.2,0.1-0.4,0.3-0.4,0.6c0.1,0.7,0.1,1.4,0.2,2.1c0,0.5,0,0.9,0.1,1.4c0.1,0.6,0.1,1.2,0.2,1.9c0.5,0.4,1.1,0.6,1.7,0.6
				C215.9,371,219.4,371,222.9,371z"/>
		</g>
		<g>
			<rect x="142.5" y="370.5" fill="#FFFFFE" width="0" height="0"/>
		</g>
		<g>
			<path fill="#FFFFFE" d="M143.2,364.5c-0.3-0.1-0.5-0.2-0.8-0.2c-3.7,0-7.3,0-11,0c-0.4,0-0.7,0.1-1.1,0.3
				c-0.2,0.1-0.4,0.3-0.4,0.6c-0.1,0.7-0.3,1.3-0.5,2c-0.2,0.9-0.3,1.8-0.6,2.7c-0.1,0.2-0.1,0.4-0.1,0.6c0.3,0.4,0.8,0.6,1.3,0.6
				c1,0,1.9,0,2.9,0c2.6,0,5.2,0,7.8,0c0.6,0,1.1-0.1,1.6-0.5c0,0,0.1,0,0.1,0c0,0,0-0.1,0-0.1c0.2-0.9,0.3-1.8,0.5-2.6
				c0.1-0.9,0.3-1.7,0.5-2.5C143.6,364.9,143.5,364.7,143.2,364.5z"/>
		</g>
		<g>
			<path fill="#FFFFFE" d="M175.3,364.6c-0.3-0.2-0.6-0.3-0.9-0.3c-3.7,0-7.4,0-11,0c-0.3,0-0.6,0.1-0.9,0.3
				c-0.2,0.1-0.4,0.3-0.4,0.5c0,0.4-0.1,0.9-0.1,1.3c0,0.4,0,0.9-0.1,1.3c-0.1,0.9-0.3,1.8-0.3,2.7c0.5,0.5,1,0.6,1.7,0.6
				c3.3,0,6.6,0,10,0c0.8,0,1.5-0.1,2.1-0.5v0c0.1-0.3,0.1-0.6,0.1-1c0-0.1,0-0.2,0-0.3c0-0.2,0-0.5,0-0.7c0.1-1,0.2-1.9,0.2-2.9
				c0-0.1,0-0.2,0-0.3C175.7,364.9,175.6,364.8,175.3,364.6z"/>
		</g>
		<g>
			<path fill="#FFFFFE" d="M175.3,370.5L175.3,370.5c0.1-0.3,0.1-0.6,0.1-1C175.4,369.8,175.4,370.1,175.3,370.5L175.3,370.5z"/>
		</g>
		<g>
			<path fill="#FFFFFE" d="M195.8,371c3.6,0,7.2,0,10.8,0c0.6,0,1.1-0.2,1.5-0.6c0-1-0.1-2-0.2-2.9c-0.1-0.7-0.1-1.5-0.1-2.2
				c0-0.4-0.2-0.6-0.5-0.8c-0.3-0.1-0.6-0.2-0.9-0.2c-3.6,0-7.2,0-10.8,0c-0.1,0-0.2,0-0.3,0c-0.4,0.1-0.7,0.2-0.9,0.5
				c-0.2,0.2,0,0.4,0,0.6c0,1.7,0,3.4,0.1,5.1c0.1,0.1,0.2,0.1,0.3,0.2C195,370.9,195.4,371,195.8,371z"/>
		</g>
		<g>
			<path fill="#FFFFFE" d="M255.8,371c0.5,0,1-0.1,1.4-0.5c0-0.2,0-0.3-0.1-0.5c-0.1-0.5-0.3-1-0.4-1.5c-0.3-1.1-0.5-2.2-0.8-3.4
				c-0.1-0.2-0.2-0.4-0.4-0.5c-0.3-0.1-0.7-0.3-1.1-0.3c-3.7,0-7.4,0-11.1,0c-0.3,0-0.5,0.1-0.8,0.2c-0.3,0.2-0.3,0.3-0.2,0.6
				c0.2,0.8,0.4,1.6,0.5,2.4c0.1,1,0.4,1.9,0.6,2.8c0.6,0.4,1.2,0.6,1.9,0.6C248.8,371,252.3,371,255.8,371z"/>
		</g>
		<g>
			<path fill="#FFFFFE" d="M126.3,364.3c-3.6,0-7.2,0-10.8,0c-0.4,0-0.8,0.1-1.1,0.3c-0.2,0.2-0.4,0.4-0.5,0.7
				c-0.3,1.1-0.6,2.2-0.9,3.3c-0.2,0.6-0.4,1.2-0.5,1.9c0.3,0.4,0.8,0.6,1.3,0.6c1.6,0,3.1,0,4.7,0c1.9,0,3.7,0,5.6,0
				c0.8,0,1.6-0.2,2.2-0.8c0-0.2,0-0.3,0.1-0.5c0.1-0.4,0.2-0.9,0.3-1.4c0.3-1.1,0.5-2.2,0.8-3.3c0-0.2,0-0.3-0.1-0.4
				C127.1,364.4,126.7,364.3,126.3,364.3z"/>
		</g>
		<g>
			<path fill="#FFFFFE" d="M278.1,371c3.5,0,7.1,0,10.6,0c0.5,0,1-0.1,1.3-0.7c0-0.2-0.1-0.4-0.1-0.6c-0.4-0.9-0.7-1.8-1.1-2.7
				c-0.2-0.6-0.5-1.3-0.7-1.9c-0.1-0.1-0.1-0.3-0.2-0.4c-0.4-0.2-0.8-0.4-1.3-0.4c-3.7,0-7.4,0-11.1,0c-0.3,0-0.5,0.1-0.8,0.3
				c-0.2,0.1-0.2,0.3-0.2,0.5c0.1,0.2,0.1,0.5,0.2,0.7c0.2,0.5,0.4,1.1,0.5,1.6c0.4,1,0.6,2,1,3c0.4,0.2,0.7,0.4,1.2,0.5
				C277.7,370.9,277.9,371,278.1,371z"/>
		</g>
		<g>
			<path fill="#FFFFFE" d="M261.6,371c3.5,0,7.1,0,10.6,0c0.5,0,1-0.1,1.4-0.6c0-0.2-0.1-0.4-0.1-0.6c-0.3-0.8-0.6-1.6-0.8-2.5
				c-0.2-0.7-0.4-1.4-0.6-2.2c-0.1-0.3-0.2-0.5-0.5-0.6c-0.3-0.2-0.7-0.3-1.1-0.3c-3.7,0-7.3,0-11,0c-0.3,0-0.5,0.1-0.7,0.2
				c-0.2,0.1-0.3,0.3-0.3,0.6c0.1,0.4,0.2,0.8,0.3,1.1c0.4,1.4,0.8,2.8,1.1,4.2c0.4,0.2,0.7,0.4,1.2,0.5
				C261.2,370.9,261.4,371,261.6,371z"/>
		</g>
		<g>
			<path fill="#FFFFFE" d="M273.6,370.4c0-0.2-0.1-0.4-0.1-0.6C273.6,370,273.6,370.2,273.6,370.4L273.6,370.4z"/>
		</g>
		<g>
			<path fill="#FFFFFE" d="M110.4,364.3c-3.6,0-7.3,0-11,0c-0.4,0-0.8,0.1-1.1,0.3c-0.2,0.1-0.4,0.3-0.5,0.5
				c-0.4,1.4-0.9,2.7-1.4,4.1c-0.1,0.4-0.3,0.8-0.3,1.2c0.3,0.4,0.7,0.6,1.2,0.6c3.6,0,7.2,0,10.8,0c0.5,0,1-0.1,1.4-0.4
				c0.1-0.1,0.2-0.2,0.4-0.2c0.3-0.9,0.4-1.9,0.8-2.8c0.3-0.8,0.5-1.7,0.8-2.5c0.1-0.1,0-0.2-0.1-0.3
				C111.1,364.4,110.8,364.3,110.4,364.3z"/>
		</g>
		<g>
			<path fill="#FFFFFE" d="M158.8,364.4c-0.2-0.1-0.4-0.1-0.6-0.1c-1.7,0-3.3,0-5,0c-1.9,0-3.9,0-5.8,0c-0.4,0-0.8,0.1-1.1,0.3
				c-0.2,0.1-0.3,0.2-0.3,0.4c0,0.3-0.1,0.5-0.1,0.8c-0.1,0.7-0.2,1.5-0.3,2.2c-0.1,0.8-0.3,1.5-0.3,2.3c0.4,0.5,0.9,0.6,1.5,0.6
				c2.1,0,4.2,0,6.4,0c1.4,0,2.7,0,4.1,0c0.7,0,1.2-0.2,1.7-0.6c0.1-0.4,0.2-0.7,0.2-1.1c0-0.4,0.1-0.9,0.2-1.3
				c0-0.4,0.1-0.8,0.1-1.2c0-0.4,0.1-0.8,0.1-1.2C159.6,364.8,159.5,364.6,158.8,364.4z"/>
		</g>
		<g>
			<path fill="#FFFFFE" d="M305.1,371c0.5,0,1-0.1,1.3-0.6c0-0.1,0-0.2,0-0.2c-0.8-1.7-1.5-3.4-2.3-5.1c-0.1-0.1-0.1-0.3-0.3-0.3
				c-0.4-0.2-0.8-0.4-1.3-0.4c-3.7,0-7.4,0-11,0c-0.3,0-0.5,0.1-0.7,0.2c-0.2,0.2-0.3,0.3-0.2,0.6c0.5,1,0.8,2.1,1.2,3.1
				c0.3,0.7,0.5,1.4,0.8,2.1c0.6,0.5,1.2,0.7,2,0.7C298.1,371,301.6,371,305.1,371z"/>
		</g>
		<g>
			<path fill="#FFFFFE" d="M190,371c0.6,0,1.2-0.1,1.7-0.6c0.1-0.2,0.1-0.4,0.1-0.6c0-0.1,0-0.2,0-0.3c0-0.1,0-0.2,0-0.3
				c-0.1-0.7-0.1-1.4,0-2.1c0-0.3,0.1-0.5,0-0.8c-0.1-0.4-0.1-0.8,0-1.1c0.1-0.4-0.1-0.5-0.3-0.7c-0.3-0.1-0.5-0.3-0.9-0.3
				c-3.7,0-7.4,0-11.1,0c-0.3,0-0.5,0.1-0.8,0.2c-0.2,0.1-0.4,0.2-0.4,0.5c0,0.4-0.1,0.8-0.1,1.1c0,1.4-0.2,2.8-0.1,4.2
				c0,0,0,0.1,0,0.1c0.5,0.4,1.1,0.6,1.7,0.6C183.1,371,186.6,371,190,371z"/>
		</g>
		<g>
			<path fill="#FFFFFE" d="M191.7,369.5c0,0.1,0,0.2,0,0.3C191.8,369.7,191.8,369.6,191.7,369.5z"/>
		</g>
		<g>
			<path fill="#FFFFFE" d="M215.1,357.3c-0.4-0.4-0.8-0.5-1.3-0.5c-3.3,0-6.7,0-10,0c-0.5,0-0.8,0.1-1.2,0.3
				c-0.2,0.1-0.3,0.3-0.3,0.5c-0.1,1,0.1,2,0.1,2.9c0,0.3,0,0.6,0,0.9c0,0.4,0,0.8,0.1,1.2c0.5,0.4,1.1,0.6,1.8,0.6
				c3.3,0,6.7,0,10,0c0.6,0,1.1-0.1,1.6-0.5c0.1-0.5,0-1-0.1-1.5c-0.1-0.7-0.2-1.4-0.2-2c0-0.5-0.2-1-0.1-1.4
				C215.3,357.5,215.2,357.4,215.1,357.3z"/>
		</g>
		<g>
			<path fill="#FFFFFE" d="M247.2,360.7c-0.2-1-0.5-2-0.7-3c0-0.2-0.1-0.4-0.3-0.5c-0.3-0.3-0.8-0.5-1.2-0.5c-3.5,0-7,0-10.5,0
				c-0.3,0-0.6,0.1-0.8,0.2c-0.4,0.3-0.4,0.3-0.3,0.8c0.2,0.9,0.3,1.7,0.5,2.6c0.1,0.8,0.2,1.5,0.5,2.2c0.6,0.4,1.2,0.5,1.8,0.5
				c3.3,0,6.6,0,9.9,0c0.5,0,1.1-0.1,1.5-0.5c0-0.2,0-0.4-0.1-0.7C247.4,361.5,247.3,361.1,247.2,360.7z"/>
		</g>
		<g>
			<path fill="#FFFFFE" d="M108.6,357.8c-0.3,1-0.7,2-1,3c-0.2,0.6-0.4,1.2-0.5,1.8c0.2,0.5,0.7,0.5,1.1,0.5c0.1,0,0.3,0,0.4,0
				c3.1,0,6.2,0,9.3,0c0.8,0,1.6,0,2.3-0.4c0.1-0.3,0.3-0.6,0.3-0.9c0.4-1.4,0.7-2.8,1.2-4.2c0.1-0.2,0-0.4-0.2-0.5
				c-0.3-0.2-0.7-0.3-1.1-0.3c-3.3,0-6.6,0-9.9,0c-0.6,0-1.1,0.1-1.6,0.4C108.8,357.3,108.7,357.5,108.6,357.8z"/>
		</g>
		<g>
			<path fill="#FFFFFE" d="M155.4,357.6c-0.1,0.9-0.2,1.8-0.4,2.8c-0.1,0.4-0.2,0.9-0.2,1.3c0,0.3-0.1,0.6,0,0.9
				c0.4,0.4,0.9,0.5,1.4,0.5c3.4,0,6.9,0,10.3,0c0.6,0,1.1-0.2,1.6-0.6c-0.1-0.5,0.1-1.1,0.1-1.6c0-0.5,0.1-1,0.2-1.5
				c0.1-0.6,0.1-1.2,0.1-1.9c0-0.2,0-0.3-0.2-0.4c-0.4-0.2-0.7-0.4-1.2-0.4c-3.4,0-6.8,0-10.2,0c-0.5,0-0.9,0.2-1.3,0.4
				C155.5,357.3,155.4,357.4,155.4,357.6z"/>
		</g>
		<g>
			<path fill="#FFFFFE" d="M124.2,357.6c-0.2,0.8-0.4,1.6-0.6,2.4c-0.1,0.6-0.2,1.1-0.4,1.7c-0.1,0.3-0.2,0.6-0.2,1
				c0.4,0.4,0.8,0.5,1.3,0.5c3.4,0,6.9,0,10.3,0c0.6,0,1.1-0.2,1.6-0.5c0,0,0,0,0,0c0,0,0.1-0.1,0.1-0.1c0-0.6,0.3-1.3,0.4-1.9
				c0.2-1,0.4-1.9,0.6-2.9c0.1-0.5,0-0.7-0.5-0.9c-0.2-0.1-0.4-0.1-0.6-0.1c-3.5,0-7,0-10.5,0c-0.5,0-0.9,0.3-1.3,0.5
				C124.3,357.3,124.2,357.4,124.2,357.6z"/>
		</g>
		<g>
			<path fill="#FFFFFE" d="M186.6,357.7c0.1,0.2,0,0.4,0,0.6c0,0.8,0,1.7-0.1,2.5c-0.1,0.6,0,1.2,0,1.8c0.5,0.5,1.1,0.6,1.7,0.6
				c3.3,0,6.7,0,10,0c0.4,0,0.8-0.1,1.1-0.2c0.2-0.1,0.4-0.2,0.5-0.4c0.2-0.3,0-0.7,0-1c0-1-0.2-2-0.1-2.9c0-0.3,0-0.6,0-1
				c0-0.2,0-0.3-0.2-0.4c-0.4-0.2-0.8-0.5-1.2-0.5c-3.5,0-6.9,0-10.4,0c-0.5,0-0.8,0.2-1.2,0.4C186.6,357.3,186.5,357.5,186.6,357.7
				z"/>
		</g>
		<g>
			<path fill="#FFFFFE" d="M86.9,363.1c0.6,0,1.2-0.1,1.7-0.6c0.4-0.8,0.7-1.7,1.1-2.6c0.3-0.8,0.6-1.7,1-2.4c0.1-0.2,0-0.3-0.1-0.4
				c-0.3-0.3-0.7-0.4-1.1-0.4c-3.4,0-6.8,0-10.1,0c-0.6,0-1.1,0.3-1.6,0.5c-0.1,0.1-0.2,0.2-0.2,0.3c-0.3,0.6-0.5,1.1-0.8,1.7
				c-0.2,0.6-0.5,1.1-0.7,1.7c-0.1,0.4-0.2,0.7-0.4,1c-0.2,0.2-0.2,0.5-0.2,0.8c0.3,0.3,0.8,0.4,1.2,0.4
				C80,363.1,83.5,363.1,86.9,363.1z"/>
		</g>
		<g>
			<rect x="266.3" y="362.7" fill="#FFFFFE" width="0" height="0"/>
		</g>
		<g>
			<path fill="#FFFFFE" d="M278.7,360.7c-0.2-1-0.7-1.9-0.9-2.8c-0.1-0.3-0.2-0.5-0.5-0.6c-0.4-0.3-0.9-0.4-1.4-0.4
				c-2.2,0-4.4,0-6.7,0c-1.2,0-2.4,0-3.6,0c-0.3,0-0.7,0.1-0.9,0.3c-0.2,0.1-0.3,0.3-0.2,0.5c0.2,0.5,0.3,1,0.5,1.6
				c0.3,1.1,0.7,2.3,1,3.4c0.1,0,0.1,0.1,0.2,0.2c0.7,0.3,1.4,0.4,2.2,0.4c3.2,0,6.3,0,9.5,0c0.5,0,1.1,0,1.5-0.5
				c0-0.2,0-0.3-0.1-0.5C279,361.7,279.1,361.1,278.7,360.7z"/>
		</g>
		<g>
			<path fill="#FFFFFE" d="M262.1,357.7c0-0.1-0.1-0.3-0.2-0.4c-0.4-0.3-0.8-0.6-1.3-0.6c-3.5,0-7,0-10.6,0c-0.4,0-0.7,0.2-1,0.4
				c-0.1,0.1-0.2,0.3-0.1,0.4c0.3,1,0.5,2,0.7,3c0.2,0.7,0.3,1.4,0.5,2c0.6,0.4,1.3,0.5,2.1,0.5c3.2,0,6.4,0,9.6,0
				c0.3,0,0.6,0,1-0.1c0.3-0.1,0.5-0.1,0.6-0.5c0-0.1,0-0.3-0.1-0.4C263,360.7,262.6,359.2,262.1,357.7z"/>
		</g>
		<g>
			<path fill="#FFFFFE" d="M231.1,358.8c-0.1-0.3-0.1-0.6-0.1-0.9c0-0.4-0.2-0.6-0.4-0.8c-0.3-0.2-0.7-0.3-1-0.3c-3.5,0-7,0-10.6,0
				c-0.3,0-0.5,0.1-0.8,0.2c-0.3,0.1-0.4,0.4-0.4,0.7c0.1,0.6,0.1,1.2,0.2,1.8c0,0.4,0,0.7,0.1,1.1c0.1,0.7,0.2,1.4,0.3,2.1
				c0.7,0.4,1.4,0.5,2.2,0.5c3.2,0,6.4,0,9.6,0c0.6,0,1.1-0.1,1.6-0.5c0-0.1,0-0.2,0-0.2C231.5,361.2,231.3,360,231.1,358.8z"/>
		</g>
		<g>
			<path fill="#FFFFFE" d="M139.7,357.9c-0.1,0.9-0.3,1.9-0.5,2.8c-0.1,0.6-0.2,1.3-0.3,1.9c0.4,0.4,0.9,0.5,1.4,0.5
				c3.4,0,6.9,0,10.3,0c0.5,0,1-0.1,1.4-0.4c0.1-0.2,0.2-0.5,0.3-0.7c0.1-0.5,0.1-1,0.2-1.5c0.1-1,0.3-1.9,0.4-2.9
				c0-0.3,0-0.4-0.2-0.6c-0.3-0.2-0.7-0.3-1.1-0.3c-3.4,0-6.8,0-10.2,0c-0.1,0-0.2,0-0.2,0C140.5,356.9,139.8,357.1,139.7,357.9z"/>
		</g>
		<g>
			<path fill="#FFFFFE" d="M92,360.5c-0.2,0.7-0.5,1.4-0.7,2.1c0.3,0.5,0.8,0.5,1.4,0.6c0.7,0,1.4,0,2.2,0c2.5,0,4.9,0,7.4,0
				c0.8,0,1.5-0.1,2.3-0.4l0,0c0,0,0.1-0.1,0.1-0.1c0.2-0.5,0.4-1.1,0.6-1.6c0.1-0.4,0.3-0.7,0.4-1c0.2-0.8,0.5-1.6,0.8-2.4
				c0.1-0.2,0-0.4-0.1-0.5c-0.3-0.2-0.6-0.3-1-0.3c-3.4,0-6.9,0-10.3,0c-0.5,0-1,0.3-1.4,0.5c-0.1,0.1-0.2,0.2-0.3,0.3
				C92.8,358.6,92.3,359.5,92,360.5z"/>
		</g>
		<g>
			<path fill="#FFFFFE" d="M171,357.8c0.1,0.8-0.1,1.5-0.1,2.3c0,0.8-0.2,1.7-0.2,2.5c0.4,0.4,0.9,0.6,1.4,0.6c3.5,0,6.9,0,10.4,0
				c0.6,0,1.1-0.1,1.5-0.6c0-0.6,0-1.3,0-1.9c0-1,0.1-2,0.1-3c0-0.3-0.1-0.4-0.3-0.6c-0.3-0.2-0.7-0.3-1.1-0.3c-3.4,0-6.8,0-10.1,0
				c-0.4,0-0.8,0.1-1.2,0.3C171.1,357.2,170.9,357.4,171,357.8z"/>
		</g>
		<g>
			<path fill="#FFFFFE" d="M175.5,355.5c3.6,0,7.3,0,10.9,0c0.6,0,1.1-0.1,1.5-0.5l0,0c0,0,0-0.1,0-0.1c0-0.8,0-1.5,0-2.3
				c0-0.4-0.2-0.6-0.5-0.8c-0.2-0.1-0.5-0.1-0.8-0.1c-3.6,0-7.2,0-10.8,0c-0.4,0-0.7,0.1-1,0.3c-0.2,0.1-0.3,0.2-0.3,0.5
				c0,0.8-0.1,1.7-0.1,2.5C174.7,355.4,175,355.5,175.5,355.5z"/>
		</g>
		<g>
			<path fill="#FFFFFE" d="M154.1,355.5c0.6,0,1.1-0.1,1.7-0.3c0-0.2,0.2-0.3,0.2-0.5c0-0.2,0-0.4,0.1-0.7c0.1-0.5,0.1-1,0.2-1.5
				c0-0.3-0.1-0.5-0.3-0.6c-0.3-0.1-0.6-0.2-1-0.2c-3.5,0-7,0-10.5,0c-0.3,0-0.6,0.1-0.8,0.1c-0.4,0.1-0.7,0.3-0.7,0.8
				c0,0.1-0.1,0.2-0.1,0.3c-0.1,0.7-0.3,1.4-0.4,2.1c0.3,0.3,0.7,0.4,1.1,0.4C147.1,355.5,150.6,355.5,154.1,355.5z"/>
		</g>
		<g>
			<path fill="#FFFFFE" d="M190.3,355C190.3,355.1,190.3,355.1,190.3,355C190.4,355.1,190.4,355.1,190.3,355
				c0.5,0.4,0.9,0.5,1.4,0.5c3.6,0,7.2,0,10.8,0c0.5,0,0.9-0.1,1.2-0.5c0-0.1,0.1-0.2,0.1-0.3c-0.1-0.7-0.2-1.5-0.2-2.2
				c0-0.3-0.1-0.4-0.3-0.5c-0.3-0.1-0.6-0.2-0.9-0.2c-3.6,0-7.2,0-10.8,0c-0.3,0-0.5,0.1-0.7,0.2c-0.3,0.2-0.5,0.4-0.5,0.8
				C190.3,353.5,190.3,354.3,190.3,355z"/>
		</g>
		<g>
			<path fill="#FFFFFE" d="M127.4,355.5c3.8,0,7.5,0,11.3,0c0.4,0,0.8-0.2,1.1-0.3c0,0,0,0,0,0c0-0.1,0.1-0.1,0.1-0.2
				c0.2-0.8,0.4-1.6,0.5-2.5c0.1-0.4,0-0.6-0.4-0.7c-0.3-0.1-0.6-0.1-0.9-0.1c-3.5,0-7,0-10.4,0c-0.3,0-0.7,0.1-1,0.2
				c-0.4,0.1-0.6,0.3-0.7,0.7c-0.1,0.4-0.2,0.9-0.3,1.3c-0.1,0.4-0.3,0.8-0.2,1.2C126.8,355.4,127,355.5,127.4,355.5z"/>
		</g>
		<g>
			<path fill="#FFFFFE" d="M94.8,355.3c0.2,0.2,0.4,0.2,0.6,0.2c3.8,0,7.5,0,11.3,0c0.5,0,0.9-0.2,1.3-0.4c0.1-0.1,0.1-0.2,0.2-0.2
				c0.2-0.7,0.5-1.4,0.7-2.1c0.2-0.6,0.1-0.9-0.6-1c-0.1,0-0.2,0-0.3,0c-3.6,0-7.1,0-10.7,0c-0.4,0-0.8,0.1-1.1,0.3
				c-0.2,0.1-0.4,0.3-0.5,0.5c-0.2,0.4-0.3,0.9-0.5,1.3c-0.2,0.4-0.4,0.8-0.4,1.3C94.7,355.2,94.7,355.2,94.8,355.3
				C94.7,355.2,94.8,355.3,94.8,355.3z"/>
		</g>
		<g>
			<path fill="#FFFFFE" d="M222.1,353.5c0.1,0.2,0.1,0.5,0.1,0.8c0,0.3,0.1,0.6,0.2,0.9c0.4,0.3,0.9,0.3,1.4,0.3c3.6,0,7.1,0,10.7,0
				c0.5,0,0.9-0.1,1.2-0.4c0-0.3,0-0.7-0.1-1c-0.1-0.4-0.2-0.9-0.2-1.3c-0.1-0.6-0.4-0.9-1-1c-0.2,0-0.4-0.1-0.6-0.1
				c-1.8,0-3.7,0-5.5,0c-1.7,0-3.4,0-5.1,0c-0.3,0-0.6,0.1-0.9,0.2c-0.2,0.1-0.4,0.2-0.3,0.4C222,352.8,221.9,353.1,222.1,353.5z"/>
		</g>
		<g>
			<path fill="#FFFFFE" d="M270.1,355c0.2,0.1,0.4,0.2,0.6,0.3c0.3,0.1,0.6,0.2,0.9,0.2c3.6,0,7.2,0,10.8,0c0.5,0,0.9-0.1,1.1-0.5
				c0-0.1,0-0.1,0-0.2c-0.3-0.7-0.6-1.4-0.8-2.1c-0.1-0.4-0.4-0.7-0.7-0.8c-0.3-0.1-0.6-0.2-0.9-0.2c-3.6,0-7.2,0-10.8,0
				c-0.3,0-0.5,0.1-0.8,0.2c-0.3,0.2-0.3,0.3-0.2,0.6C269.6,353.4,269.9,354.2,270.1,355z"/>
		</g>
		<g>
			<path fill="#FFFFFE" d="M79.2,355.5c0.2,0,0.3,0,0.5,0c3.4,0,6.9,0,10.3,0c0.7,0,1.3,0,1.9-0.3c0.2-0.4,0.4-0.8,0.6-1.2
				c0.2-0.6,0.4-1.1,0.7-1.7c0.1-0.2-0.1-0.3-0.2-0.4c-0.3-0.2-0.6-0.2-1-0.2c-3.5,0-7,0-10.5,0c-0.4,0-0.8,0.1-1.2,0.3
				c-0.3,0.1-0.5,0.4-0.6,0.7c-0.2,0.6-0.5,1.2-0.7,1.7c-0.1,0.2-0.2,0.5-0.2,0.7C78.8,355.4,79,355.5,79.2,355.5z"/>
		</g>
		<g>
			<rect x="123.9" y="355.2" fill="#FFFFFE" width="0" height="0"/>
		</g>
		<g>
			<path fill="#FFFFFE" d="M111.3,355.5c0.1,0,0.3,0,0.4,0c3.2,0,6.5,0,9.7,0c0.7,0,1.5,0,2.2-0.2c0,0,0-0.1,0.1-0.1
				c0,0,0.1,0,0.1,0c0,0,0,0,0,0c0,0,0-0.1,0-0.1c0,0,0,0,0,0c0.3-0.6,0.4-1.3,0.6-2c0.1-0.2,0.1-0.5,0.2-0.7
				c0.1-0.2-0.1-0.4-0.3-0.5c-0.3-0.1-0.5-0.2-0.8-0.2c-3.6,0-7.1,0-10.7,0c-0.3,0-0.5,0-0.8,0.1c-0.4,0.1-0.7,0.3-0.8,0.8
				c-0.1,0.6-0.3,1.2-0.5,1.8c-0.1,0.2-0.1,0.3-0.1,0.5C110.7,355.4,111,355.5,111.3,355.5z"/>
		</g>
		<g>
			<polygon fill="#FFFFFE" points="123.9,355.2 123.9,355.2 123.9,355.2 			"/>
		</g>
		<g>
			<path fill="#FFFFFE" d="M123.9,355.1L123.9,355.1c0.3-0.6,0.4-1.3,0.6-2C124.3,353.8,124.2,354.5,123.9,355.1
				C123.9,355.1,123.9,355.1,123.9,355.1z"/>
		</g>
		<g>
			<path fill="#FFFFFE" d="M286.3,355.1C286.3,355.1,286.3,355.2,286.3,355.1C286.4,355.2,286.4,355.2,286.3,355.1
				c0.7,0.4,1.4,0.4,2.1,0.4c3.4,0,6.8,0,10.2,0c0.4,0,0.7,0,1-0.4c0-0.2,0-0.3-0.1-0.5c-0.3-0.7-0.6-1.3-0.9-2
				c-0.2-0.4-0.5-0.7-0.9-0.8c-0.3-0.1-0.5-0.1-0.8-0.1c-1,0-2,0-2.9,0c-2.5,0-5.1,0-7.6,0c-0.3,0-0.6,0.1-0.9,0.2
				c-0.2,0.1-0.3,0.3-0.2,0.5C285.6,353.3,285.8,354.3,286.3,355.1z"/>
		</g>
		<g>
			<path fill="#FFFFFE" d="M238.3,355.1C238.3,355.1,238.3,355.2,238.3,355.1c0.1,0.1,0.1,0.1,0.2,0.2c0.1,0,0.2,0.1,0.3,0.1
				c0.1,0,0.1,0,0.2,0c0.1,0,0.2,0,0.3,0.1c0.1,0,0.1,0,0.2,0c0.3,0,0.6,0,0.9,0c3.4,0,6.7,0,10.1,0c0.5,0,0.9-0.1,1.2-0.5
				c0-0.1,0-0.2,0-0.2c-0.2-0.7-0.4-1.4-0.5-2.1c-0.1-0.4-0.3-0.6-0.6-0.8c-0.3-0.1-0.5-0.2-0.8-0.2c-3.6,0-7.2,0-10.8,0
				c-0.3,0-0.5,0.1-0.8,0.2c-0.2,0.1-0.3,0.3-0.3,0.6C238,353.4,238.1,354.3,238.3,355.1z"/>
		</g>
		<g>
			<path fill="#FFFFFE" d="M158.6,355.3C158.6,355.3,158.6,355.3,158.6,355.3c0.3,0.3,0.7,0.2,1.1,0.2c3.5,0,7,0,10.5,0
				c0.1,0,0.3,0,0.4,0c0.4,0,0.8-0.2,1.2-0.4c0,0,0-0.1,0-0.1c0.1-0.5,0.1-0.9,0.1-1.4c0-0.2,0-0.4,0.1-0.6c0.2-0.8-0.1-1.2-0.9-1.3
				c-0.1,0-0.2,0-0.3,0c-3.6,0-7.1,0-10.7,0c-0.3,0-0.5,0.1-0.8,0.1c-0.4,0.1-0.5,0.3-0.6,0.7c0,0.1,0,0.2-0.1,0.3
				c-0.1,0.7-0.2,1.5-0.2,2.2C158.5,355.1,158.5,355.2,158.6,355.3C158.6,355.2,158.6,355.2,158.6,355.3z"/>
		</g>
		<g>
			<rect x="171.8" y="355.1" fill="#FFFFFE" width="0" height="0"/>
		</g>
		<g>
			<rect x="158.6" y="355.3" fill="#FFFFFE" width="0" height="0"/>
		</g>
		<g>
			<path fill="#FFFFFE" d="M206.4,355.2c0.4,0.3,0.9,0.3,1.3,0.3c3.6,0,7.1,0,10.7,0c0.5,0,0.9-0.1,1.2-0.4c0.1-0.9-0.2-1.7-0.2-2.6
				c0-0.1-0.1-0.2-0.2-0.3c-0.3-0.4-0.8-0.5-1.3-0.5c-3.6,0-7.1,0-10.7,0c-0.1,0-0.2,0-0.3,0c-0.7,0.1-1,0.4-0.9,1.1
				c0.1,0.7,0.2,1.4,0.2,2.1C206.3,355,206.4,355.1,206.4,355.2z"/>
		</g>
		<g>
			<path fill="#FFFFFE" d="M254.1,354.7c0,0.2,0.1,0.4,0.3,0.5c0,0,0.1,0.1,0.1,0.1c0.5,0.2,1.1,0.2,1.6,0.2c0.2,0,0.4,0,0.6,0
				c3.3,0,6.5,0,9.8,0c0.4,0,0.8,0,1.1-0.4c0-0.4-0.1-0.8-0.2-1.1c-0.1-0.5-0.3-0.9-0.4-1.4c-0.1-0.3-0.2-0.5-0.5-0.7
				c-0.3-0.2-0.6-0.2-1-0.2c-3.6,0-7.2,0-10.8,0c-0.3,0-0.5,0.1-0.7,0.2c-0.3,0.1-0.3,0.3-0.3,0.6
				C253.7,353.2,253.9,354,254.1,354.7z"/>
		</g>
		<g>
			<rect x="254.5" y="355.3" fill="#FFFFFE" width="0" height="0"/>
		</g>
		<g>
			<path fill="#C1C0BF" d="M73.4,371c-0.2,0-0.4,0-0.5,0c-0.4,0-0.8-0.1-1-0.5c-0.2,0-0.2,0.2-0.1,0.3c0.3,0.3,0.6,0.5,1.1,0.5
				c6.3,0,12.6,0,19,0c0.4,0,0.8-0.1,1.2-0.3c0.2-0.1,0.4-0.2,0.5-0.5c-0.7,0.4-1.5,0.5-2.3,0.5C85.2,371,79.3,371,73.4,371z"/>
		</g>
		<g>
			<path fill="#C1C0BF" d="M302.4,363c-0.3,0.1-0.6,0.1-0.9,0.1c-5.9,0-11.8,0-17.7,0c-0.2,0-0.4,0-0.6,0c-0.4,0-0.8-0.3-1.2-0.3
				c0.2,0.3,0.4,0.4,0.7,0.5c0.4,0.1,0.7,0.2,1.1,0.2c5.9,0,11.8,0,17.7,0c0.1,0,0.2,0,0.3,0c0.4,0,0.7-0.2,1-0.4
				c0.1,0,0.1-0.1,0.1-0.1c0.1-0.1,0.1-0.1,0-0.2c0,0-0.1-0.1-0.1-0.1c0,0,0,0,0,0l0,0C302.8,362.9,302.6,363,302.4,363z"/>
		</g>
		<g>
			<path fill="#C1C0BF" d="M303,362.7c0,0-0.1-0.1-0.1-0.1c0,0,0,0,0,0C303,362.6,303,362.7,303,362.7z"/>
		</g>
		<g>
			<path fill="#C1C0BF" d="M191.6,370.4L191.6,370.4L191.6,370.4c-0.5,0.4-1,0.6-1.7,0.6c-3.4,0-6.8,0-10.2,0
				c-0.7,0-1.2-0.2-1.7-0.6c-0.3,0.1-0.1,0.3,0,0.4c0.3,0.3,0.7,0.5,1.1,0.5c3.7,0,7.5,0,11.2,0c0.4,0,0.8-0.2,1.1-0.4
				c0.1-0.1,0.2-0.2,0.3-0.3C191.8,370.4,191.7,370.4,191.6,370.4z"/>
		</g>
		<g>
			<path fill="#C1C0BF" d="M191.6,370.4L191.6,370.4c0.1,0,0.2,0,0.1,0.1C191.8,370.4,191.7,370.4,191.6,370.4z"/>
		</g>
		<g>
			<path fill="#C1C0BF" d="M118.5,371c-1.6,0-3.1,0-4.7,0c-0.5,0-1-0.2-1.3-0.6c-0.2,0-0.2,0.2-0.1,0.3c0.3,0.4,0.7,0.5,1.2,0.5
				c3.6,0,7.3,0,10.9,0c0.4,0,0.8-0.1,1.2-0.3c0.3-0.1,0.5-0.4,0.5-0.7c-0.6,0.6-1.4,0.8-2.2,0.8C122.2,371,120.4,371,118.5,371z"/>
		</g>
		<g>
			<path fill="#C1C0BF" d="M290,370.3c-0.3,0.6-0.8,0.7-1.3,0.7c-3.5,0-7.1,0-10.6,0c-0.2,0-0.4,0-0.6-0.1c-0.4-0.1-0.8-0.3-1.2-0.5
				c-0.2,0.2,0.1,0.3,0.2,0.4c0.4,0.4,1,0.5,1.5,0.5c3.6,0,7.2,0,10.8,0c0.1,0,0.2,0,0.3,0c0.3-0.1,0.7-0.1,0.9-0.4
				c0,0,0.1-0.1,0.1-0.1C290.2,370.6,290.2,370.4,290,370.3z"/>
		</g>
		<g>
			<path fill="#C1C0BF" d="M273.6,370.4c-0.4,0.4-0.8,0.6-1.4,0.6c-3.5,0-7.1,0-10.6,0c-0.2,0-0.4,0-0.6-0.1
				c-0.4-0.1-0.8-0.4-1.2-0.5c0,0.2,0.1,0.4,0.3,0.5c0.4,0.2,0.9,0.4,1.4,0.4c3.6,0,7.2,0,10.8,0c0.1,0,0.2,0,0.2,0
				c0.4,0,0.7-0.2,1-0.4c0.1-0.1,0.2-0.2,0.2-0.2C273.8,370.6,273.7,370.5,273.6,370.4L273.6,370.4z"/>
		</g>
		<g>
			<path fill="#C1C0BF" d="M273.6,370.4L273.6,370.4L273.6,370.4c0.1,0.1,0.2,0.2,0.2,0.2C273.8,370.6,273.7,370.5,273.6,370.4z"/>
		</g>
		<g>
			<path fill="#C1C0BF" d="M108.1,371c-3.6,0-7.2,0-10.8,0c-0.5,0-0.9-0.1-1.2-0.6c-0.3,0.1-0.2,0.3,0,0.4c0.3,0.3,0.7,0.4,1.1,0.4
				c3.7,0,7.3,0,11,0c0.4,0,0.8-0.1,1.2-0.3c0.2-0.1,0.5-0.3,0.5-0.6c-0.1,0-0.3,0.1-0.4,0.2C109.1,370.8,108.6,371,108.1,371z"/>
		</g>
		<g>
			<path fill="#C1C0BF" d="M153.1,371c-2.1,0-4.2,0-6.4,0c-0.6,0-1.1-0.1-1.5-0.6c-0.2,0-0.2,0.1-0.1,0.2c0.3,0.5,0.7,0.6,1.2,0.6
				c3.7,0,7.5,0,11.2,0c0.4,0,0.7-0.1,1.1-0.3c0.2-0.1,0.3-0.2,0.4-0.4c0.1-0.1,0-0.2-0.1-0.2c-0.5,0.4-1.1,0.6-1.7,0.6
				C155.8,371,154.4,371,153.1,371z"/>
		</g>
		<g>
			<path fill="#C1C0BF" d="M306.4,370.4c-0.3,0.5-0.8,0.6-1.3,0.6c-3.5,0-7,0-10.5,0c-0.7,0-1.4-0.2-2-0.7c0,0.4,0.3,0.6,0.6,0.7
				c0.4,0.1,0.8,0.2,1.2,0.2c3.6,0,7.2,0,10.8,0c0.1,0,0.2,0,0.3,0c0.3-0.1,0.7-0.1,0.9-0.4c0,0,0.1-0.1,0.1-0.1
				C306.6,370.6,306.6,370.5,306.4,370.4z"/>
		</g>
		<g>
			<path fill="#C1C0BF" d="M255.8,371c-3.5,0-7,0-10.4,0c-0.7,0-1.3-0.2-1.9-0.6c-0.1,0.1,0,0.2,0,0.2c0.4,0.4,0.9,0.6,1.5,0.6
				c3.7,0,7.4,0,11.2,0c0.1,0,0.1,0,0.2,0c0.3-0.1,0.6-0.1,0.9-0.4c0.1-0.1,0.2-0.2,0-0.4C256.8,370.9,256.3,371,255.8,371z"/>
		</g>
		<g>
			<path fill="#C1C0BF" d="M239.3,371c-3.5,0-7,0-10.4,0c-0.7,0-1.3-0.2-1.9-0.6c0,0.2,0.1,0.4,0.3,0.5c0.4,0.3,0.8,0.4,1.3,0.4
				c3.6,0,7.3,0,10.9,0c0.1,0,0.2,0,0.3,0c0.4-0.1,0.7-0.2,1-0.5c0.1-0.1,0.2-0.3,0.1-0.5C240.5,370.9,239.9,371,239.3,371z"/>
		</g>
		<g>
			<path fill="#C1C0BF" d="M175.3,370.5c-0.6,0.4-1.3,0.5-2.1,0.5c-3.3,0-6.6,0-10,0c-0.6,0-1.2-0.1-1.7-0.6c-0.1,0.1-0.1,0.2,0,0.3
				c0.3,0.4,0.7,0.5,1.1,0.5c3.7,0,7.5,0,11.2,0c0.4,0,0.8-0.1,1.1-0.4C175.2,370.8,175.3,370.7,175.3,370.5z"/>
		</g>
		<g>
			<path fill="#C1C0BF" d="M175.1,370.9c0.2-0.1,0.3-0.2,0.2-0.4l0,0C175.3,370.7,175.2,370.8,175.1,370.9z"/>
		</g>
		<g>
			<path fill="#C1C0BF" d="M206.6,371c-3.6,0-7.2,0-10.8,0c-0.4,0-0.8-0.1-1.1-0.3c-0.1-0.1-0.2-0.1-0.3-0.2c0,0.2,0.1,0.4,0.3,0.5
				c0.3,0.2,0.7,0.3,1.1,0.3c1.9,0,3.8,0,5.7,0c1.8,0,3.6,0,5.4,0c0.5,0,0.9-0.2,1.2-0.5c0.1-0.1,0.3-0.2,0.1-0.4
				C207.7,370.8,207.2,371,206.6,371z"/>
		</g>
		<g>
			<path fill="#C1C0BF" d="M222.9,371c-3.5,0-7,0-10.5,0c-0.7,0-1.2-0.2-1.7-0.6c-0.1,0.1,0,0.2,0,0.2c0.4,0.4,0.9,0.6,1.4,0.6
				c1.4,0,2.8,0,4.2,0c2.3,0,4.5,0,6.8,0c0.4,0,0.7-0.1,1.1-0.3c0.2-0.1,0.4-0.2,0.2-0.5C224,370.9,223.5,371,222.9,371z"/>
		</g>
		<g>
			<path fill="#C1C0BF" d="M142.5,370.5c0,0-0.1,0-0.1,0c-0.5,0.3-1,0.5-1.6,0.5c-2.6,0-5.2,0-7.8,0c-1,0-1.9,0-2.9,0
				c-0.5,0-1-0.1-1.3-0.6c-0.2,0.3,0,0.4,0.2,0.5c0.3,0.2,0.7,0.3,1,0.3c3.7,0,7.3,0,11,0c0.4,0,0.8-0.1,1.1-0.3
				C142.3,370.9,142.5,370.7,142.5,370.5C142.5,370.5,142.5,370.5,142.5,370.5C142.5,370.5,142.5,370.5,142.5,370.5z"/>
		</g>
		<g>
			<polygon fill="#C1C0BF" points="142.5,370.5 142.5,370.5 142.5,370.5 			"/>
		</g>
		<g>
			<path fill="#C1C0BF" d="M282.4,355.5c-3.6,0-7.2,0-10.8,0c-0.3,0-0.6-0.1-0.9-0.2c-0.2-0.1-0.4-0.2-0.6-0.3
				c0,0.2,0.2,0.4,0.4,0.5c0.3,0.2,0.7,0.3,1.1,0.3c3.7,0,7.3,0,11,0c0.2,0,0.4-0.1,0.7-0.1c0.3-0.1,0.4-0.3,0.3-0.6
				C283.3,355.4,282.9,355.5,282.4,355.5z"/>
		</g>
		<g>
			<path fill="#C1C0BF" d="M262.8,363c-0.3,0.1-0.6,0.1-1,0.1c-3.2,0-6.4,0-9.6,0c-0.7,0-1.4-0.1-2.1-0.5c0,0.3,0.3,0.5,0.5,0.6
				c0.4,0.1,0.8,0.2,1.2,0.2c3.4,0,6.9,0,10.3,0c0.3,0,0.5-0.1,0.8-0.2c0.3-0.1,0.4-0.3,0.5-0.5c0-0.1,0-0.2-0.1-0.2
				C263.4,362.9,263.1,363,262.8,363z"/>
		</g>
		<g>
			<path fill="#C1C0BF" d="M156.2,363.1c-0.5,0-1-0.1-1.4-0.5c0,0.2,0.1,0.5,0.4,0.6c0.3,0.1,0.7,0.2,1,0.2c3.4,0,6.8,0,10.3,0
				c0.4,0,0.7-0.1,1-0.2c0.3-0.1,0.6-0.2,0.6-0.7c-0.5,0.4-1,0.6-1.6,0.6C163.1,363.1,159.7,363.1,156.2,363.1z"/>
		</g>
		<g>
			<path fill="#C1C0BF" d="M199.3,363c-0.4,0.1-0.7,0.2-1.1,0.2c-3.3,0-6.7,0-10,0c-0.6,0-1.2-0.1-1.7-0.6c0,0.3,0.2,0.5,0.4,0.6
				c0.4,0.2,0.8,0.3,1.3,0.3c3.3,0,6.7,0,10,0c0.3,0,0.6-0.1,0.9-0.1c0.3-0.1,0.5-0.2,0.7-0.4c0.1-0.1,0.1-0.2,0-0.3
				C199.7,362.8,199.5,362.9,199.3,363z"/>
		</g>
		<g>
			<path fill="#C1C0BF" d="M172.1,363.1c-0.5,0-1.1-0.1-1.4-0.6c-0.2,0.2,0,0.3,0.1,0.4c0.4,0.3,0.8,0.4,1.3,0.4c3.4,0,6.8,0,10.2,0
				c0.4,0,0.8-0.1,1.2-0.2c0.3-0.1,0.5-0.3,0.5-0.6c-0.4,0.4-1,0.6-1.5,0.6C179,363.1,175.5,363.1,172.1,363.1z"/>
		</g>
		<g>
			<path fill="#C1C0BF" d="M204.2,363.1c-0.7,0-1.3-0.1-1.8-0.6c0,0.2,0.1,0.3,0.2,0.4c0.4,0.4,0.9,0.5,1.4,0.5c2.1,0,4.3,0,6.4,0
				c1.3,0,2.6,0,3.9,0c0.5,0,1-0.1,1.4-0.5c0.1-0.1,0.1-0.2,0-0.2c-0.4,0.4-1,0.5-1.6,0.5C210.8,363.1,207.5,363.1,204.2,363.1z"/>
		</g>
		<g>
			<path fill="#C1C0BF" d="M220.6,363.1c-0.8,0-1.5-0.1-2.2-0.5c0.1,0.3,0.3,0.5,0.5,0.6c0.4,0.1,0.8,0.2,1.2,0.2c2.4,0,4.8,0,7.2,0
				c1,0,2,0,3,0c0.5,0,1-0.1,1.3-0.5c0.1-0.1,0.2-0.2,0.1-0.3c-0.4,0.4-1,0.5-1.6,0.5C227,363.1,223.8,363.1,220.6,363.1z"/>
		</g>
		<g>
			<path fill="#C1C0BF" d="M136.3,362.7c-0.5,0.3-1,0.5-1.6,0.5c-3.4,0-6.9,0-10.3,0c-0.5,0-1-0.1-1.3-0.5c-0.2,0.2,0,0.4,0.2,0.4
				c0.4,0.2,0.8,0.3,1.2,0.3c3.4,0,6.8,0,10.3,0c0.4,0,0.8-0.1,1.2-0.3C136,363.1,136.2,362.9,136.3,362.7
				C136.3,362.7,136.2,362.7,136.3,362.7L136.3,362.7z"/>
		</g>
		<g>
			<polygon fill="#C1C0BF" points="136.2,362.7 136.3,362.7 136.3,362.7 			"/>
		</g>
		<g>
			<path fill="#C1C0BF" d="M75.5,363.1c0.3,0.2,0.7,0.3,1.1,0.3c3.4,0,6.7,0,10.1,0c0.4,0,0.8-0.1,1.2-0.2c0.3-0.1,0.5-0.3,0.8-0.5
				c0.1,0,0-0.1,0-0.2c-0.5,0.4-1.1,0.5-1.7,0.6c-3.4,0-6.9,0-10.3,0c-0.4,0-0.9-0.1-1.2-0.4C75.2,362.9,75.3,363.1,75.5,363.1z"/>
		</g>
		<g>
			<path fill="#C1C0BF" d="M236.2,363.1c-0.7,0-1.3-0.1-1.8-0.5c0,0.3,0.3,0.4,0.5,0.5c0.4,0.1,0.8,0.3,1.2,0.3c2.5,0,5,0,7.4,0
				c0.9,0,1.8,0,2.7,0c0.4,0,0.8-0.1,1.2-0.3c0.1-0.1,0.4-0.2,0.2-0.4c-0.4,0.4-0.9,0.5-1.5,0.5
				C242.8,363.1,239.5,363.1,236.2,363.1z"/>
		</g>
		<g>
			<path fill="#C1C0BF" d="M108.7,363.1c-0.1,0-0.3,0-0.4,0c-0.4-0.1-0.9-0.1-1.1-0.5c-0.3,0.1-0.2,0.2-0.1,0.3
				c0.3,0.4,0.8,0.5,1.3,0.5c3.5,0,6.9,0,10.4,0c0.5,0,0.9-0.2,1.3-0.4c0.1-0.1,0.2-0.2,0.3-0.3c-0.7,0.3-1.5,0.4-2.3,0.4
				C114.9,363.1,111.8,363.1,108.7,363.1z"/>
		</g>
		<g>
			<path fill="#C1C0BF" d="M174.6,355.5c0.3,0.2,0.7,0.3,1.1,0.3c3.6,0,7.2,0,10.8,0c0.3,0,0.7-0.1,1-0.2c0.3-0.1,0.4-0.3,0.4-0.6
				c-0.4,0.4-0.9,0.5-1.5,0.5c-3.6,0-7.3,0-10.9,0c-0.4,0-0.8-0.1-1-0.5C174.2,355.2,174.4,355.4,174.6,355.5z"/>
		</g>
		<g>
			<path fill="#C1C0BF" d="M191.7,355.5c-0.5,0-0.9-0.1-1.3-0.4l0,0c0,0,0,0,0,0c0,0.2,0.1,0.3,0.3,0.4c0.3,0.2,0.7,0.3,1,0.3
				c3.6,0,7.3,0,10.9,0c0.3,0,0.6-0.1,0.9-0.2c0.2-0.1,0.4-0.2,0.3-0.5c-0.3,0.4-0.7,0.5-1.2,0.5
				C198.9,355.5,195.3,355.5,191.7,355.5z"/>
		</g>
		<g>
			<polygon fill="#C1C0BF" points="190.4,355.1 190.4,355.1 190.4,355.1 			"/>
		</g>
		<g>
			<path fill="#C1C0BF" d="M268.5,363.1c-0.8,0-1.5-0.1-2.2-0.4c0,0,0,0,0,0c0,0,0,0,0,0c0,0.2,0.1,0.3,0.3,0.4
				c0.4,0.2,0.9,0.3,1.4,0.3c3.3,0,6.7,0,10,0c0.1,0,0.2,0,0.3,0c0.3,0,0.6-0.1,0.9-0.3c0.1-0.1,0.2-0.2,0.3-0.3
				c0-0.1,0-0.2-0.1-0.2c-0.4,0.5-0.9,0.5-1.5,0.5C274.8,363.1,271.6,363.1,268.5,363.1z"/>
		</g>
		<g>
			<polygon fill="#C1C0BF" points="266.3,362.8 266.3,362.7 266.3,362.7 			"/>
		</g>
		<g>
			<path fill="#C1C0BF" d="M104.4,362.7c-0.7,0.3-1.5,0.4-2.3,0.4c-2.5,0-4.9,0-7.4,0c-0.7,0-1.4,0-2.2,0c-0.5,0-1,0-1.4-0.6
				c-0.1,0.3,0,0.5,0.3,0.6c0.3,0.1,0.7,0.2,1,0.2c3.3,0,6.6,0,9.9,0c0.4,0,0.7,0,1-0.1C103.8,363.2,104.2,363.1,104.4,362.7
				C104.4,362.8,104.4,362.8,104.4,362.7L104.4,362.7z"/>
		</g>
		<g>
			<polygon fill="#C1C0BF" points="104.4,362.7 104.4,362.7 104.4,362.8 			"/>
		</g>
		<g>
			<path fill="#C1C0BF" d="M140.3,363.1c-0.5,0-1-0.1-1.4-0.5c-0.1,0.1,0,0.2,0.1,0.3c0.4,0.3,0.8,0.5,1.3,0.5c3.5,0,6.9,0,10.4,0
				c0.5,0,0.9-0.2,1.3-0.4c0.1-0.1,0.2-0.1,0.1-0.3c-0.4,0.3-0.9,0.4-1.4,0.4C147.1,363.1,143.7,363.1,140.3,363.1z"/>
		</g>
		<g>
			<path fill="#C1C0BF" d="M298.5,355.5c-3.4,0-6.8,0-10.2,0c-0.7,0-1.3,0-2-0.3l0,0c0,0,0,0,0,0c0,0.2,0.2,0.3,0.3,0.4
				c0.4,0.1,0.7,0.2,1.1,0.2c0.6,0,1.3,0,1.9,0c2.9,0,5.9,0,8.8,0c0.3,0,0.6-0.1,0.9-0.2c0.2-0.1,0.3-0.2,0.3-0.4
				c0-0.1-0.1-0.1-0.2-0.1C299.3,355.5,298.9,355.5,298.5,355.5z"/>
		</g>
		<g>
			<polygon fill="#C1C0BF" points="286.4,355.2 286.4,355.2 286.4,355.2 			"/>
		</g>
		<g>
			<path fill="#C1C0BF" d="M250.5,355.5c-3.4,0-6.7,0-10.1,0c-0.3,0-0.6,0-0.9,0c-0.1,0-0.1,0-0.2,0c-0.1,0-0.2,0-0.3-0.1
				c-0.1,0-0.1,0-0.2,0c-0.1,0-0.2-0.1-0.3-0.1c-0.1,0-0.1,0-0.2-0.1c0,0,0,0,0,0l0,0c0,0.2,0.2,0.3,0.3,0.4
				c0.4,0.1,0.8,0.2,1.2,0.2c3.5,0,7,0,10.5,0c0.1,0,0.2,0,0.3,0c0.3-0.1,0.7-0.1,1-0.4c0.1-0.1,0.2-0.2,0-0.4
				C251.4,355.4,250.9,355.5,250.5,355.5z"/>
		</g>
		<g>
			<polygon fill="#C1C0BF" points="238.3,355.2 238.3,355.2 238.3,355.2 			"/>
		</g>
		<g>
			<path fill="#C1C0BF" d="M239.3,355.5c0.1,0,0.1,0,0.2,0C239.5,355.5,239.4,355.5,239.3,355.5z"/>
		</g>
		<g>
			<path fill="#C1C0BF" d="M238.8,355.4c0.1,0,0.1,0,0.2,0C238.9,355.4,238.9,355.4,238.8,355.4z"/>
		</g>
		<g>
			<path fill="#C1C0BF" d="M238.5,355.3c-0.1,0-0.1,0-0.2-0.1l0,0C238.4,355.2,238.5,355.3,238.5,355.3z"/>
		</g>
		<g>
			<polygon fill="#C1C0BF" points="238.3,355.2 238.3,355.2 238.3,355.2 			"/>
		</g>
		<g>
			<path fill="#C1C0BF" d="M94.9,355.6c0.3,0.1,0.6,0.2,0.8,0.2c3.6,0,7.1,0,10.7,0c0.3,0,0.6-0.1,0.9-0.1c0.3-0.1,0.6-0.2,0.7-0.5
				c-0.4,0.2-0.8,0.4-1.3,0.4c-3.8,0-7.5,0-11.3,0c-0.2,0-0.4,0-0.6-0.2c0,0-0.1-0.1-0.1-0.1c0,0,0-0.1,0-0.1
				c-0.1,0-0.2-0.1-0.2,0.1C94.5,355.4,94.7,355.6,94.9,355.6z"/>
		</g>
		<g>
			<path fill="#C1C0BF" d="M223.7,355.5c-0.5,0-1,0-1.4-0.3c0,0.2,0.1,0.3,0.3,0.4c0.4,0.2,0.7,0.2,1.1,0.2c3.5,0,7.1,0,10.6,0
				c0.1,0,0.2,0,0.3,0c0.3,0,0.5-0.1,0.8-0.2c0.1-0.1,0.4-0.2,0.2-0.5c-0.3,0.3-0.7,0.4-1.2,0.4
				C230.9,355.5,227.3,355.5,223.7,355.5z"/>
		</g>
		<g>
			<path fill="#C1C0BF" d="M126.8,355.6c0.3,0.1,0.6,0.2,0.9,0.2c3.6,0,7.2,0,10.9,0c0.4,0,0.7-0.1,1-0.3c0.1-0.1,0.2-0.1,0.3-0.3
				c0,0,0,0,0,0c0,0,0,0,0,0c0,0,0,0,0,0c-0.4,0.1-0.7,0.3-1.1,0.3c-3.8,0-7.5,0-11.3,0c-0.3,0-0.6-0.1-0.8-0.4
				C126.4,355.4,126.6,355.5,126.8,355.6z"/>
		</g>
		<g>
			<path fill="#C1C0BF" d="M139.8,355.2c-0.4,0.1-0.7,0.3-1.1,0.3C139.1,355.5,139.4,355.3,139.8,355.2z"/>
		</g>
		<g>
			<path fill="#C1C0BF" d="M207.8,355.5c-0.5,0-0.9-0.1-1.3-0.3c0,0.1,0.1,0.2,0.2,0.3c0.4,0.2,0.8,0.3,1.2,0.3c3.5,0,7.1,0,10.6,0
				c0.1,0,0.2,0,0.3,0c0.4-0.1,0.7-0.1,1-0.4c0.1-0.1,0.1-0.2,0-0.2c-0.3,0.3-0.7,0.4-1.2,0.4C214.9,355.5,211.3,355.5,207.8,355.5z
				"/>
		</g>
		<g>
			<path fill="#C1C0BF" d="M142.7,355.5c0.3,0.1,0.6,0.2,1,0.2c3.6,0,7.2,0,10.7,0c0.3,0,0.7-0.1,1-0.2c0.2-0.1,0.3-0.2,0.4-0.4
				c-0.5,0.2-1.1,0.3-1.7,0.3c-3.5,0-7,0-10.5,0c-0.4,0-0.8-0.1-1.1-0.4C142.4,355.3,142.5,355.5,142.7,355.5z"/>
		</g>
		<g>
			<path fill="#C1C0BF" d="M79.7,355.8c3.6,0,7.1,0,10.7,0c0.4,0,0.7-0.1,1-0.2c0.2-0.1,0.4-0.1,0.4-0.4c-0.6,0.3-1.2,0.3-1.9,0.3
				c-3.4,0-6.9,0-10.3,0c-0.2,0-0.3,0-0.5,0c-0.2,0-0.4-0.1-0.5-0.4c-0.3,0.1-0.2,0.2,0,0.3C79,355.7,79.3,355.8,79.7,355.8z"/>
		</g>
		<g>
			<path fill="#C1C0BF" d="M256.7,355.5c-0.2,0-0.4,0-0.6,0c-0.6,0-1.1,0-1.6-0.2c0,0,0,0,0,0h0c0,0.2,0.1,0.3,0.3,0.3
				c0.3,0.1,0.7,0.2,1,0.2c3.5,0,7.1,0,10.6,0c0.2,0,0.4,0,0.7-0.1c0.2,0,0.4-0.2,0.5-0.4c0.1-0.1,0-0.2-0.1-0.2
				c-0.3,0.4-0.7,0.4-1.1,0.4C263.2,355.5,259.9,355.5,256.7,355.5z"/>
		</g>
		<g>
			<polygon fill="#C1C0BF" points="254.5,355.3 254.5,355.3 254.5,355.3 			"/>
		</g>
		<g>
			<path fill="#C1C0BF" d="M256.7,355.5c-0.2,0-0.4,0-0.6,0C256.3,355.5,256.5,355.5,256.7,355.5z"/>
		</g>
		<g>
			<path fill="#C1C0BF" d="M110.9,355.6c0.2,0.1,0.5,0.1,0.7,0.1c3.6,0,7.2,0,10.8,0c0.3,0,0.5-0.1,0.8-0.1c0.2-0.1,0.4-0.1,0.4-0.3
				c0,0,0,0,0,0c0,0,0,0,0,0c-0.7,0.3-1.5,0.2-2.2,0.2c-3.2,0-6.5,0-9.7,0c-0.1,0-0.3,0-0.4,0c-0.3,0-0.6-0.1-0.7-0.5
				c-0.2,0-0.2,0.1-0.1,0.2C110.6,355.4,110.7,355.6,110.9,355.6z"/>
		</g>
		<g>
			<polygon fill="#C1C0BF" points="123.7,355.3 123.7,355.3 123.7,355.3 			"/>
		</g>
		<g>
			<polygon fill="#C1C0BF" points="123.7,355.3 123.7,355.3 123.7,355.3 			"/>
		</g>
		<g>
			<path fill="#C1C0BF" d="M171.8,355.1c-0.4,0.2-0.8,0.3-1.2,0.4c-0.1,0-0.3,0-0.4,0c-3.5,0-7,0-10.5,0c-0.4,0-0.8,0-1.1-0.2
				c0,0,0,0,0,0c0,0,0,0,0,0c0,0.2,0.2,0.3,0.4,0.4c0.3,0.1,0.6,0.1,0.9,0.1c3.5,0,7,0,10.6,0c0.1,0,0.2,0,0.3,0
				C171.1,355.7,171.7,355.7,171.8,355.1C171.8,355.1,171.8,355.1,171.8,355.1C171.8,355.1,171.8,355.1,171.8,355.1z"/>
		</g>
		<g>
			<path fill="#C1C0BF" d="M170.2,355.5c0.1,0,0.3,0,0.4,0C170.5,355.5,170.4,355.5,170.2,355.5z"/>
		</g>
		<g>
			<polygon fill="#C1C0BF" points="171.8,355.1 171.8,355.1 171.8,355.1 			"/>
		</g>
		<g>
			<polygon fill="#C1C0BF" points="158.6,355.3 158.6,355.3 158.6,355.3 			"/>
		</g>
		<g>
			<path fill="#C1C0BF" d="M158.6,355.3C158.6,355.3,158.6,355.3,158.6,355.3C158.6,355.3,158.6,355.3,158.6,355.3
				C158.6,355.3,158.6,355.3,158.6,355.3c0-0.1,0-0.1,0-0.1c0,0,0-0.1-0.1-0.1C158.3,355.3,158.5,355.3,158.6,355.3z"/>
		</g>
		<g>
			<path fill="#C1C0BF" d="M158.6,355.3C158.6,355.2,158.6,355.2,158.6,355.3C158.6,355.2,158.6,355.2,158.6,355.3z"/>
		</g>
		<g>
			<polygon fill="#C1C0BF" points="158.6,355.3 158.6,355.3 158.6,355.3 			"/>
		</g>
		<g>
			<polygon fill="#C1C0BF" points="158.6,355.3 158.6,355.3 158.6,355.3 			"/>
		</g>
		<g>
			<polygon fill="#C1C0BF" points="158.6,355.3 158.6,355.3 158.6,355.3 			"/>
		</g>
		<g>
			<path fill="#C1C0BF" d="M139.8,355.2C139.8,355.2,139.8,355.2,139.8,355.2c0.1,0,0.2,0,0.1-0.2
				C139.9,355.1,139.9,355.2,139.8,355.2C139.8,355.2,139.8,355.2,139.8,355.2z"/>
		</g>
		<g>
			<rect x="139.8" y="355.2" fill="#C1C0BF" width="0" height="0"/>
		</g>
		<g>
			<path fill="#C1C0BF" d="M139.8,355.2c0-0.1,0.1-0.1,0.1-0.2C139.9,355.1,139.9,355.2,139.8,355.2L139.8,355.2z"/>
		</g>
		<g>
			<polygon fill="#C1C0BF" points="139.8,355.2 139.8,355.2 139.8,355.2 			"/>
		</g>
		<g>
			<polygon fill="#C1C0BF" points="139.8,355.2 139.8,355.2 139.8,355.2 			"/>
		</g>
		<g>
			<polygon fill="#C1C0BF" points="139.8,355.2 139.8,355.2 139.8,355.2 			"/>
		</g>
		<g>
			<polygon fill="#C1C0BF" points="139.8,355.2 139.8,355.2 139.8,355.2 			"/>
		</g>
		<g>
			<path fill="#C1C0BF" d="M266.3,362.7c0-0.1-0.1-0.1-0.2-0.2C266.1,362.7,266.1,362.7,266.3,362.7
				C266.3,362.8,266.3,362.8,266.3,362.7L266.3,362.7z"/>
		</g>
		<g>
			<polygon fill="#C1C0BF" points="266.3,362.7 266.3,362.7 266.3,362.7 			"/>
		</g>
		<g>
			<polygon fill="#C1C0BF" points="266.3,362.7 266.3,362.8 266.3,362.8 			"/>
		</g>
		<g>
			<polygon fill="#C1C0BF" points="266.3,362.7 266.3,362.8 266.3,362.7 			"/>
		</g>
		<g>
			<path fill="#C1C0BF" d="M123.9,355.2C123.8,355.2,123.8,355.2,123.9,355.2c-0.1,0-0.1,0.1-0.2,0.1c0,0,0,0,0,0
				C123.8,355.3,123.8,355.3,123.9,355.2C123.9,355.2,123.9,355.2,123.9,355.2C123.9,355.2,123.9,355.2,123.9,355.2z"/>
		</g>
		<g>
			<path fill="#C1C0BF" d="M123.8,355.2C123.8,355.2,123.8,355.2,123.8,355.2C123.8,355.2,123.8,355.2,123.8,355.2z"/>
		</g>
		<g>
			<rect x="123.9" y="355.2" fill="#C1C0BF" width="0" height="0"/>
		</g>
		<g>
			<polygon fill="#C1C0BF" points="123.7,355.3 123.7,355.3 123.7,355.3 			"/>
		</g>
		<g>
			<path fill="#C1C0BF" d="M254.5,355.3c0,0-0.1-0.1-0.1-0.1C254.3,355.3,254.4,355.3,254.5,355.3
				C254.5,355.3,254.5,355.3,254.5,355.3C254.5,355.3,254.5,355.3,254.5,355.3z"/>
		</g>
		<g>
			<polygon fill="#C1C0BF" points="254.5,355.3 254.5,355.3 254.5,355.3 			"/>
		</g>
		<g>
			<polygon fill="#C1C0BF" points="254.5,355.3 254.5,355.3 254.5,355.3 			"/>
		</g>
		<g>
			<polygon fill="#C1C0BF" points="254.5,355.3 254.5,355.3 254.5,355.3 			"/>
		</g>
		<g>
			<path fill="#C1C0BF" d="M104.4,362.8c0,0,0.2,0,0.1-0.1C104.4,362.7,104.4,362.7,104.4,362.8
				C104.4,362.8,104.4,362.8,104.4,362.8z"/>
		</g>
		<g>
			<polygon fill="#C1C0BF" points="104.4,362.8 104.4,362.8 104.4,362.7 			"/>
		</g>
		<g>
			<path fill="#C1C0BF" d="M238.3,355.1C238.3,355.1,238.3,355.1,238.3,355.1C238.3,355.2,238.3,355.2,238.3,355.1
				C238.3,355.2,238.3,355.2,238.3,355.1C238.3,355.2,238.3,355.1,238.3,355.1z"/>
		</g>
		<g>
			<path fill="#C1C0BF" d="M238.3,355.2C238.3,355.2,238.3,355.1,238.3,355.2C238.3,355.1,238.3,355.2,238.3,355.2L238.3,355.2z"/>
		</g>
		<g>
			<rect x="238.3" y="355.2" fill="#C1C0BF" width="0" height="0"/>
		</g>
		<g>
			<polygon fill="#C1C0BF" points="238.3,355.2 238.3,355.2 238.3,355.2 			"/>
		</g>
		<g>
			<rect x="238.3" y="355.2" fill="#C1C0BF" width="0" height="0"/>
		</g>
		<g>
			<polygon fill="#C1C0BF" points="238.3,355.2 238.3,355.2 238.3,355.2 			"/>
		</g>
		<g>
			<path fill="#C1C0BF" d="M187.9,355C187.9,355,187.9,355,187.9,355C187.9,355,187.9,355,187.9,355C187.9,355,187.9,355,187.9,355z
				"/>
		</g>
		<g>
			<path fill="#C1C0BF" d="M171.8,355.1C171.8,355.1,171.8,355.1,171.8,355.1C171.8,355.1,171.9,355.1,171.8,355.1
				C171.8,355.1,171.8,355.1,171.8,355.1C171.8,355.1,171.8,355.1,171.8,355.1C171.8,355.1,171.8,355.1,171.8,355.1z"/>
		</g>
		<g>
			<polygon fill="#C1C0BF" points="171.8,355.1 171.8,355.1 171.8,355.1 			"/>
		</g>
		<g>
			<polygon fill="#C1C0BF" points="171.8,355.1 171.8,355.1 171.8,355.1 			"/>
		</g>
		<g>
			<polygon fill="#C1C0BF" points="171.8,355.1 171.8,355.1 171.8,355.1 			"/>
		</g>
		<g>
			<path fill="#C1C0BF" d="M123.9,355.2C123.9,355.2,123.9,355.2,123.9,355.2L123.9,355.2C123.9,355.2,123.9,355.2,123.9,355.2
				C123.9,355.2,123.9,355.1,123.9,355.2C123.9,355.1,123.9,355.2,123.9,355.2z"/>
		</g>
		<g>
			<path fill="#C1C0BF" d="M123.9,355.2C123.9,355.2,123.9,355.1,123.9,355.2L123.9,355.2C123.9,355.1,123.9,355.2,123.9,355.2z"/>
		</g>
		<g>
			<polygon fill="#C1C0BF" points="123.9,355.2 123.9,355.2 123.9,355.2 			"/>
		</g>
		<g>
			<polygon fill="#C1C0BF" points="123.9,355.2 123.9,355.2 123.9,355.2 			"/>
		</g>
		<g>
			<polygon fill="#C1C0BF" points="123.9,355.2 123.9,355.2 123.9,355.2 			"/>
		</g>
		<g>
			<path fill="#C1C0BF" d="M142.5,370.5C142.5,370.5,142.5,370.5,142.5,370.5C142.5,370.5,142.6,370.5,142.5,370.5
				C142.6,370.4,142.5,370.4,142.5,370.5C142.5,370.4,142.5,370.5,142.5,370.5C142.5,370.5,142.5,370.5,142.5,370.5z"/>
		</g>
		<g>
			<polygon fill="#C1C0BF" points="142.5,370.5 142.5,370.5 142.5,370.5 			"/>
		</g>
		<g>
			<polygon fill="#C1C0BF" points="142.5,370.5 142.5,370.5 142.5,370.5 			"/>
		</g>
		<g>
			<polygon fill="#C1C0BF" points="142.5,370.5 142.5,370.5 142.5,370.5 			"/>
		</g>
	</g>
</g>
</svg>
