<?xml version="1.0" encoding="utf-8"?>
<!-- Generator: Adobe Illustrator 22.1.0, SVG Export Plug-In . SVG Version: 6.00 Build 0)  -->
<svg version="1.1" id="Layer_1" xmlns="http://www.w3.org/2000/svg" xmlns:xlink="http://www.w3.org/1999/xlink" x="0px" y="0px"
	 viewBox="0 0 232.337 28" style="enable-background:new 0 0 232.337 28;" xml:space="preserve">
<style type="text/css">
	.st0{fill:#FFFFFF;}
	.st1{opacity:0.5;fill:#FFFFFF;}
</style>
<g>
	<g>
		<g>
			<path class="st0" d="M5.734,4.623H0V1.642h14.957v2.981H9.254v16.91H5.734V4.623z"/>
			<path class="st0" d="M14.736,6.6h2.882l0.243,2.646h0.121c1.062-1.947,2.639-3.011,4.217-3.011c0.758,0,1.244,0.091,1.699,0.304
				l-0.607,3.041c-0.516-0.152-0.91-0.243-1.547-0.243c-1.183,0-2.609,0.821-3.519,3.072v9.124h-3.489V6.6z"/>
			<path class="st0" d="M33.519,11.983c-0.03-1.581-0.698-2.92-2.7-2.92c-1.487,0-2.882,0.669-4.187,1.46l-1.274-2.342
				c1.638-1.034,3.732-1.947,6.098-1.947c3.732,0,5.552,2.281,5.552,6.448v8.851h-2.852l-0.273-1.642h-0.091
				c-1.335,1.125-2.852,2.007-4.612,2.007c-2.609,0-4.43-1.764-4.43-4.38C24.751,14.325,27.421,12.652,33.519,11.983z
				 M30.273,19.161c1.214,0,2.154-0.608,3.246-1.642v-3.346c-4.035,0.517-5.37,1.582-5.37,3.072
				C28.149,18.583,29.029,19.161,30.273,19.161z"/>
			<path class="st0" d="M37.855,6.6h3.55l2.367,7.756c0.394,1.46,0.849,2.981,1.244,4.501h0.121c0.425-1.521,0.85-3.042,1.274-4.501
				L48.777,6.6h3.368l-5.067,14.933h-4.035L37.855,6.6z"/>
			<path class="st0" d="M53.547,2.007c0-1.186,0.91-2.007,2.154-2.007c1.244,0,2.154,0.821,2.154,2.007
				c0,1.156-0.91,1.977-2.154,1.977C54.457,3.984,53.547,3.163,53.547,2.007z M53.941,6.6h3.489v14.933h-3.489V6.6z"/>
			<path class="st0" d="M61.162,17.579c1.335,1.034,2.609,1.673,4.126,1.673c1.608,0,2.367-0.761,2.367-1.794
				c0-1.247-1.608-1.794-3.186-2.403c-1.972-0.73-4.187-1.855-4.187-4.349c0-2.616,2.093-4.471,5.431-4.471
				c2.063,0,3.732,0.852,4.945,1.794l-1.608,2.129c-1.032-0.76-2.093-1.277-3.277-1.277c-1.487,0-2.184,0.7-2.184,1.642
				c0,1.156,1.487,1.642,3.095,2.22c2.033,0.761,4.278,1.734,4.278,4.532c0,2.555-2.033,4.623-5.795,4.623
				c-2.033,0-4.187-0.882-5.643-2.068L61.162,17.579z"/>
			<path class="st0" d="M88.015,1.277c2.427,0,4.399,1.186,5.643,2.524l-1.942,2.19c-1.031-1.004-2.154-1.642-3.671-1.642
				c-3.246,0-5.583,2.737-5.583,7.208c0,4.532,2.154,7.269,5.461,7.269c1.76,0,3.064-0.73,4.187-1.977l1.942,2.159
				c-1.608,1.855-3.671,2.889-6.189,2.889c-5.036,0-9.011-3.65-9.011-10.25C78.853,5.14,82.918,1.277,88.015,1.277z"/>
			<path class="st0" d="M96.298,1.642h3.519v19.891h-3.519V1.642z"/>
		</g>
	</g>
	<rect x="110.257" y="1.642" class="st1" width="0.736" height="19.891"/>
	<path class="st0" d="M121.523,1.751h10.773v1.186h-9.399v7.476h7.893v1.186h-7.893v8.704h9.698v1.186h-11.072V1.751z"/>
	<path class="st0" d="M135.467,7.106h1.117l0.143,2.228h0.066c1.464-1.462,2.957-2.588,4.935-2.588c2.964,0,4.338,1.803,4.338,5.517
		v9.225h-1.32v-9.051c0-3.049-0.962-4.499-3.269-4.499c-1.709,0-2.946,0.905-4.69,2.702v10.848h-1.32V7.106z"/>
	<path class="st0" d="M150.285,17.517V8.262h-2.241v-1.03l2.271-0.126l0.167-4.163h1.123v4.163h4.159v1.156h-4.159v9.354
		c0,1.836,0.46,3.076,2.438,3.076c0.532,0,1.279-0.227,1.799-0.455l0.346,1.072c-0.83,0.293-1.748,0.539-2.342,0.539
		C151.092,21.848,150.285,20.093,150.285,17.517z"/>
	<path class="st0" d="M156.729,14.324c0-4.69,3.041-7.577,6.256-7.577c3.4,0,5.491,2.426,5.491,6.655
		c0,0.359-0.012,0.719-0.074,1.078h-10.316c0.048,3.63,2.169,6.224,5.402,6.224c1.554,0,2.778-0.515,3.854-1.276l0.544,1.006
		c-1.129,0.707-2.42,1.414-4.523,1.414C159.699,21.848,156.729,19.027,156.729,14.324z M167.234,13.39
		c0-3.672-1.661-5.499-4.236-5.499c-2.426,0-4.619,2.061-4.918,5.499H167.234z"/>
	<path class="st0" d="M171.444,7.106h1.117l0.143,2.684h0.066c0.971-1.767,2.375-3.043,4.081-3.043c0.523,0,0.95,0.066,1.422,0.3
		l-0.299,1.198c-0.484-0.174-0.747-0.24-1.297-0.24c-1.291,0-2.82,0.982-3.914,3.702v9.782h-1.32V7.106z"/>
	<path class="st0" d="M180.427,7.106h1.117l0.143,1.809h0.066c1.401-1.126,3.107-2.168,4.87-2.168c3.848,0,5.742,2.887,5.742,7.338
		c0,4.882-2.94,7.763-6.322,7.763c-1.362,0-2.82-0.647-4.314-1.767l0.018,2.654V28h-1.32V7.106z M190.979,14.091
		c0-3.534-1.255-6.17-4.565-6.17c-1.422,0-2.934,0.839-4.666,2.372v8.53c1.619,1.348,3.137,1.851,4.224,1.851
		C188.888,20.674,190.979,17.99,190.979,14.091z"/>
	<path class="st0" d="M195.652,7.106h1.117l0.143,2.684h0.066c0.971-1.767,2.375-3.043,4.081-3.043c0.523,0,0.95,0.066,1.422,0.3
		l-0.299,1.198c-0.484-0.174-0.747-0.24-1.297-0.24c-1.291,0-2.82,0.982-3.914,3.702v9.782h-1.32V7.106z"/>
	<path class="st0" d="M204.122,2.458c0-0.743,0.55-1.174,1.201-1.174c0.651,0,1.201,0.431,1.201,1.174
		c0,0.689-0.55,1.174-1.201,1.174C204.672,3.632,204.122,3.147,204.122,2.458z M204.636,7.106h1.32v14.382h-1.32V7.106z"/>
	<path class="st0" d="M208.529,19.859l0.765-0.964c1.213,1.018,2.519,1.821,4.559,1.821c2.259,0,3.43-1.324,3.43-2.839
		c0-1.803-1.858-2.594-3.514-3.193c-2.163-0.77-4.571-1.653-4.571-4.109c0-2.073,1.637-3.828,4.625-3.828
		c1.535,0,3.053,0.638,4.099,1.492l-0.711,0.952c-0.968-0.725-1.987-1.312-3.424-1.312c-2.238,0-3.251,1.291-3.251,2.618
		c0,1.641,1.691,2.264,3.4,2.911c2.223,0.848,4.684,1.581,4.684,4.385c0,2.168-1.727,4.055-4.834,4.055
		C211.66,21.848,209.813,20.955,208.529,19.859z"/>
	<path class="st0" d="M220.59,14.324c0-4.69,3.041-7.577,6.256-7.577c3.4,0,5.491,2.426,5.491,6.655
		c0,0.359-0.012,0.719-0.074,1.078h-10.316c0.048,3.63,2.169,6.224,5.402,6.224c1.554,0,2.778-0.515,3.854-1.276l0.544,1.006
		c-1.129,0.707-2.42,1.414-4.523,1.414C223.56,21.848,220.59,19.027,220.59,14.324z M231.094,13.39c0-3.672-1.661-5.499-4.236-5.499
		c-2.426,0-4.619,2.061-4.918,5.499H231.094z"/>
</g>
</svg>
