<svg xmlns="http://www.w3.org/2000/svg" xmlns:xlink="http://www.w3.org/1999/xlink" id="Layer_1" width="281.52" height="112.055" x="0" y="0" enable-background="new 0 0 281.52 112.055" version="1.1" viewBox="0 0 281.52 112.055" xml:space="preserve"><g><image width="1173" height="495" opacity=".1" overflow="visible" transform="matrix(0.24 0 0 0.24 0 0)" xlink:href="BEFA45F0C4EFA63F.png"/><g><polyline fill="#BBCAC6" points="275.011 102.099 245.136 64.12 231.537 64.12 185.894 6.48 106.606 6.48 83.963 41.12 56.652 41.12 6.48 102.099 6.48 112.106 275.011 112.106 275.011 102.099"/></g></g><polygon fill="#B4C0BF" points="101.003 30.779 90.214 49.96 64.831 49.96 41.867 81.083 118.687 81.083 132.261 64.343 102.193 64.343 118.981 30.776"/><polygon fill="#CAD8D7" points="106.605 6.48 99.325 17.594 178.144 17.594 224.897 76.345 237.25 76.345 260.021 102.099 275.011 101.977 245.136 64.12 231.537 64.12 185.894 6.48"/></svg>